<?xml version="1.0" encoding="UTF-8" standalone="no"?>
<svg
   xmlns:dc="http://purl.org/dc/elements/1.1/"
   xmlns:cc="http://creativecommons.org/ns#"
   xmlns:rdf="http://www.w3.org/1999/02/22-rdf-syntax-ns#"
   xmlns:svg="http://www.w3.org/2000/svg"
   xmlns="http://www.w3.org/2000/svg"
   id="svg21"
   xml:space="preserve"
   viewBox="5 5 1001 203"
   height="208"
   width="1007"
   version="1.1"><metadata
     id="metadata25"><rdf:RDF><cc:Work
         rdf:about=""><dc:format>image/svg+xml</dc:format><dc:type
           rdf:resource="http://purl.org/dc/dcmitype/StillImage" /></cc:Work></rdf:RDF></metadata><desc
     id="desc2">Created with Fabric.js 2.4.6</desc><defs
     id="defs4" /><g
     id="g13"
     transform="matrix(10.03,0,0,2.04,503.68,104.82)"><linearGradient
       y2="0"
       x2="50"
       y1="0"
       x1="-50"
       gradientUnits="userSpaceOnUse"
       id="SVGID_26"><stop
         id="stop6"
         style="stop-color:rgb(5,146,202);stop-opacity: 0.68"
         offset="60%" /><stop
         id="stop8"
         style="stop-color:rgb(255,255,255);stop-opacity: 1"
         offset="100%" /></linearGradient><path
       id="rect11"
       d="M -50,-50 H 50 V 50 H -50 Z"
       style="opacity:1;fill:url(#SVGID_26);fill-rule:nonzero;stroke:#000000;stroke-width:0;stroke-linecap:butt;stroke-linejoin:miter;stroke-miterlimit:4;stroke-dasharray:none;stroke-dashoffset:0" /></g><g
     id="g19"
     transform="translate(193.66,100.76)"><g
       id="text17"
       style="font-style:normal;font-weight:normal;font-size:60px;font-family:Miniver;white-space:pre;opacity:1;fill:#f9fafd;fill-rule:nonzero;stroke:none;stroke-width:1;stroke-linecap:butt;stroke-linejoin:miter;stroke-miterlimit:4;stroke-dasharray:none;stroke-dashoffset:0"
       aria-label="career"><path
         id="path28"
         style=""
         d="m -59.887184,-3.7085934 q -0.117188,0.1757813 -0.585938,0.8203125 -0.46875,0.6445313 -0.46875,1.1132813 0,0.5273437 0.644532,0.5273437 h 0.05859 q 0.9375,-0.058594 0.9375,-0.703125 0,-0.46875 -0.234375,-0.9375 -0.234375,-0.5273437 -0.351562,-0.8203125 z m 11.835937,14.4726564 q -0.46875,0.703125 -1.875,1.816406 -1.347656,1.054688 -3.222656,2.226563 -1.816406,1.113281 -3.984375,2.285156 -2.109375,1.113281 -4.101562,2.050781 -1.992188,0.9375 -3.632813,1.464844 -1.582031,0.585937 -2.34375,0.585937 -1.171875,0 -3.105469,-0.527343 -1.933593,-0.46875 -3.75,-1.464844 -1.816406,-0.9375 -3.164062,-2.285156 -1.289063,-1.40625 -1.289063,-3.105469 V 13.69375 q 0.05859,-1.757812 0.527344,-4.1015621 0.527344,-2.34375 1.289063,-4.7460938 0.820312,-2.4023437 1.699218,-4.62890622 0.9375,-2.28515628 1.757813,-3.80859378 0.761719,-1.40625 1.875,-2.6367187 1.113281,-1.2890625 2.285156,-2.2265625 1.230469,-0.9960938 2.460938,-1.5820309 1.230468,-0.585938 2.285156,-0.585938 0.117187,0 0.234375,0.05859 0.175781,0 0.292969,0 0.761718,0.117187 1.757812,0.7617186 0.996094,0.5859375 1.992188,1.40625 0.644531,-0.6445312 1.289062,-1.2304687 0.644531,-0.5859379 1.289063,-0.9960939 l 2.34375,3.5156251 -2.050782,1.875 q 0.527344,0.9375 0.820313,1.875 0.351562,0.8789063 0.351562,1.7578125 0,0.2929688 -0.05859,0.5273438 0,0.23437498 -0.05859,0.52734373 -0.46875,1.69921877 -1.933594,2.51953127 -1.464844,0.7617187 -2.929687,0.7617187 -1.171875,0 -1.992188,-0.4101562 -0.820312,-0.46875 -1.054687,-1.2304688 -0.117188,-0.46874997 -0.117188,-0.76171872 0,-0.99609375 0.410156,-2.40234378 0.46875,-1.40625 1.230469,-2.8710937 -0.703125,-0.5859375 -1.40625,-0.9960938 -0.703125,-0.4101562 -1.289062,-0.46875 -0.410157,0 -1.230469,1.1132813 -0.820313,1.1132812 -1.816406,2.9296875 -0.9375,1.75781248 -1.992188,4.0429687 -1.054687,2.2265625 -1.933594,4.5117188 -0.820312,2.2265625 -1.347656,4.3359376 -0.527344,2.050781 -0.527344,3.515625 0,1.464844 0.46875,1.933594 0.351563,0.175781 0.878907,0.292968 0.996093,0.292969 2.695312,0.292969 1.40625,0 3.75,-0.527344 2.34375,-0.585937 5.273438,-1.816406 2.929687,-1.230469 6.210937,-3.222656 3.339844,-1.9921876 6.796875,-4.9218751 z" /><path
         id="path30"
         style=""
         d="m -44.82859,15.334375 q 0.644531,0 1.699218,-0.644531 1.054688,-0.703125 2.285157,-1.816406 1.230468,-1.113281 2.519531,-2.519531 1.347656,-1.4062504 2.578125,-2.8125004 0.644531,-2.0507812 1.640625,-4.9804687 1.054687,-2.98828127 2.34375,-6.4453125 l -0.820313,1.5820312 q -0.175781,-0.8789062 -0.585937,-1.640625 -0.410156,-0.7617187 -0.9375,-1.3476562 -0.527344,-0.6445313 -1.113281,-0.9960938 -0.527344,-0.3515625 -0.9375,-0.3515625 -0.292969,0 -0.410157,0.1171875 -0.234375,0.1757813 -1.054687,1.1132813 -0.761719,0.8789062 -1.875,2.2265625 -1.054688,1.3476562 -2.285156,2.98828123 -1.171875,1.64062497 -2.226563,3.22265627 -0.996094,1.5820312 -1.757812,2.9882812 -0.761719,1.3476563 -0.878907,2.1679688 -0.117187,0.8203125 -0.234375,1.6992187 -0.117187,0.8203124 -0.117187,1.6406254 0,1.523437 0.410156,2.636718 0.46875,1.113282 1.640625,1.171875 z m 26.425781,-3.925781 q -0.761719,0.878906 -2.167969,2.460938 -1.40625,1.582031 -3.046875,3.164062 -1.582031,1.523438 -3.222656,2.636719 -1.582031,1.171875 -2.695313,1.171875 h -0.117187 q -1.113281,0 -2.402344,-0.292969 -1.289062,-0.292969 -2.402344,-0.820312 -1.054687,-0.46875 -1.816406,-1.113282 -0.703125,-0.703125 -0.703125,-1.523437 v -0.05859 q 0,-0.585937 0.05859,-1.347656 0.05859,-0.820313 0.117187,-1.699219 -2.519531,2.460938 -5.039062,4.101563 -2.460938,1.640625 -4.335938,1.640625 -0.46875,0 -0.644531,-0.05859 -1.054687,-0.175781 -1.933594,-0.996094 -0.878906,-0.878906 -1.523437,-2.109375 -0.585938,-1.289062 -0.9375,-2.8125 -0.351563,-1.523437 -0.351563,-3.046875 0,-2.2265624 0.703125,-4.1601561 0.46875,-1.2304688 1.347657,-2.9296875 0.878906,-1.6992188 1.992187,-3.57421877 1.171875,-1.87500003 2.460938,-3.69140623 1.347656,-1.875 2.636718,-3.3984375 1.347657,-1.5234375 2.636719,-2.4609375 1.289063,-0.9960934 2.402344,-1.1718754 0.292969,-0.05859 0.527344,-0.05859 0.234375,0 0.46875,0 1.230468,0 2.167968,0.351562 0.996094,0.351563 1.699219,0.9375001 0.761719,0.5273438 1.230469,1.171875 0.46875,0.6445313 0.703125,1.171875 0.175781,-0.703125 0.410156,-1.1132812 l 3.808594,0.5859375 q -1.582031,3.984375 -2.929688,8.08593748 -1.347656,4.04296872 -2.109375,7.73437502 l 0.05859,0.1757812 -0.117187,0.1171875 q -0.351563,1.7578124 -0.585938,3.3398434 -0.175781,1.582032 -0.175781,2.929688 0,0.644531 0,1.113281 0.05859,0.46875 0.117187,0.9375 1.464844,-0.527344 3.28125,-1.582031 1.875,-1.054688 3.632813,-2.34375 1.816406,-1.289063 3.398437,-2.636719 1.582032,-1.4062499 2.578125,-2.4609374 z" /><path
         id="path32"
         style=""
         d="m 8.9018784,12.697657 q -0.6445313,1.230468 -1.5820313,2.460937 -0.9375,1.230469 -2.1679687,2.34375 -1.171875,1.054688 -2.578125,1.816406 -1.40625,0.820313 -2.92968754,1.113282 -0.64453126,0.117187 -1.23046876,0.175781 -0.5273437,0.05859 -1.1132812,0.05859 -2.5195313,0 -4.3945313,-1.054688 -1.875,-0.996094 -2.109375,-3.105469 v -0.585937 q 0,-1.289063 0.234375,-3.632813 0.2929688,-2.4023434 0.6445313,-5.0390621 0.4101562,-2.6953125 0.8203125,-5.2734375 0.4101562,-2.63671877 0.703125,-4.453125 l -3.6914064,-1.640625 -9.667969,24.1406246 -5.097656,-0.761718 q 0.351563,-0.820313 1.347656,-2.988282 0.996094,-2.167968 2.226563,-4.804687 1.230469,-2.6367189 2.402344,-5.2148439 1.230468,-2.6367187 1.992187,-4.3359375 0.644531,-1.58203122 1.40625,-3.8671875 0.761719,-2.2851562 1.40625,-4.5117187 0.644531,-2.2851563 1.054688,-4.1015624 0.410156,-1.816406 0.410156,-2.460938 l 5.1562499,1.289063 q -0.1757813,0.234375 -0.234375,0.527344 -0.058594,0.234375 -0.058594,0.527343 0,0.7031254 0.234375,1.4062504 0.2929688,0.6445312 0.6445313,1.2304687 0.4101562,0.5273438 0.8789062,0.8789063 0.5273438,0.3515625 0.9960938,0.3515625 0.3515625,0 0.6445312,-0.2929688 0.3515625,-0.3515625 0.46875,-1.171875 0.058594,-0.3515625 0.46875,-0.6445312 0.46875,-0.3515625 0.9960938,-0.5859375 0.5859375,-0.2929688 1.171875,-0.4101563 0.6445312,-0.1757811 1.05468746,-0.1757811 0.5859375,0 0.64453125,0.2343749 0.29296875,0.4101562 0.52734375,0.9960937 0.29296875,0.5273438 0.29296875,1.171875 0,0.6445313 -0.29296875,1.2304688 -0.234375,0.5859375 -0.87890625,1.0546875 -0.93750001,0.703125 -1.64062501,2.2851562 -0.703125,1.5820313 -1.2304687,3.63281253 -0.46875,2.05078127 -0.703125,4.39453127 -0.234375,2.34375 -0.234375,4.6289062 0,2.2265629 0.234375,4.2773439 0.234375,2.050781 0.7617187,3.398437 1.8164063,-0.351562 3.16406251,-0.878906 1.34765629,-0.527344 2.40234379,-1.347656 1.1132812,-0.878906 1.9921875,-2.050781 0.9375,-1.230469 1.8164062,-2.9882816 z" /><path
         id="path34"
         style=""
         d="m 19.097191,-5.3492184 q -0.46875,0 -1.289063,0.703125 -0.761718,0.703125 -1.699218,1.875 -0.878907,1.1132813 -1.875,2.63671878 -0.996094,1.52343752 -1.757813,3.16406252 -0.292969,0.5859375 -0.527344,1.171875 -0.234375,0.5859375 -0.46875,1.2304687 1.523438,-0.2929687 3.164063,-0.703125 1.699219,-0.46875 2.519531,-0.9960937 0.410156,-0.2929688 0.878906,-1.171875 0.527344,-0.8789063 0.9375,-1.93359377 0.46875,-1.11328125 0.761719,-2.28515623 0.292969,-1.2304688 0.292969,-2.109375 0,-0.6445313 -0.234375,-1.1132813 -0.234375,-0.46875 -0.703125,-0.46875 z M 32.105003,11.35 q -1.054687,0.761719 -2.460937,1.757813 -1.40625,0.9375 -2.988281,1.992187 -1.523438,0.996094 -3.105469,1.992188 -1.523438,0.996094 -2.871094,1.757812 -1.289062,0.820313 -2.226562,1.289063 -0.9375,0.527344 -1.230469,0.585937 -0.175781,0.05859 -0.46875,0.05859 -0.996094,0 -2.636719,-0.527344 Q 12.534691,19.7875 10.894066,19.025782 9.2534409,18.322657 7.8471909,17.502344 6.4995346,16.623438 6.0307846,15.861719 5.6792221,15.217188 5.5034409,14.221094 5.3862534,13.166407 5.3862534,11.81875 q 0,-1.171875 0.1171875,-2.4609371 Q 5.6206284,8.0101566 5.7964096,6.8382816 6.0307846,5.6078129 6.2651596,4.6117191 6.5581284,3.6156254 6.9096909,3.0296879 7.3198471,2.2093754 8.1987534,0.97890663 q 0.8789062,-1.2890625 1.9921876,-2.63671873 1.171875,-1.40625 2.460937,-2.8125 1.289063,-1.40625 2.578125,-2.5195313 1.289063,-1.171875 2.460938,-1.875 1.230469,-0.7617187 2.167969,-0.8203125 0.05859,0 0.05859,0 0.05859,-0.058594 0.175782,-0.058594 0.9375,0 1.875,0.8203125 0.9375,0.8203125 1.640625,1.9921875 0.703125,1.171875 1.113281,2.5195312 0.46875,1.2890625 0.46875,2.34375 0,0.5273438 -0.05859,0.7617188 -0.234375,0.93749998 -1.054687,2.34375 -0.820313,1.3476562 -1.816407,2.6953125 -0.996093,1.2890625 -1.933593,2.34375 -0.9375,0.9960937 -1.40625,1.3476562 -0.351563,0.2929688 -1.289063,0.5859375 -0.878906,0.234375 -2.109375,0.5273438 -1.171875,0.234375 -2.519531,0.46875 -1.347656,0.234375 -2.636719,0.4101562 -0.234375,1.1718754 -0.351562,2.0507814 -0.1171879,0.820312 -0.1757816,1.171875 0.1171875,0.644531 0.7031246,1.289062 0.585938,0.644532 1.464844,1.171875 0.878906,0.527344 1.933594,0.878907 1.113281,0.292968 2.226562,0.292968 0.234375,0 0.46875,0 0.292969,0 0.527344,-0.05859 1.054688,-0.292969 2.8125,-1.347657 1.757813,-1.054687 3.632813,-2.402343 1.933593,-1.347657 3.632812,-2.7539066 1.757813,-1.4648438 2.695313,-2.578125 z" /><path
         id="path36"
         style=""
         d="m 42.183128,-5.3492184 q -0.46875,0 -1.289062,0.703125 -0.761719,0.703125 -1.699219,1.875 -0.878906,1.1132813 -1.875,2.63671878 -0.996094,1.52343752 -1.757812,3.16406252 -0.292969,0.5859375 -0.527344,1.171875 -0.234375,0.5859375 -0.46875,1.2304687 1.523437,-0.2929687 3.164062,-0.703125 1.699219,-0.46875 2.519532,-0.9960937 0.410156,-0.2929688 0.878906,-1.171875 0.527344,-0.8789063 0.9375,-1.93359377 0.46875,-1.11328125 0.761719,-2.28515623 0.292968,-1.2304688 0.292968,-2.109375 0,-0.6445313 -0.234375,-1.1132813 -0.234375,-0.46875 -0.703125,-0.46875 z M 55.190941,11.35 q -1.054688,0.761719 -2.460938,1.757813 -1.40625,0.9375 -2.988281,1.992187 -1.523437,0.996094 -3.105469,1.992188 -1.523437,0.996094 -2.871093,1.757812 -1.289063,0.820313 -2.226563,1.289063 -0.9375,0.527344 -1.230469,0.585937 -0.175781,0.05859 -0.46875,0.05859 -0.996093,0 -2.636718,-0.527344 -1.582032,-0.46875 -3.222657,-1.230468 -1.640625,-0.703125 -3.046875,-1.523438 -1.347656,-0.878906 -1.816406,-1.640625 -0.351562,-0.644531 -0.527344,-1.640625 -0.117187,-1.054687 -0.117187,-2.402344 0,-1.171875 0.117187,-2.4609371 0.117188,-1.3476563 0.292969,-2.5195313 0.234375,-1.2304687 0.46875,-2.2265625 0.292969,-0.9960937 0.644531,-1.5820312 0.410157,-0.8203125 1.289063,-2.05078127 0.878906,-1.2890625 1.992187,-2.63671873 1.171875,-1.40625 2.460938,-2.8125 1.289062,-1.40625 2.578125,-2.5195313 1.289062,-1.171875 2.460937,-1.875 1.230469,-0.7617187 2.167969,-0.8203125 0.05859,0 0.05859,0 0.05859,-0.058594 0.175781,-0.058594 0.9375,0 1.875,0.8203125 0.9375,0.8203125 1.640625,1.9921875 0.703125,1.171875 1.113281,2.5195312 0.46875,1.2890625 0.46875,2.34375 0,0.5273438 -0.05859,0.7617188 -0.234375,0.93749998 -1.054688,2.34375 -0.820312,1.3476562 -1.816406,2.6953125 -0.996094,1.2890625 -1.933594,2.34375 -0.9375,0.9960937 -1.40625,1.3476562 -0.351562,0.2929688 -1.289062,0.5859375 -0.878907,0.234375 -2.109375,0.5273438 -1.171875,0.234375 -2.519532,0.46875 -1.347656,0.234375 -2.636718,0.4101562 -0.234375,1.1718754 -0.351563,2.0507814 -0.117187,0.820312 -0.175781,1.171875 0.117187,0.644531 0.703125,1.289062 0.585937,0.644532 1.464844,1.171875 0.878906,0.527344 1.933593,0.878907 1.113282,0.292968 2.226563,0.292968 0.234375,0 0.46875,0 0.292969,0 0.527344,-0.05859 1.054687,-0.292969 2.8125,-1.347657 1.757812,-1.054687 3.632812,-2.402343 1.933594,-1.347657 3.632813,-2.7539066 1.757812,-1.4648438 2.695312,-2.578125 z" /><path
         id="path38"
         style=""
         d="m 82.144066,12.697657 q -0.644531,1.230468 -1.582031,2.460937 -0.9375,1.230469 -2.167969,2.34375 -1.171875,1.054688 -2.578125,1.816406 -1.40625,0.820313 -2.929688,1.113282 -0.644531,0.117187 -1.230468,0.175781 -0.527344,0.05859 -1.113282,0.05859 -2.519531,0 -4.394531,-1.054688 -1.875,-0.996094 -2.109375,-3.105469 v -0.585937 q 0,-1.289063 0.234375,-3.632813 0.292969,-2.4023434 0.644531,-5.0390621 0.410157,-2.6953125 0.820313,-5.2734375 0.410156,-2.63671877 0.703125,-4.453125 L 62.749535,-4.1187496 53.081566,20.021875 47.98391,19.260157 q 0.351562,-0.820313 1.347656,-2.988282 0.996094,-2.167968 2.226562,-4.804687 1.230469,-2.6367189 2.402344,-5.2148439 1.230469,-2.6367187 1.992188,-4.3359375 0.644531,-1.58203122 1.40625,-3.8671875 0.761718,-2.2851562 1.40625,-4.5117187 0.644531,-2.2851563 1.054687,-4.1015624 0.410156,-1.816406 0.410156,-2.460938 l 5.15625,1.289063 q -0.175781,0.234375 -0.234375,0.527344 -0.05859,0.234375 -0.05859,0.527343 0,0.7031254 0.234375,1.4062504 0.292968,0.6445312 0.644531,1.2304687 0.410156,0.5273438 0.878906,0.8789063 0.527344,0.3515625 0.996094,0.3515625 0.351562,0 0.644531,-0.2929688 0.351563,-0.3515625 0.46875,-1.171875 0.05859,-0.3515625 0.46875,-0.6445312 0.46875,-0.3515625 0.996094,-0.5859375 0.585937,-0.2929688 1.171875,-0.4101563 0.644531,-0.1757811 1.054687,-0.1757811 0.585938,0 0.644532,0.2343749 0.292968,0.4101562 0.527343,0.9960937 0.292969,0.5273438 0.292969,1.171875 0,0.6445313 -0.292969,1.2304688 -0.234375,0.5859375 -0.878906,1.0546875 -0.9375,0.703125 -1.640625,2.2851562 -0.703125,1.5820313 -1.230469,3.63281253 -0.46875,2.05078127 -0.703125,4.39453127 -0.234375,2.34375 -0.234375,4.6289062 0,2.2265629 0.234375,4.2773439 0.234375,2.050781 0.761719,3.398437 1.816406,-0.351562 3.164063,-0.878906 1.347656,-0.527344 2.402343,-1.347656 1.113282,-0.878906 1.992188,-2.050781 0.9375,-1.230469 1.816406,-2.9882816 z" /></g></g></svg>
