<?xml version="1.0" encoding="UTF-8" standalone="no"?>
<svg
   xmlns:dc="http://purl.org/dc/elements/1.1/"
   xmlns:cc="http://creativecommons.org/ns#"
   xmlns:rdf="http://www.w3.org/1999/02/22-rdf-syntax-ns#"
   xmlns:svg="http://www.w3.org/2000/svg"
   xmlns="http://www.w3.org/2000/svg"
   id="svg21"
   xml:space="preserve"
   viewBox="5 5 1001 203"
   height="208"
   width="1007"
   version="1.1"><metadata
     id="metadata25"><rdf:RDF><cc:Work
         rdf:about=""><dc:format>image/svg+xml</dc:format><dc:type
           rdf:resource="http://purl.org/dc/dcmitype/StillImage" /></cc:Work></rdf:RDF></metadata><desc
     id="desc2">Created with Fabric.js 2.4.6</desc><defs
     id="defs4" /><g
     id="g13"
     transform="matrix(10.03,0,0,2.04,503.68,104.82)"><linearGradient
       y2="0"
       x2="50"
       y1="0"
       x1="-50"
       gradientUnits="userSpaceOnUse"
       id="SVGID_30"><stop
         id="stop6"
         style="stop-color:rgb(5,146,202);stop-opacity: 0.68"
         offset="60%" /><stop
         id="stop8"
         style="stop-color:rgb(255,255,255);stop-opacity: 1"
         offset="100%" /></linearGradient><path
       id="rect11"
       d="M -50,-50 H 50 V 50 H -50 Z"
       style="opacity:1;fill:url(#SVGID_30);fill-rule:nonzero;stroke:#000000;stroke-width:0;stroke-linecap:butt;stroke-linejoin:miter;stroke-miterlimit:4;stroke-dasharray:none;stroke-dashoffset:0" /></g><g
     id="g19"
     transform="translate(191.4,100.76)"><g
       id="text17"
       style="font-style:normal;font-weight:normal;font-size:60px;font-family:Miniver;white-space:pre;opacity:1;fill:#f9fafd;fill-rule:nonzero;stroke:none;stroke-width:1;stroke-linecap:butt;stroke-linejoin:miter;stroke-miterlimit:4;stroke-dasharray:none;stroke-dashoffset:0"
       aria-label="health"><path
         id="path28"
         style=""
         d="m -66.240471,-5.7007809 q 0.878906,-1.5234375 1.816406,-3.515625 0.9375,-1.9921871 1.699219,-4.0429691 0.820313,-2.050781 1.347656,-3.925781 0.527344,-1.875 0.527344,-3.164062 0,-0.703125 -0.234375,-1.289063 -0.820312,1.40625 -1.699219,3.574219 -0.820312,2.167969 -1.523437,4.511719 -0.703125,2.285156 -1.230469,4.4531246 -0.527344,2.109375 -0.703125,3.3984375 z m 24.960938,18.3398439 q -1.582032,2.34375 -3.339844,3.75 -1.699219,1.40625 -3.398438,2.226562 -1.640625,0.761719 -3.222656,0.996094 -1.523437,0.292969 -2.753906,0.292969 -0.644531,0 -1.171875,-0.05859 -0.46875,0 -0.820313,-0.05859 -0.410156,-0.05859 -0.703125,-0.175781 -1.816406,-0.585937 -2.519531,-2.050781 -0.644531,-1.464844 -0.644531,-3.515625 0,-2.050781 0.46875,-4.4531251 0.527344,-2.4023438 1.113281,-4.7460938 0.644531,-2.4023437 1.171875,-4.51171872 0.527344,-2.10937498 0.527344,-3.57421878 0,-0.46875 -0.117188,-1.0546875 -1.699218,0.5273438 -3.457031,1.5234375 -1.699219,0.9960938 -3.28125,2.28515628 -1.523437,1.23046875 -2.8125,2.75390622 -1.289062,1.4648438 -1.992187,2.9296875 -0.527344,1.0546875 -0.703125,1.0546875 0,0 -0.05859,-0.1171875 l -2.753906,13.0078124 -5.097657,-1.289062 q 0.292969,-1.347657 0.878907,-3.75 0.585937,-2.402344 1.289062,-5.4492191 0.761719,-3.1054688 1.640625,-6.5625 0.9375,-3.515625 1.875,-7.03125 0.9375,-3.515625 1.933594,-6.8554689 0.996094,-3.339844 1.933594,-6.035156 0.9375,-2.753906 1.757812,-4.628906 0.878906,-1.933594 1.523438,-2.578125 0.644531,-0.644532 1.289062,-0.878907 0.703125,-0.292968 1.347656,-0.292968 0.9375,0 1.757813,0.585937 0.878906,0.527344 1.523437,1.40625 0.644532,0.878906 0.996094,1.992188 0.410156,1.054687 0.410156,2.109375 0,0.585937 -0.351562,1.816406 -0.351563,1.230469 -0.996094,2.929687 -0.585937,1.699219 -1.40625,3.75 -0.820312,2.0507816 -1.757812,4.3359379 1.171875,-0.8789063 2.109375,-1.2890625 0.996093,-0.4101563 2.050781,-0.5273438 h 0.175781 q 0.644531,0 1.699219,0.5273438 1.113281,0.46875 2.109375,1.171875 1.054687,0.6445312 1.757812,1.3476562 0.761719,0.703125 0.761719,1.1132813 v 0.1171875 q -0.117187,1.3476562 -0.878906,3.75 -0.761719,2.34375 -1.640625,5.0390625 -0.878906,2.6953125 -1.582031,5.2734375 -0.703125,2.5781246 -0.703125,4.3945316 0,1.816406 0.878906,2.402343 0.117187,0.05859 0.351562,0.117188 0.234375,0.05859 0.996094,0.05859 0.703125,0 1.699219,-0.234375 1.054687,-0.234375 2.285156,-0.996094 1.289063,-0.761719 2.695313,-2.167969 1.464843,-1.464844 3.046875,-3.8085936 z" /><path
         id="path30"
         style=""
         d="m -31.494377,-5.3492184 q -0.46875,0 -1.289063,0.703125 -0.761718,0.703125 -1.699218,1.875 -0.878907,1.1132813 -1.875,2.63671878 -0.996094,1.52343752 -1.757813,3.16406252 -0.292969,0.5859375 -0.527344,1.171875 -0.234375,0.5859375 -0.46875,1.2304687 1.523438,-0.2929687 3.164063,-0.703125 1.699219,-0.46875 2.519531,-0.9960937 0.410156,-0.2929688 0.878906,-1.171875 0.527344,-0.8789063 0.9375,-1.93359377 0.46875,-1.11328125 0.761719,-2.28515623 0.292969,-1.2304688 0.292969,-2.109375 0,-0.6445313 -0.234375,-1.1132813 -0.234375,-0.46875 -0.703125,-0.46875 z M -18.486565,11.35 q -1.054687,0.761719 -2.460937,1.757813 -1.40625,0.9375 -2.988281,1.992187 -1.523438,0.996094 -3.105469,1.992188 -1.523438,0.996094 -2.871094,1.757812 -1.289062,0.820313 -2.226562,1.289063 -0.9375,0.527344 -1.230469,0.585937 -0.175781,0.05859 -0.46875,0.05859 -0.996094,0 -2.636719,-0.527344 -1.582031,-0.46875 -3.222656,-1.230468 -1.640625,-0.703125 -3.046875,-1.523438 -1.347656,-0.878906 -1.816406,-1.640625 -0.351563,-0.644531 -0.527344,-1.640625 -0.117188,-1.054687 -0.117188,-2.402344 0,-1.171875 0.117188,-2.4609371 0.117187,-1.3476563 0.292969,-2.5195313 0.234375,-1.2304687 0.46875,-2.2265625 0.292968,-0.9960937 0.644531,-1.5820312 0.410156,-0.8203125 1.289062,-2.05078127 0.878907,-1.2890625 1.992188,-2.63671873 1.171875,-1.40625 2.460937,-2.8125 1.289063,-1.40625 2.578125,-2.5195313 1.289063,-1.171875 2.460938,-1.875 1.230469,-0.7617187 2.167969,-0.8203125 0.05859,0 0.05859,0 0.05859,-0.058594 0.175782,-0.058594 0.9375,0 1.875,0.8203125 0.9375,0.8203125 1.640625,1.9921875 0.703125,1.171875 1.113281,2.5195312 0.46875,1.2890625 0.46875,2.34375 0,0.5273438 -0.05859,0.7617188 -0.234375,0.93749998 -1.054687,2.34375 -0.820313,1.3476562 -1.816407,2.6953125 -0.996093,1.2890625 -1.933593,2.34375 -0.9375,0.9960937 -1.40625,1.3476562 -0.351563,0.2929688 -1.289063,0.5859375 -0.878906,0.234375 -2.109375,0.5273438 -1.171875,0.234375 -2.519531,0.46875 -1.347656,0.234375 -2.636719,0.4101562 -0.234375,1.1718754 -0.351562,2.0507814 -0.117188,0.820312 -0.175782,1.171875 0.117188,0.644531 0.703125,1.289062 0.585938,0.644532 1.464844,1.171875 0.878906,0.527344 1.933594,0.878907 1.113281,0.292968 2.226562,0.292968 0.234375,0 0.46875,0 0.292969,0 0.527344,-0.05859 1.054688,-0.292969 2.8125,-1.347657 1.757813,-1.054687 3.632813,-2.402343 1.933593,-1.347657 3.632812,-2.7539066 1.757813,-1.4648438 2.695313,-2.578125 z" /><path
         id="path32"
         style=""
         d="m -15.381096,15.334375 q 0.644531,0 1.699219,-0.644531 1.054687,-0.703125 2.285156,-1.816406 1.230469,-1.113281 2.5195314,-2.519531 1.3476562,-1.4062504 2.578125,-2.8125004 0.6445312,-2.0507812 1.640625,-4.9804687 1.0546875,-2.98828127 2.34375,-6.4453125 l -0.8203125,1.5820312 q -0.1757813,-0.8789062 -0.5859375,-1.640625 -0.4101563,-0.7617187 -0.9375,-1.3476562 -0.5273438,-0.6445313 -1.1132813,-0.9960938 -0.5273437,-0.3515625 -0.9375,-0.3515625 -0.2929687,0 -0.4101562,0.1171875 -0.234375,0.1757813 -1.0546875,1.1132813 -0.7617188,0.8789062 -1.8750004,2.2265625 -1.054687,1.3476562 -2.285156,2.98828123 -1.171875,1.64062497 -2.226562,3.22265627 -0.996094,1.5820312 -1.757813,2.9882812 -0.761719,1.3476563 -0.878906,2.1679688 -0.117188,0.8203125 -0.234375,1.6992187 -0.117188,0.8203124 -0.117188,1.6406254 0,1.523437 0.410157,2.636718 0.46875,1.113282 1.640625,1.171875 z m 26.425781,-3.925781 q -0.761718,0.878906 -2.1679684,2.460938 -1.40625,1.582031 -3.046875,3.164062 -1.5820312,1.523438 -3.2226562,2.636719 -1.5820313,1.171875 -2.69531254,1.171875 h -0.1171875 q -1.11328126,0 -2.40234376,-0.292969 -1.2890625,-0.292969 -2.4023437,-0.820312 -1.0546875,-0.46875 -1.8164063,-1.113282 -0.703125,-0.703125 -0.703125,-1.523437 v -0.05859 q 0,-0.585937 0.058594,-1.347656 0.058594,-0.820313 0.1171875,-1.699219 -2.5195313,2.460938 -5.0390629,4.101563 -2.460937,1.640625 -4.335937,1.640625 -0.46875,0 -0.644531,-0.05859 -1.054688,-0.175781 -1.933594,-0.996094 -0.878906,-0.878906 -1.523438,-2.109375 -0.585937,-1.289062 -0.9375,-2.8125 -0.351562,-1.523437 -0.351562,-3.046875 0,-2.2265624 0.703125,-4.1601561 0.46875,-1.2304688 1.347656,-2.9296875 0.878906,-1.6992188 1.992188,-3.57421877 1.171875,-1.87500003 2.460937,-3.69140623 1.347656,-1.875 2.636719,-3.3984375 1.347656,-1.5234375 2.636719,-2.4609375 1.2890621,-0.9960934 2.4023434,-1.1718754 0.2929687,-0.05859 0.5273437,-0.05859 0.234375,0 0.46875,0 1.2304688,0 2.1679688,0.351562 0.9960937,0.351563 1.6992187,0.9375001 0.7617188,0.5273438 1.2304688,1.171875 0.46875,0.6445313 0.703125,1.171875 0.17578121,-0.703125 0.41015621,-1.1132812 L 3.0759354,-7.6343746 Q 1.4939041,-3.6499996 0.14624786,0.45156288 -1.2014084,4.4945316 -1.9631271,8.1859379 l 0.058594,0.1757812 -0.1171875,0.1171875 q -0.3515625,1.7578124 -0.5859375,3.3398434 -0.1757812,1.582032 -0.1757812,2.929688 0,0.644531 0,1.113281 0.058594,0.46875 0.1171875,0.9375 1.4648437,-0.527344 3.28124996,-1.582031 Q 2.4899979,14.1625 4.2478104,12.873438 6.0642166,11.584375 7.6462479,10.236719 9.2282791,8.8304691 10.224373,7.7757816 Z" /><path
         id="path34"
         style=""
         d="m 22.177498,-19.5875 q -1.230469,1.757813 -2.226563,3.925782 -0.996093,2.167968 -1.816406,4.511718 -0.761719,2.2851566 -1.347656,4.5703129 -0.585938,2.2851562 -0.878906,4.2773437 0.820312,-1.5820312 1.757812,-3.6914062 0.9375,-2.1679688 1.816406,-4.5117184 0.878907,-2.402344 1.582032,-4.746094 0.761718,-2.34375 1.113281,-4.335938 z m 7.324219,32.460938 q -1.113282,1.40625 -1.933594,2.519531 -0.820313,1.054688 -1.640625,1.933594 -0.820313,0.820312 -1.757813,1.523437 -0.9375,0.644532 -2.167968,1.289063 -1.523438,0.703125 -3.984375,0.703125 -1.464844,0 -3.046875,-0.292969 -1.582032,-0.292969 -2.929688,-0.9375 -1.289062,-0.585937 -2.2265624,-1.523437 -0.9375,-0.9375 -1.1132812,-2.226563 -0.058594,-0.292969 -0.058594,-0.585937 0,-0.351563 0,-0.820313 0,-1.875 0.2929688,-5.2148436 0.3515625,-3.3398438 0.9960937,-7.3242188 0.6445309,-3.984375 1.5820309,-8.203125 0.996094,-4.2773436 2.285157,-7.9687496 1.289062,-3.75 2.871093,-6.621094 1.582032,-2.871094 3.457032,-4.101563 0.644531,-0.46875 1.347656,-0.644531 0.761719,-0.175781 1.40625,-0.175781 1.640625,0 2.871094,0.9375 1.289062,0.878906 1.582031,1.757812 v 0.175782 q 0,0.644531 -0.527344,2.460937 -0.46875,1.757813 -1.347656,4.277344 -0.878906,2.460937 -2.109375,5.449219 -1.230469,2.9882809 -2.636719,6.0351559 -1.40625,3.046875 -2.988281,5.9765625 -1.523438,2.9296875 -3.105469,5.2734375 -0.05859,0.2929687 -0.234375,0.9375 -0.117187,0.6445312 -0.234375,1.5234375 -0.117187,0.8789062 -0.234375,1.9335936 -0.117187,0.996094 -0.117187,2.050781 0,1.757813 0.410156,3.339844 0.410156,1.523438 1.582031,2.167969 1.875,-0.527344 3.457031,-1.523438 1.582032,-1.054687 2.988282,-2.34375 1.464843,-1.347656 2.871093,-2.871093 1.40625,-1.582032 2.929688,-3.2226566 z" /><path
         id="path36"
         style=""
         d="m 34.072029,15.627344 q 0.351563,0.175781 0.9375,0.175781 1.464844,0 3.339844,-1.054687 1.933594,-1.054688 3.75,-2.460938 1.816406,-1.464843 3.339844,-2.9296871 1.523437,-1.5234375 2.226562,-2.34375 l 1.992188,3.7500001 q -0.585938,0.703125 -2.34375,2.285156 -1.699219,1.582031 -3.75,3.222656 -2.050782,1.582032 -3.984375,2.8125 -1.933594,1.289063 -2.929688,1.347657 -0.117187,0 -0.175781,0 -0.05859,0.05859 -0.175781,0.05859 -1.054688,0 -2.578125,-0.46875 Q 32.255623,19.611719 30.849373,18.85 29.443123,18.029688 28.388435,16.916407 27.333748,15.803125 27.21656,14.514063 v -0.234375 q 0,-0.9375 0.351563,-3.046875 0.410156,-2.1093751 1.054687,-4.8632814 0.703125,-2.8125 1.523438,-6.03515622 0.878906,-3.28124998 1.816406,-6.50390628 -2.8125,0.1757813 -4.628906,0.8203125 -1.816406,0.5859375 -2.578125,0.703125 l -0.410156,-4.2773437 q 2.460937,-0.5859375 4.453125,-0.9375 1.992187,-0.4101559 4.394531,-0.4687499 1.054687,-3.632813 2.050781,-6.386719 0.996094,-2.8125 1.640625,-3.984375 L 42.21656,-20.525 q -0.644531,0.996094 -1.757812,3.867188 -1.113281,2.871094 -2.285156,6.7968749 1.875,0.4101562 3.867187,0.9375 1.992188,0.5273437 3.75,0.5273437 1.054688,0 2.109375,-0.3515625 l 0.644531,4.21875 q -0.292968,0.058594 -0.644531,0.058594 -0.292969,0 -0.644531,0 -1.699219,0 -4.042969,-0.3515625 -2.34375,-0.4101563 -4.980469,-1.0546875 -0.527343,-0.058594 -1.230468,-0.1757813 -0.761719,2.6367188 -1.464844,5.39062503 Q 34.892342,2.0335941 34.364998,4.5531254 33.837654,7.0140629 33.486092,9.1820316 33.193123,11.35 33.193123,12.873438 q 0,1.171875 0.175781,1.933594 0.234375,0.703125 0.703125,0.820312 z" /><path
         id="path38"
         style=""
         d="m 55.282967,-5.7007809 q 0.878906,-1.5234375 1.816406,-3.515625 0.9375,-1.9921871 1.699219,-4.0429691 0.820312,-2.050781 1.347656,-3.925781 0.527344,-1.875 0.527344,-3.164062 0,-0.703125 -0.234375,-1.289063 -0.820313,1.40625 -1.699219,3.574219 -0.820313,2.167969 -1.523438,4.511719 -0.703125,2.285156 -1.230468,4.4531246 -0.527344,2.109375 -0.703125,3.3984375 z M 80.243904,12.639063 q -1.582031,2.34375 -3.339844,3.75 -1.699218,1.40625 -3.398437,2.226562 -1.640625,0.761719 -3.222656,0.996094 -1.523438,0.292969 -2.753907,0.292969 -0.644531,0 -1.171875,-0.05859 -0.46875,0 -0.820312,-0.05859 -0.410156,-0.05859 -0.703125,-0.175781 -1.816406,-0.585937 -2.519531,-2.050781 -0.644532,-1.464844 -0.644532,-3.515625 0,-2.050781 0.46875,-4.4531251 0.527344,-2.4023438 1.113282,-4.7460938 0.644531,-2.4023437 1.171875,-4.51171872 0.527343,-2.10937498 0.527343,-3.57421878 0,-0.46875 -0.117187,-1.0546875 -1.699219,0.5273438 -3.457031,1.5234375 -1.699219,0.9960938 -3.28125,2.28515628 -1.523438,1.23046875 -2.8125,2.75390622 -1.289063,1.4648438 -1.992188,2.9296875 -0.527344,1.0546875 -0.703125,1.0546875 0,0 -0.05859,-0.1171875 L 49.775154,19.142969 44.677498,17.853907 q 0.292969,-1.347657 0.878906,-3.75 0.585938,-2.402344 1.289063,-5.4492191 0.761718,-3.1054688 1.640625,-6.5625 0.9375,-3.515625 1.875,-7.03125 0.9375,-3.515625 1.933593,-6.8554689 0.996094,-3.339844 1.933594,-6.035156 0.9375,-2.753906 1.757813,-4.628906 0.878906,-1.933594 1.523437,-2.578125 0.644531,-0.644532 1.289063,-0.878907 0.703125,-0.292968 1.347656,-0.292968 0.9375,0 1.757812,0.585937 0.878907,0.527344 1.523438,1.40625 0.644531,0.878906 0.996094,1.992188 0.410156,1.054687 0.410156,2.109375 0,0.585937 -0.351563,1.816406 -0.351562,1.230469 -0.996093,2.929687 -0.585938,1.699219 -1.40625,3.75 -0.820313,2.0507816 -1.757813,4.3359379 1.171875,-0.8789063 2.109375,-1.2890625 0.996094,-0.4101563 2.050781,-0.5273438 h 0.175782 q 0.644531,0 1.699218,0.5273438 1.113282,0.46875 2.109375,1.171875 1.054688,0.6445312 1.757813,1.3476562 0.761719,0.703125 0.761719,1.1132813 v 0.1171875 q -0.117188,1.3476562 -0.878907,3.75 -0.761718,2.34375 -1.640625,5.0390625 -0.878906,2.6953125 -1.582031,5.2734375 -0.703125,2.5781246 -0.703125,4.3945316 0,1.816406 0.878906,2.402343 0.117188,0.05859 0.351563,0.117188 0.234375,0.05859 0.996094,0.05859 0.703125,0 1.699218,-0.234375 1.054688,-0.234375 2.285157,-0.996094 1.289062,-0.761719 2.695312,-2.167969 Q 76.552498,11.35 78.134529,9.0062504 Z" /></g></g></svg>
