<?xml version="1.0" encoding="UTF-8" standalone="no"?>
<svg
   xmlns:dc="http://purl.org/dc/elements/1.1/"
   xmlns:cc="http://creativecommons.org/ns#"
   xmlns:rdf="http://www.w3.org/1999/02/22-rdf-syntax-ns#"
   xmlns:svg="http://www.w3.org/2000/svg"
   xmlns="http://www.w3.org/2000/svg"
   id="svg25"
   xml:space="preserve"
   viewBox="5 5 1001 203"
   height="208"
   width="1007"
   version="1.1"><metadata
     id="metadata29"><rdf:RDF><cc:Work
         rdf:about=""><dc:format>image/svg+xml</dc:format><dc:type
           rdf:resource="http://purl.org/dc/dcmitype/StillImage" /></cc:Work></rdf:RDF></metadata><desc
     id="desc2">Created with Fabric.js 2.4.6</desc><defs
     id="defs4" /><g
     id="g13"
     transform="matrix(10.03,0,0,2.04,503.68,104.82)"><linearGradient
       y2="0"
       x2="50"
       y1="0"
       x1="-50"
       gradientUnits="userSpaceOnUse"
       id="SVGID_347"><stop
         id="stop6"
         style="stop-color:rgb(5,146,202);stop-opacity: 0.68"
         offset="60%" /><stop
         id="stop8"
         style="stop-color:rgb(255,255,255);stop-opacity: 1"
         offset="100%" /></linearGradient><path
       id="rect11"
       d="M -50,-50 H 50 V 50 H -50 Z"
       style="opacity:1;fill:url(#SVGID_347);fill-rule:nonzero;stroke:#000000;stroke-width:0;stroke-linecap:butt;stroke-linejoin:miter;stroke-miterlimit:4;stroke-dasharray:none;stroke-dashoffset:0" /></g><g
     id="g17"
     transform="matrix(1.67,0,0,1.67,179.5,104.3)"><path
       id="circle15"
       d="M 50,0 A 50,50 0 0 1 0,50 50,50 0 0 1 -50,0 50,50 0 0 1 0,-50 50,50 0 0 1 50,0 Z"
       style="opacity:1;fill:#ece503;fill-opacity:0.81000001;fill-rule:nonzero;stroke:#000000;stroke-width:0;stroke-linecap:butt;stroke-linejoin:miter;stroke-miterlimit:4;stroke-dasharray:none;stroke-dashoffset:0" /></g><g
     id="g23"
     transform="translate(305.66,100.76)"><g
       id="text21"
       style="font-style:normal;font-weight:normal;font-size:60px;font-family:Miniver;white-space:pre;opacity:1;fill:#f9fafd;fill-rule:nonzero;stroke:none;stroke-width:1;stroke-linecap:butt;stroke-linejoin:miter;stroke-miterlimit:4;stroke-dasharray:none;stroke-dashoffset:0"
       aria-label="ideas, collected"><path
         id="path33"
         style=""
         d="m -174.17235,-23.80625 q -1.34765,1.582032 -2.05078,3.046875 -0.70312,1.464844 -0.99609,2.578125 -0.35157,1.289063 -0.41016,2.402344 l -4.57031,0.351563 q 0.11719,-2.636719 1.17187,-5.097657 1.11328,-2.460937 2.63672,-3.984375 z m 5.74219,33.5742191 q -2.05078,2.4023439 -4.16016,4.3359379 -2.05078,1.933593 -3.92578,3.339843 -1.875,1.40625 -3.45703,2.167969 -1.58203,0.820313 -2.69531,0.9375 -0.11719,0.05859 -0.46875,0.05859 -1.11328,0 -2.34375,-0.527344 -1.23047,-0.527344 -2.28516,-1.40625 -1.05469,-0.878906 -1.75781,-1.933594 -0.70313,-1.113281 -0.70313,-2.167968 v -0.117188 q 0.11719,-1.171875 0.70313,-3.984375 0.46875,-2.4609374 1.52344,-6.9140624 1.05468,-4.51171872 3.04687,-12.0117187 l 4.80469,0.8789062 q -2.40234,8.14453128 -3.10547,13.3007813 -0.70312,5.1562496 -0.70312,7.7929686 0,0.761719 0,1.347656 0,0.527344 0.0586,0.878907 0.0586,0.410156 0.11719,0.703125 2.16797,-1.113282 4.51172,-2.636719 1.99218,-1.347656 4.39453,-3.28125 2.40234,-1.9335939 4.6875,-4.5117189 z" /><path
         id="path35"
         style=""
         d="m -166.145,15.861719 q 0.70312,0 1.75781,-0.703125 1.05469,-0.703125 2.28515,-1.816406 1.28907,-1.171875 2.63672,-2.578125 1.34766,-1.4648439 2.57813,-2.9296876 0.46875,-1.9921875 1.11328,-4.8046875 0.64453,-2.87109377 1.46484,-6.1523438 -0.58593,-1.2890625 -1.52343,-2.1679687 -0.9375,-0.8789063 -1.64063,-0.8789063 -0.29297,0 -0.41016,0.1171875 -0.23437,0.1757813 -1.05468,1.1132813 -0.82032,0.8789062 -1.875,2.2265625 -1.05469,1.3476562 -2.28516,2.98828123 -1.17187,1.64062497 -2.22656,3.22265627 -0.9961,1.5820312 -1.75781,2.9882812 -0.76172,1.3476563 -0.87891,2.1679688 -0.11719,0.8203125 -0.23438,1.6992191 -0.11718,0.820312 -0.11718,1.640625 0,1.523437 0.41015,2.636718 0.46875,1.113282 1.64063,1.230469 z m 23.55468,-38.144531 q -0.99609,1.113281 -2.10937,3.28125 -1.11328,2.167969 -2.22656,5.039062 -1.05469,2.871094 -2.10938,6.2695316 -0.99609,3.3398438 -1.81641,6.79687503 1.34766,-2.51953123 2.8125,-5.50781253 1.46485,-2.9882812 2.63672,-5.9179691 1.17188,-2.929687 1.9336,-5.566406 0.82031,-2.636719 0.8789,-4.394531 z m -9.96093,30.9374999 q -0.11719,1.0546875 -0.17579,2.1093751 -0.0586,0.996094 -0.0586,1.992187 0,2.695313 0.52734,4.511719 0.9375,-0.351562 2.28516,-0.996094 1.40625,-0.644531 2.92969,-1.464843 1.52344,-0.820313 3.10547,-1.757813 1.58203,-0.996094 2.98828,-1.933594 1.40625,-0.9375 2.46094,-1.8164059 1.11328,-0.9375 1.69921,-1.640625 l 0.64454,4.2187499 q -0.64454,0.878906 -2.34375,2.460938 -1.69922,1.582031 -3.69141,3.164062 -1.99219,1.523438 -3.98438,2.636719 -1.93359,1.171875 -3.10546,1.171875 h -0.11719 q -1.17188,0 -2.51953,-0.292969 -1.34766,-0.292969 -2.51953,-0.820312 -1.17188,-0.46875 -1.99219,-1.171875 -0.76172,-0.703125 -0.76172,-1.523438 -0.0586,-0.703125 -0.0586,-1.757812 0,-1.054688 -0.0586,-2.050782 -1.34765,1.347657 -2.7539,2.578125 -1.40625,1.171875 -2.75391,2.050782 -1.28906,0.878906 -2.51953,1.40625 -1.17188,0.527343 -2.16797,0.527343 -0.46875,0 -0.64453,-0.05859 -1.05469,-0.234375 -1.9336,-1.054688 -0.8789,-0.761719 -1.52343,-1.933594 -0.58594,-1.171875 -0.9375,-2.578125 -0.35157,-1.464843 -0.35157,-2.988281 0,-2.1093749 0.70313,-3.9843749 0.46875,-1.2304687 1.40625,-2.9882812 0.9375,-1.7578125 2.10937,-3.6328125 1.23047,-1.93359377 2.57813,-3.8671875 1.40625,-1.9921875 2.8125,-3.515625 1.40625,-1.5820313 2.69531,-2.6367188 1.34766,-1.0546871 2.46094,-1.2304691 0.29297,-0.05859 0.52734,-0.05859 0.23438,0 0.46875,0 1.52344,0 2.51953,0.5859371 1.05469,0.5859375 1.69922,1.2890625 0.76172,-2.8710936 1.58203,-5.6249996 0.87891,-2.8125 1.64063,-5.097657 0.82031,-2.34375 1.52344,-3.984375 0.76172,-1.699218 1.40625,-2.402343 0.82031,-0.820313 1.69922,-1.113282 0.8789,-0.351562 1.8164,-0.351562 0.9961,0 1.9336,0.410156 0.9375,0.351563 1.64062,0.9375 0.76172,0.527344 1.17188,1.230469 0.46875,0.703125 0.46875,1.347656 v 0.175781 q -0.0586,0.644532 -0.82032,2.8125 -0.76172,2.167969 -1.99218,5.214844 -1.17188,2.988281 -2.69532,6.5039064 -1.52343,3.515625 -3.16406,6.796875 -1.58203,3.28125 -3.10547,6.0351562 -1.52344,2.6953125 -2.7539,4.1601563 z" /><path
         id="path37"
         style=""
         d="m -126.06688,-5.3492184 q -0.46875,0 -1.28906,0.703125 -0.76172,0.703125 -1.69922,1.875 -0.87891,1.1132813 -1.875,2.63671878 -0.99609,1.52343752 -1.75781,3.16406252 -0.29297,0.5859375 -0.52735,1.171875 -0.23437,0.5859375 -0.46875,1.2304687 1.52344,-0.2929687 3.16407,-0.703125 1.69921,-0.46875 2.51953,-0.9960937 0.41015,-0.2929688 0.8789,-1.171875 0.52735,-0.8789063 0.9375,-1.93359377 0.46875,-1.11328125 0.76172,-2.28515623 0.29297,-1.2304688 0.29297,-2.109375 0,-0.6445313 -0.23437,-1.1132813 -0.23438,-0.46875 -0.70313,-0.46875 z M -113.05907,11.35 q -1.05468,0.761719 -2.46093,1.757813 -1.40625,0.9375 -2.98829,1.992187 -1.52343,0.996094 -3.10546,1.992188 -1.52344,0.996094 -2.8711,1.757812 -1.28906,0.820313 -2.22656,1.289063 -0.9375,0.527344 -1.23047,0.585937 -0.17578,0.05859 -0.46875,0.05859 -0.99609,0 -2.63672,-0.527344 -1.58203,-0.46875 -3.22265,-1.230468 -1.64063,-0.703125 -3.04688,-1.523438 -1.34766,-0.878906 -1.81641,-1.640625 -0.35156,-0.644531 -0.52734,-1.640625 -0.11719,-1.054687 -0.11719,-2.402344 0,-1.171875 0.11719,-2.4609371 0.11719,-1.3476563 0.29297,-2.5195313 0.23437,-1.2304687 0.46875,-2.2265625 0.29297,-0.9960937 0.64453,-1.5820312 0.41016,-0.8203125 1.28906,-2.05078127 0.87891,-1.2890625 1.99219,-2.63671873 1.17188,-1.40625 2.46094,-2.8125 1.28906,-1.40625 2.57812,-2.5195313 1.28907,-1.171875 2.46094,-1.875 1.23047,-0.7617187 2.16797,-0.8203125 0.0586,0 0.0586,0 0.0586,-0.058594 0.17578,-0.058594 0.9375,0 1.875,0.8203125 0.9375,0.8203125 1.64063,1.9921875 0.70312,1.171875 1.11328,2.5195312 0.46875,1.2890625 0.46875,2.34375 0,0.5273438 -0.0586,0.7617188 -0.23438,0.93749998 -1.05469,2.34375 -0.82031,1.3476562 -1.81641,2.6953125 -0.99609,1.2890625 -1.93359,2.34375 -0.9375,0.9960937 -1.40625,1.3476562 -0.35156,0.2929688 -1.28906,0.5859375 -0.87891,0.234375 -2.10938,0.5273438 -1.17187,0.234375 -2.51953,0.46875 -1.34766,0.234375 -2.63672,0.4101562 -0.23437,1.1718754 -0.35156,2.0507814 -0.11719,0.820312 -0.17578,1.171875 0.11719,0.644531 0.70312,1.289062 0.58594,0.644532 1.46485,1.171875 0.8789,0.527344 1.93359,0.878907 1.11328,0.292968 2.22656,0.292968 0.23438,0 0.46875,0 0.29297,0 0.52735,-0.05859 1.05468,-0.292969 2.8125,-1.347657 1.75781,-1.054687 3.63281,-2.402343 1.93359,-1.347657 3.63281,-2.7539066 1.75781,-1.4648438 2.69531,-2.578125 z" /><path
         id="path39"
         style=""
         d="m -109.9536,15.334375 q 0.64453,0 1.69922,-0.644531 1.05469,-0.703125 2.28516,-1.816406 1.23047,-1.113281 2.51953,-2.519531 1.34765,-1.4062504 2.57812,-2.8125004 0.64453,-2.0507812 1.640628,-4.9804687 1.054688,-2.98828127 2.34375,-6.4453125 l -0.820312,1.5820312 q -0.175782,-0.8789062 -0.585938,-1.640625 -0.410156,-0.7617187 -0.9375,-1.3476562 -0.527344,-0.6445313 -1.113278,-0.9960938 -0.52735,-0.3515625 -0.9375,-0.3515625 -0.29297,0 -0.41016,0.1171875 -0.23437,0.1757813 -1.05469,1.1132813 -0.76172,0.8789062 -1.875,2.2265625 -1.05468,1.3476562 -2.28515,2.98828123 -1.17188,1.64062497 -2.22657,3.22265627 -0.99609,1.5820312 -1.75781,2.9882812 -0.76172,1.3476563 -0.8789,2.1679688 -0.11719,0.8203125 -0.23438,1.6992187 -0.11719,0.8203124 -0.11719,1.6406254 0,1.523437 0.41016,2.636718 0.46875,1.113282 1.64062,1.171875 z m 26.425783,-3.925781 q -0.761719,0.878906 -2.167969,2.460938 -1.40625,1.582031 -3.046875,3.164062 -1.582031,1.523438 -3.222656,2.636719 -1.582031,1.171875 -2.695312,1.171875 h -0.117188 q -1.113281,0 -2.402344,-0.292969 -1.289062,-0.292969 -2.402343,-0.820312 -1.054686,-0.46875 -1.816406,-1.113282 -0.70313,-0.703125 -0.70313,-1.523437 v -0.05859 q 0,-0.585937 0.0586,-1.347656 0.0586,-0.820313 0.11719,-1.699219 -2.51954,2.460938 -5.03907,4.101563 -2.46093,1.640625 -4.33593,1.640625 -0.46875,0 -0.64454,-0.05859 -1.05468,-0.175781 -1.93359,-0.996094 -0.87891,-0.878906 -1.52344,-2.109375 -0.58593,-1.289062 -0.9375,-2.8125 -0.35156,-1.523437 -0.35156,-3.046875 0,-2.2265624 0.70313,-4.1601561 0.46875,-1.2304688 1.34765,-2.9296875 0.87891,-1.6992188 1.99219,-3.57421877 1.17187,-1.87500003 2.46094,-3.69140623 1.34765,-1.875 2.63672,-3.3984375 1.34765,-1.5234375 2.63671,-2.4609375 1.28907,-0.9960934 2.40235,-1.1718754 0.29297,-0.05859 0.52734,-0.05859 0.23438,0 0.46875,0 1.23047,0 2.167971,0.351562 0.996093,0.351563 1.699218,0.9375001 0.761719,0.5273438 1.230469,1.171875 0.46875,0.6445313 0.703125,1.171875 0.175781,-0.703125 0.410156,-1.1132812 l 3.808594,0.5859375 q -1.582031,3.984375 -2.929687,8.08593748 -1.347657,4.04296872 -2.109375,7.73437502 l 0.05859,0.1757812 -0.117187,0.1171875 q -0.351563,1.7578124 -0.585938,3.3398434 -0.175781,1.582032 -0.175781,2.929688 0,0.644531 0,1.113281 0.05859,0.46875 0.117188,0.9375 1.464843,-0.527344 3.28125,-1.582031 1.875,-1.054688 3.632812,-2.34375 1.816406,-1.289063 3.398438,-2.636719 1.582031,-1.4062499 2.578125,-2.4609374 z" /><path
         id="path41"
         style=""
         d="m -76.027817,16.0375 q 0.644531,0 1.347656,-0.175781 0.117188,-0.05859 0.234375,-0.117187 0.175782,-0.05859 0.351563,-0.117188 0.644531,-0.292969 1.113281,-1.054687 0.527344,-0.820313 0.820313,-1.816407 0.351562,-0.996093 0.46875,-2.109375 0.175781,-1.1132809 0.175781,-2.1093746 0,-1.1132813 -0.234375,-1.9921875 -0.175781,-0.9375 -0.585938,-1.6992188 -0.351562,-0.8203125 -0.820312,-1.5234375 -0.410156,-0.7617187 -0.820313,-1.5234375 -0.527343,-0.93749997 -0.761718,-1.93359372 -0.234375,-0.99609378 -0.351563,-1.99218748 l -8.730469,12.4804691 q 0.9375,0.410156 1.757813,1.289062 0.820312,0.820313 1.640625,1.757813 0.878906,0.878906 1.816406,1.640625 0.9375,0.761718 2.109375,0.996093 z m 18.75,-3.164062 q -0.351562,0.175781 -1.757812,0.9375 -1.40625,0.703125 -3.398438,1.699219 -1.933594,0.9375 -4.21875,2.050781 -2.285156,1.054687 -4.394531,1.933594 -2.109375,0.9375 -3.808594,1.523437 -1.699219,0.585938 -2.460937,0.585938 h -0.175782 q -1.054687,-0.117188 -2.34375,-0.878907 -1.230468,-0.703125 -2.460937,-1.816406 -1.171875,-1.054687 -2.285156,-2.34375 -1.054688,-1.347656 -1.757813,-2.578125 l -3.867187,6.445313 -2.929688,-2.695313 q 0.703125,-0.820312 2.050781,-2.695312 1.289063,-1.875 2.929688,-4.277344 1.582031,-2.4609376 3.339844,-5.1562501 1.757812,-2.7539063 3.398437,-5.33203127 1.699219,-2.57812503 3.046875,-4.74609373 1.40625,-2.1679688 2.226563,-3.4570313 0.351562,-2.1093746 1.113281,-3.8671876 0.820312,-1.816406 1.933594,-2.167969 h 0.292968 q 0.351563,0 0.761719,0.351563 0.46875,0.351562 0.820313,0.9375 0.410156,0.527344 0.644531,1.171875 0.292969,0.585937 0.292969,1.113281 0,0.292969 -0.05859,0.5273439 -0.351563,0.8789062 -0.820313,2.1679687 -0.46875,1.2304688 -0.761718,2.4609375 -0.117188,0.3515625 -0.117188,0.6445313 0,0.8789062 0.46875,1.8164062 0.46875,0.8789063 1.054688,1.7578125 0.644531,0.82031253 1.230468,1.58203128 0.644532,0.70312502 0.9375,1.23046872 0.9375,1.5820313 1.347657,3.3398438 0.410156,1.6992187 0.410156,3.28125 0,0.9960937 -0.175781,1.8750001 -0.117188,0.878906 -0.410157,1.582031 0,0.05859 -0.234375,0.46875 -0.175781,0.410156 -0.410156,0.9375 -0.234375,0.46875 -0.46875,0.878906 -0.175781,0.410157 -0.175781,0.46875 1.992187,-1.054687 3.808594,-1.992187 1.523437,-0.820313 2.988281,-1.640625 1.523437,-0.820313 2.226562,-1.2890626 z" /><path
         id="path43"
         style=""
         d="m -55.812973,21.310938 0.703125,-0.527344 q 0.585937,-0.46875 0.9375,-1.171875 0.351562,-0.644531 0.351562,-0.996094 0,-0.234375 -0.117187,-0.234375 -0.175781,0 -0.410156,0.234375 -0.644532,0.527344 -1.347657,0.527344 -0.644531,0 -1.171875,-0.292969 -0.527343,-0.292968 -0.820312,-0.878906 -0.46875,-0.9375 -0.46875,-1.992187 0,-0.820313 0.292969,-1.523438 0.351562,-0.761719 1.171875,-1.347656 0.46875,-0.292969 0.996093,-0.292969 0.761719,0 1.582032,0.410156 0.878906,0.410157 1.582031,1.054688 0.761719,0.585937 1.230469,1.347656 0.527343,0.703125 0.585937,1.289063 v 0.410156 q 0,1.464844 -0.820312,2.871094 -0.820313,1.464843 -2.636719,2.34375 z" /><path
         id="path45"
         style=""
         d="m -10.402817,-3.7085934 q -0.117187,0.1757813 -0.585937,0.8203125 -0.46875,0.6445313 -0.46875,1.1132813 0,0.5273437 0.644531,0.5273437 h 0.05859 q 0.9374997,-0.058594 0.9374997,-0.703125 0,-0.46875 -0.2343747,-0.9375 -0.234375,-0.5273437 -0.351563,-0.8203125 z M 1.4331207,10.764063 q -0.46874997,0.703125 -1.87499997,1.816406 -1.34765623,1.054688 -3.22265623,2.226563 -1.8164063,1.113281 -3.984375,2.285156 -2.109375,1.113281 -4.1015625,2.050781 -1.992188,0.9375 -3.632813,1.464844 -1.582031,0.585937 -2.34375,0.585937 -1.171875,0 -3.105468,-0.527343 -1.933594,-0.46875 -3.75,-1.464844 -1.816407,-0.9375 -3.164063,-2.285156 -1.289062,-1.40625 -1.289062,-3.105469 V 13.69375 q 0.05859,-1.757812 0.527343,-4.1015621 0.527344,-2.34375 1.289063,-4.7460938 0.820312,-2.4023437 1.699219,-4.62890622 0.9375,-2.28515628 1.757812,-3.80859378 0.761719,-1.40625 1.875,-2.6367187 1.113281,-1.2890625 2.285156,-2.2265625 1.230469,-0.9960938 2.460938,-1.5820309 1.230469,-0.585938 2.285156,-0.585938 0.117188,0 0.234375,0.05859 0.175781,0 0.292969,0 0.761719,0.117187 1.757812,0.7617186 0.996094,0.5859375 1.992188,1.40625 0.6445312,-0.6445312 1.2890625,-1.2304687 0.6445312,-0.5859379 1.2890625,-0.9960939 l 2.34375,3.5156251 -2.0507813,1.875 q 0.5273438,0.9375 0.8203125,1.875 0.3515625,0.8789063 0.3515625,1.7578125 0,0.2929688 -0.058594,0.5273438 0,0.23437498 -0.058594,0.52734373 -0.46875,1.69921877 -1.9335937,2.51953127 -1.4648435,0.7617187 -2.9296875,0.7617187 -1.171875,0 -1.992188,-0.4101562 -0.820312,-0.46875 -1.054687,-1.2304688 -0.117188,-0.46874997 -0.117188,-0.76171872 0,-0.99609375 0.410157,-2.40234378 0.46875,-1.40625 1.230468,-2.8710937 -0.703125,-0.5859375 -1.40625,-0.9960938 -0.703125,-0.4101562 -1.289062,-0.46875 -0.410156,0 -1.230469,1.1132813 -0.820312,1.1132812 -1.816406,2.9296875 -0.9375,1.75781248 -1.992188,4.0429687 -1.054687,2.2265625 -1.933593,4.5117188 -0.820313,2.2265625 -1.347657,4.3359376 -0.527343,2.050781 -0.527343,3.515625 0,1.464844 0.46875,1.933594 0.351562,0.175781 0.878906,0.292968 0.996094,0.292969 2.695312,0.292969 1.40625,0 3.75,-0.527344 2.34375,-0.585937 5.273438,-1.816406 2.9296875,-1.230469 6.2109375,-3.222656 3.3398437,-1.9921876 6.796875,-4.9218751 z" /><path
         id="path47"
         style=""
         d="m 7.4096832,17.033594 q 0.234375,0.05859 0.703125,0.05859 1.7578125,0 3.1640628,-0.9375 1.40625,-0.9375 2.460937,-2.34375 1.054688,-1.40625 1.757813,-2.988281 0.761718,-1.6406254 1.113281,-2.9882816 0.292969,-0.7617188 0.644531,-2.4023438 0.351563,-1.6992187 0.644531,-3.6328125 -0.996093,-0.3515625 -2.050781,-1.17187497 -0.996094,-0.87890625 -1.875,-1.99218753 -0.878906,-1.1132812 -1.464844,-2.4023437 -0.527343,-1.2890625 -0.527343,-2.4609375 0,-0.4101563 0.05859,-0.6445313 -1.347656,0.8203125 -2.5781245,1.9335938 -1.171875,1.1132812 -2.1679688,2.4023437 Q 6.296402,-1.3062496 5.593277,0.10000038 4.890152,1.4476566 4.5971832,2.7367191 4.2456207,4.0843754 3.952652,6.0179691 q -0.2929688,1.875 -0.2929688,3.8671875 0,1.3476564 0.1757813,2.5781254 0.1757812,1.230468 0.5859375,2.226562 0.46875,0.9375 1.171875,1.582031 0.7617187,0.644532 1.8164062,0.761719 z M 17.312027,-6.6968746 q -0.644531,0 -0.9375,0.4101562 -0.292969,0.4101563 -0.292969,0.9960938 0,0.9960937 0.644531,2.0507812 0.644532,0.9960938 1.699219,1.40625 0.05859,-0.5273437 0.05859,-0.9960937 0,-0.46875 0,-0.9375 0,-1.3476563 -0.234375,-2.109375 -0.234375,-0.8203125 -0.878906,-0.8203125 z m 18.808594,5.91796873 q -2.8125,2.28515627 -5.449219,3.33984377 -2.636719,1.0546875 -4.628906,1.0546875 -1.523438,0 -3.457032,-0.6445313 -0.644531,2.7539063 -1.582031,5.5664063 -0.878906,2.8124996 -1.992187,5.2148436 -1.054688,2.34375 -2.285157,3.984375 -1.171875,1.640625 -2.402343,2.050781 -1.347657,0.527344 -2.929688,0.761719 -1.582031,0.234375 -3.1640623,0.234375 -2.6367187,0 -4.9804687,-0.761719 -2.28515627,-0.761718 -3.10546877,-2.460937 -0.46875,-0.996094 -0.76171875,-2.871094 -0.29296875,-1.875 -0.29296875,-4.101562 0,-1.7578129 0.17578125,-3.6328129 0.17578125,-1.9335937 0.46875,-3.6914062 0.3515625,-1.7578125 0.8203125,-3.22265627 0.52734372,-1.52343753 1.17187502,-2.51953123 0.9960937,-1.640625 2.5195312,-3.28125 1.5234375,-1.6992188 3.28125,-3.046875 1.8164063,-1.3476564 3.7500003,-2.2265624 1.933593,-0.878906 3.808593,-0.878906 h 0.175782 l 0.175781,1.699218 q 0.9375,-0.351562 1.992187,-0.351562 2.167969,0 3.808594,1.4062499 1.699219,1.3476562 2.34375,3.4570312 0.117188,0.46875 0.117188,1.5820313 0,0.8203125 -0.05859,1.6992187 0,0.8789063 -0.05859,1.3476563 0.292969,0.11718748 0.644531,0.17578123 0.585938,0.17578125 1.816407,0.17578125 0.761718,0 1.875,-0.1171875 1.171875,-0.17578128 2.460937,-0.52734378 1.347656,-0.4101562 2.753906,-1.0546875 1.40625,-0.703125 2.695313,-1.8164062 z" /><path
         id="path49"
         style=""
         d="m 43.386246,-19.5875 q -1.230469,1.757813 -2.226563,3.925782 -0.996094,2.167968 -1.816406,4.511718 -0.761719,2.2851566 -1.347656,4.5703129 -0.585938,2.2851562 -0.878907,4.2773437 0.820313,-1.5820312 1.757813,-3.6914062 0.9375,-2.1679688 1.816406,-4.5117184 0.878906,-2.402344 1.582031,-4.746094 0.761719,-2.34375 1.113282,-4.335938 z m 7.324218,32.460938 q -1.113281,1.40625 -1.933593,2.519531 -0.820313,1.054688 -1.640625,1.933594 -0.820313,0.820312 -1.757813,1.523437 -0.9375,0.644532 -2.167969,1.289063 -1.523437,0.703125 -3.984375,0.703125 -1.464843,0 -3.046875,-0.292969 -1.582031,-0.292969 -2.929687,-0.9375 -1.289063,-0.585937 -2.226563,-1.523437 -0.9375,-0.9375 -1.113281,-2.226563 -0.05859,-0.292969 -0.05859,-0.585937 0,-0.351563 0,-0.820313 0,-1.875 0.292969,-5.2148436 0.351563,-3.3398438 0.996094,-7.3242188 0.644531,-3.984375 1.582031,-8.203125 0.996094,-4.2773436 2.285156,-7.9687496 1.289063,-3.75 2.871094,-6.621094 1.582031,-2.871094 3.457031,-4.101563 0.644532,-0.46875 1.347657,-0.644531 0.761718,-0.175781 1.40625,-0.175781 1.640625,0 2.871093,0.9375 1.289063,0.878906 1.582032,1.757812 v 0.175782 q 0,0.644531 -0.527344,2.460937 -0.46875,1.757813 -1.347656,4.277344 -0.878907,2.460937 -2.109375,5.449219 -1.230469,2.9882809 -2.636719,6.0351559 -1.40625,3.046875 -2.988281,5.9765625 -1.523438,2.9296875 -3.105469,5.2734375 -0.05859,0.2929687 -0.234375,0.9375 -0.117188,0.6445312 -0.234375,1.5234375 -0.117188,0.8789062 -0.234375,1.9335936 -0.117188,0.996094 -0.117188,2.050781 0,1.757813 0.410157,3.339844 0.410156,1.523438 1.582031,2.167969 1.875,-0.527344 3.457031,-1.523438 1.582031,-1.054687 2.988281,-2.34375 1.464844,-1.347656 2.871094,-2.871093 1.40625,-1.582032 2.929688,-3.2226566 z" /><path
         id="path51"
         style=""
         d="m 61.784683,-19.5875 q -1.230469,1.757813 -2.226562,3.925782 -0.996094,2.167968 -1.816407,4.511718 -0.761718,2.2851566 -1.347656,4.5703129 -0.585937,2.2851562 -0.878906,4.2773437 0.820312,-1.5820312 1.757812,-3.6914062 0.9375,-2.1679688 1.816407,-4.5117184 0.878906,-2.402344 1.582031,-4.746094 0.761719,-2.34375 1.113281,-4.335938 z m 7.324219,32.460938 q -1.113281,1.40625 -1.933594,2.519531 -0.820312,1.054688 -1.640625,1.933594 -0.820312,0.820312 -1.757812,1.523437 -0.9375,0.644532 -2.167969,1.289063 -1.523438,0.703125 -3.984375,0.703125 -1.464844,0 -3.046875,-0.292969 -1.582031,-0.292969 -2.929688,-0.9375 -1.289062,-0.585937 -2.226562,-1.523437 -0.9375,-0.9375 -1.113281,-2.226563 -0.05859,-0.292969 -0.05859,-0.585937 0,-0.351563 0,-0.820313 0,-1.875 0.292969,-5.2148436 0.351562,-3.3398438 0.996093,-7.3242188 0.644532,-3.984375 1.582032,-8.203125 0.996093,-4.2773436 2.285156,-7.9687496 1.289062,-3.75 2.871094,-6.621094 1.582031,-2.871094 3.457031,-4.101563 0.644531,-0.46875 1.347656,-0.644531 0.761719,-0.175781 1.40625,-0.175781 1.640625,0 2.871094,0.9375 1.289062,0.878906 1.582031,1.757812 v 0.175782 q 0,0.644531 -0.527344,2.460937 -0.46875,1.757813 -1.347656,4.277344 -0.878906,2.460937 -2.109375,5.449219 -1.230469,2.9882809 -2.636719,6.0351559 -1.40625,3.046875 -2.988281,5.9765625 -1.523437,2.9296875 -3.105469,5.2734375 -0.05859,0.2929687 -0.234375,0.9375 -0.117187,0.6445312 -0.234375,1.5234375 -0.117187,0.8789062 -0.234375,1.9335936 -0.117187,0.996094 -0.117187,2.050781 0,1.757813 0.410156,3.339844 0.410156,1.523438 1.582031,2.167969 1.875,-0.527344 3.457032,-1.523438 1.582031,-1.054687 2.988281,-2.34375 1.464844,-1.347656 2.871094,-2.871093 1.40625,-1.582032 2.929687,-3.2226566 z" /><path
         id="path53"
         style=""
         d="m 79.479996,-5.3492184 q -0.46875,0 -1.289063,0.703125 -0.761719,0.703125 -1.699219,1.875 -0.878906,1.1132813 -1.875,2.63671878 -0.996093,1.52343752 -1.757812,3.16406252 -0.292969,0.5859375 -0.527344,1.171875 -0.234375,0.5859375 -0.46875,1.2304687 1.523438,-0.2929687 3.164063,-0.703125 1.699218,-0.46875 2.519531,-0.9960937 0.410156,-0.2929688 0.878906,-1.171875 0.527344,-0.8789063 0.9375,-1.93359377 0.46875,-1.11328125 0.761719,-2.28515623 0.292969,-1.2304688 0.292969,-2.109375 0,-0.6445313 -0.234375,-1.1132813 -0.234375,-0.46875 -0.703125,-0.46875 z M 92.487808,11.35 q -1.054687,0.761719 -2.460937,1.757813 -1.40625,0.9375 -2.988282,1.992187 -1.523437,0.996094 -3.105468,1.992188 -1.523438,0.996094 -2.871094,1.757812 -1.289063,0.820313 -2.226563,1.289063 -0.9375,0.527344 -1.230468,0.585937 -0.175782,0.05859 -0.46875,0.05859 -0.996094,0 -2.636719,-0.527344 -1.582031,-0.46875 -3.222656,-1.230468 -1.640625,-0.703125 -3.046875,-1.523438 -1.347657,-0.878906 -1.816407,-1.640625 -0.351562,-0.644531 -0.527343,-1.640625 -0.117188,-1.054687 -0.117188,-2.402344 0,-1.171875 0.117188,-2.4609371 0.117187,-1.3476563 0.292968,-2.5195313 0.234375,-1.2304687 0.46875,-2.2265625 0.292969,-0.9960937 0.644532,-1.5820312 0.410156,-0.8203125 1.289062,-2.05078127 0.878906,-1.2890625 1.992188,-2.63671873 1.171875,-1.40625 2.460937,-2.8125 1.289063,-1.40625 2.578125,-2.5195313 1.289063,-1.171875 2.460938,-1.875 1.230468,-0.7617187 2.167968,-0.8203125 0.05859,0 0.05859,0 0.05859,-0.058594 0.175781,-0.058594 0.9375,0 1.875,0.8203125 0.9375,0.8203125 1.640625,1.9921875 0.703125,1.171875 1.113282,2.5195312 0.46875,1.2890625 0.46875,2.34375 0,0.5273438 -0.05859,0.7617188 -0.234375,0.93749998 -1.054688,2.34375 -0.820312,1.3476562 -1.816406,2.6953125 -0.996094,1.2890625 -1.933594,2.34375 -0.9375,0.9960937 -1.40625,1.3476562 -0.351562,0.2929688 -1.289062,0.5859375 -0.878906,0.234375 -2.109375,0.5273438 -1.171875,0.234375 -2.519531,0.46875 -1.347657,0.234375 -2.636719,0.4101562 -0.234375,1.1718754 -0.351563,2.0507814 -0.117187,0.820312 -0.175781,1.171875 0.117188,0.644531 0.703125,1.289062 0.585938,0.644532 1.464844,1.171875 0.878906,0.527344 1.933594,0.878907 1.113281,0.292968 2.226562,0.292968 0.234375,0 0.46875,0 0.292969,0 0.527344,-0.05859 1.054687,-0.292969 2.8125,-1.347657 1.757812,-1.054687 3.632812,-2.402343 1.933594,-1.347657 3.632813,-2.7539066 1.757812,-1.4648438 2.695312,-2.578125 z" /><path
         id="path55"
         style=""
         d="m 107.48781,-3.7085934 q -0.11719,0.1757813 -0.58594,0.8203125 -0.46875,0.6445313 -0.46875,1.1132813 0,0.5273437 0.64453,0.5273437 h 0.0586 q 0.9375,-0.058594 0.9375,-0.703125 0,-0.46875 -0.23438,-0.9375 -0.23437,-0.5273437 -0.35156,-0.8203125 z m 11.83594,14.4726564 q -0.46875,0.703125 -1.875,1.816406 -1.34766,1.054688 -3.22266,2.226563 -1.81641,1.113281 -3.98438,2.285156 -2.10937,1.113281 -4.10156,2.050781 -1.99219,0.9375 -3.63281,1.464844 -1.58203,0.585937 -2.34375,0.585937 -1.171876,0 -3.105469,-0.527343 -1.933594,-0.46875 -3.75,-1.464844 -1.816407,-0.9375 -3.164063,-2.285156 -1.289062,-1.40625 -1.289062,-3.105469 V 13.69375 q 0.05859,-1.757812 0.527343,-4.1015621 0.527344,-2.34375 1.289063,-4.7460938 0.820312,-2.4023437 1.699219,-4.62890622 0.9375,-2.28515628 1.757812,-3.80859378 0.761719,-1.40625 1.875,-2.6367187 1.113281,-1.2890625 2.285156,-2.2265625 1.230469,-0.9960938 2.460941,-1.5820309 1.23047,-0.585938 2.28515,-0.585938 0.11719,0 0.23438,0.05859 0.17578,0 0.29297,0 0.76172,0.117187 1.75781,0.7617186 0.99609,0.5859375 1.99219,1.40625 0.64453,-0.6445312 1.28906,-1.2304687 0.64453,-0.5859379 1.28906,-0.9960939 l 2.34375,3.5156251 -2.05078,1.875 q 0.52734,0.9375 0.82031,1.875 0.35157,0.8789063 0.35157,1.7578125 0,0.2929688 -0.0586,0.5273438 0,0.23437498 -0.0586,0.52734373 -0.46875,1.69921877 -1.9336,2.51953127 -1.46484,0.7617187 -2.92968,0.7617187 -1.17188,0 -1.99219,-0.4101562 -0.82031,-0.46875 -1.05469,-1.2304688 -0.11719,-0.46874997 -0.11719,-0.76171872 0,-0.99609375 0.41016,-2.40234378 0.46875,-1.40625 1.23047,-2.8710937 -0.70313,-0.5859375 -1.40625,-0.9960938 -0.70313,-0.4101562 -1.28906,-0.46875 -0.41016,0 -1.23047,1.1132813 -0.82031,1.1132812 -1.816408,2.9296875 -0.9375,1.75781248 -1.992188,4.0429687 -1.054687,2.2265625 -1.933593,4.5117188 -0.820313,2.2265625 -1.347657,4.3359376 -0.527343,2.050781 -0.527343,3.515625 0,1.464844 0.46875,1.933594 0.351562,0.175781 0.878906,0.292968 0.996094,0.292969 2.695312,0.292969 1.40625,0 3.750001,-0.527344 2.34375,-0.585937 5.27344,-1.816406 2.92968,-1.230469 6.21093,-3.222656 3.33985,-1.9921876 6.79688,-4.9218751 z" /><path
         id="path57"
         style=""
         d="m 123.71828,15.627344 q 0.35156,0.175781 0.9375,0.175781 1.46484,0 3.33984,-1.054687 1.93359,-1.054688 3.75,-2.460938 1.81641,-1.464843 3.33984,-2.9296871 1.52344,-1.5234375 2.22657,-2.34375 l 1.99218,3.7500001 q -0.58593,0.703125 -2.34375,2.285156 -1.69921,1.582031 -3.75,3.222656 -2.05078,1.582032 -3.98437,2.8125 -1.93359,1.289063 -2.92969,1.347657 -0.11719,0 -0.17578,0 -0.0586,0.05859 -0.17578,0.05859 -1.05469,0 -2.57813,-0.46875 -1.46484,-0.410156 -2.87109,-1.171875 -1.40625,-0.820312 -2.46094,-1.933593 -1.05468,-1.113282 -1.17187,-2.402344 v -0.234375 q 0,-0.9375 0.35156,-3.046875 0.41016,-2.1093751 1.05469,-4.8632814 0.70312,-2.8125 1.52344,-6.03515622 0.8789,-3.28124998 1.8164,-6.50390628 -2.8125,0.1757813 -4.6289,0.8203125 -1.81641,0.5859375 -2.57813,0.703125 l -0.41016,-4.2773437 q 2.46094,-0.5859375 4.45313,-0.9375 1.99219,-0.4101559 4.39453,-0.4687499 1.05469,-3.632813 2.05078,-6.386719 0.9961,-2.8125 1.64063,-3.984375 l 5.33203,0.175781 q -0.64453,0.996094 -1.75781,3.867188 -1.11329,2.871094 -2.28516,6.7968749 1.875,0.4101562 3.86719,0.9375 1.99218,0.5273437 3.75,0.5273437 1.05468,0 2.10937,-0.3515625 l 0.64453,4.21875 q -0.29297,0.058594 -0.64453,0.058594 -0.29297,0 -0.64453,0 -1.69922,0 -4.04297,-0.3515625 -2.34375,-0.4101563 -4.98047,-1.0546875 -0.52734,-0.058594 -1.23047,-0.1757813 -0.76171,2.6367188 -1.46484,5.39062503 -0.64453,2.69531247 -1.17187,5.21484377 -0.52735,2.4609375 -0.87891,4.6289062 -0.29297,2.1679684 -0.29297,3.6914064 0,1.171875 0.17578,1.933594 0.23438,0.703125 0.70313,0.820312 z" /><path
         id="path59"
         style=""
         d="m 148.62062,-5.3492184 q -0.46875,0 -1.28906,0.703125 -0.76172,0.703125 -1.69922,1.875 -0.87891,1.1132813 -1.875,2.63671878 -0.99609,1.52343752 -1.75781,3.16406252 -0.29297,0.5859375 -0.52735,1.171875 -0.23437,0.5859375 -0.46875,1.2304687 1.52344,-0.2929687 3.16407,-0.703125 1.69921,-0.46875 2.51953,-0.9960937 0.41015,-0.2929688 0.8789,-1.171875 0.52735,-0.8789063 0.9375,-1.93359377 0.46875,-1.11328125 0.76172,-2.28515623 0.29297,-1.2304688 0.29297,-2.109375 0,-0.6445313 -0.23437,-1.1132813 -0.23438,-0.46875 -0.70313,-0.46875 z M 161.62843,11.35 q -1.05468,0.761719 -2.46093,1.757813 -1.40625,0.9375 -2.98829,1.992187 -1.52343,0.996094 -3.10546,1.992188 -1.52344,0.996094 -2.8711,1.757812 -1.28906,0.820313 -2.22656,1.289063 -0.9375,0.527344 -1.23047,0.585937 -0.17578,0.05859 -0.46875,0.05859 -0.99609,0 -2.63672,-0.527344 -1.58203,-0.46875 -3.22265,-1.230468 -1.64063,-0.703125 -3.04688,-1.523438 -1.34766,-0.878906 -1.81641,-1.640625 -0.35156,-0.644531 -0.52734,-1.640625 -0.11719,-1.054687 -0.11719,-2.402344 0,-1.171875 0.11719,-2.4609371 0.11719,-1.3476563 0.29297,-2.5195313 0.23437,-1.2304687 0.46875,-2.2265625 0.29297,-0.9960937 0.64453,-1.5820312 0.41016,-0.8203125 1.28906,-2.05078127 0.87891,-1.2890625 1.99219,-2.63671873 1.17188,-1.40625 2.46094,-2.8125 1.28906,-1.40625 2.57812,-2.5195313 1.28907,-1.171875 2.46094,-1.875 1.23047,-0.7617187 2.16797,-0.8203125 0.0586,0 0.0586,0 0.0586,-0.058594 0.17578,-0.058594 0.9375,0 1.875,0.8203125 0.9375,0.8203125 1.64063,1.9921875 0.70312,1.171875 1.11328,2.5195312 0.46875,1.2890625 0.46875,2.34375 0,0.5273438 -0.0586,0.7617188 -0.23438,0.93749998 -1.05469,2.34375 -0.82031,1.3476562 -1.81641,2.6953125 -0.99609,1.2890625 -1.93359,2.34375 -0.9375,0.9960937 -1.40625,1.3476562 -0.35156,0.2929688 -1.28906,0.5859375 -0.87891,0.234375 -2.10938,0.5273438 -1.17187,0.234375 -2.51953,0.46875 -1.34766,0.234375 -2.63672,0.4101562 -0.23437,1.1718754 -0.35156,2.0507814 -0.11719,0.820312 -0.17578,1.171875 0.11719,0.644531 0.70312,1.289062 0.58594,0.644532 1.46485,1.171875 0.8789,0.527344 1.93359,0.878907 1.11328,0.292968 2.22656,0.292968 0.23438,0 0.46875,0 0.29297,0 0.52735,-0.05859 1.05468,-0.292969 2.8125,-1.347657 1.75781,-1.054687 3.63281,-2.402343 1.93359,-1.347657 3.63281,-2.7539066 1.75781,-1.4648438 2.69531,-2.578125 z" /><path
         id="path61"
         style=""
         d="m 164.44093,15.861719 q 0.70313,0 1.75782,-0.703125 1.05468,-0.703125 2.28515,-1.816406 1.28906,-1.171875 2.63672,-2.578125 1.34766,-1.4648439 2.57813,-2.9296876 0.46875,-1.9921875 1.11328,-4.8046875 0.64453,-2.87109377 1.46484,-6.1523438 -0.58594,-1.2890625 -1.52344,-2.1679687 -0.9375,-0.8789063 -1.64062,-0.8789063 -0.29297,0 -0.41016,0.1171875 -0.23437,0.1757813 -1.05469,1.1132813 -0.82031,0.8789062 -1.875,2.2265625 -1.05468,1.3476562 -2.28515,2.98828123 -1.17188,1.64062497 -2.22656,3.22265627 -0.9961,1.5820312 -1.75782,2.9882812 -0.76172,1.3476563 -0.8789,2.1679688 -0.11719,0.8203125 -0.23438,1.6992191 -0.11719,0.820312 -0.11719,1.640625 0,1.523437 0.41016,2.636718 0.46875,1.113282 1.64063,1.230469 z m 23.55469,-38.144531 q -0.99609,1.113281 -2.10937,3.28125 -1.11329,2.167969 -2.22657,5.039062 -1.05468,2.871094 -2.10937,6.2695316 -0.9961,3.3398438 -1.81641,6.79687503 1.34766,-2.51953123 2.8125,-5.50781253 1.46485,-2.9882812 2.63672,-5.9179691 1.17188,-2.929687 1.93359,-5.566406 0.82032,-2.636719 0.87891,-4.394531 z m -9.96094,30.9374999 q -0.11718,1.0546875 -0.17578,2.1093751 -0.0586,0.996094 -0.0586,1.992187 0,2.695313 0.52734,4.511719 0.9375,-0.351562 2.28516,-0.996094 1.40625,-0.644531 2.92969,-1.464843 1.52343,-0.820313 3.10546,-1.757813 1.58204,-0.996094 2.98829,-1.933594 1.40625,-0.9375 2.46093,-1.8164059 1.11328,-0.9375 1.69922,-1.640625 l 0.64453,4.2187499 q -0.64453,0.878906 -2.34375,2.460938 -1.69922,1.582031 -3.6914,3.164062 -1.99219,1.523438 -3.98438,2.636719 -1.93359,1.171875 -3.10547,1.171875 h -0.11718 q -1.17188,0 -2.51954,-0.292969 -1.34765,-0.292969 -2.51953,-0.820312 -1.17187,-0.46875 -1.99218,-1.171875 -0.76172,-0.703125 -0.76172,-1.523438 -0.0586,-0.703125 -0.0586,-1.757812 0,-1.054688 -0.0586,-2.050782 -1.34766,1.347657 -2.75391,2.578125 -1.40625,1.171875 -2.7539,2.050782 -1.28907,0.878906 -2.51953,1.40625 -1.17188,0.527343 -2.16797,0.527343 -0.46875,0 -0.64453,-0.05859 -1.05469,-0.234375 -1.9336,-1.054688 -0.8789,-0.761719 -1.52344,-1.933594 -0.58593,-1.171875 -0.9375,-2.578125 -0.35156,-1.464843 -0.35156,-2.988281 0,-2.1093749 0.70313,-3.9843749 0.46875,-1.2304687 1.40625,-2.9882812 0.9375,-1.7578125 2.10937,-3.6328125 1.23047,-1.93359377 2.57813,-3.8671875 1.40625,-1.9921875 2.8125,-3.515625 1.40625,-1.5820313 2.69531,-2.6367188 1.34766,-1.0546871 2.46094,-1.2304691 0.29297,-0.05859 0.52734,-0.05859 0.23438,0 0.46875,0 1.52344,0 2.51953,0.5859371 1.05469,0.5859375 1.69922,1.2890625 0.76172,-2.8710936 1.58203,-5.6249996 0.87891,-2.8125 1.64063,-5.097657 0.82031,-2.34375 1.52343,-3.984375 0.76172,-1.699218 1.40625,-2.402343 0.82032,-0.820313 1.69922,-1.113282 0.87891,-0.351562 1.81641,-0.351562 0.99609,0 1.93359,0.410156 0.9375,0.351563 1.64063,0.9375 0.76172,0.527344 1.17187,1.230469 0.46875,0.703125 0.46875,1.347656 v 0.175781 q -0.0586,0.644532 -0.82031,2.8125 -0.76172,2.167969 -1.99219,5.214844 -1.17187,2.988281 -2.69531,6.5039064 -1.52344,3.515625 -3.16406,6.796875 -1.58203,3.28125 -3.10547,6.0351562 -1.52344,2.6953125 -2.75391,4.1601563 z" /></g></g></svg>
