<?xml version="1.0" encoding="UTF-8" standalone="no"?>
<svg
   xmlns:dc="http://purl.org/dc/elements/1.1/"
   xmlns:cc="http://creativecommons.org/ns#"
   xmlns:rdf="http://www.w3.org/1999/02/22-rdf-syntax-ns#"
   xmlns:svg="http://www.w3.org/2000/svg"
   xmlns="http://www.w3.org/2000/svg"
   id="svg21"
   xml:space="preserve"
   viewBox="5 5 1001 203"
   height="208"
   width="1007"
   version="1.1"><metadata
     id="metadata25"><rdf:RDF><cc:Work
         rdf:about=""><dc:format>image/svg+xml</dc:format><dc:type
           rdf:resource="http://purl.org/dc/dcmitype/StillImage" /></cc:Work></rdf:RDF></metadata><desc
     id="desc2">Created with Fabric.js 2.4.6</desc><defs
     id="defs4" /><g
     id="g13"
     transform="matrix(10.03,0,0,2.04,503.68,104.82)"><linearGradient
       y2="0"
       x2="50"
       y1="0"
       x1="-50"
       gradientUnits="userSpaceOnUse"
       id="SVGID_18"><stop
         id="stop6"
         style="stop-color:rgb(5,146,202);stop-opacity: 0.68"
         offset="60%" /><stop
         id="stop8"
         style="stop-color:rgb(255,255,255);stop-opacity: 1"
         offset="100%" /></linearGradient><path
       id="rect11"
       d="M -50,-50 H 50 V 50 H -50 Z"
       style="opacity:1;fill:url(#SVGID_18);fill-rule:nonzero;stroke:#000000;stroke-width:0;stroke-linecap:butt;stroke-linejoin:miter;stroke-miterlimit:4;stroke-dasharray:none;stroke-dashoffset:0" /></g><g
     id="g19"
     transform="translate(271.79,100.76)"><g
       id="text17"
       style="font-style:normal;font-weight:normal;font-size:60px;font-family:Miniver;white-space:pre;opacity:1;fill:#f9fafd;fill-rule:nonzero;stroke:none;stroke-width:1;stroke-linecap:butt;stroke-linejoin:miter;stroke-miterlimit:4;stroke-dasharray:none;stroke-dashoffset:0"
       aria-label="performance"><path
         id="path28"
         style=""
         d="m -144.4039,16.857813 q 0.64453,-0.117188 1.52344,-1.230469 0.8789,-1.171875 1.8164,-2.871094 0.9961,-1.699218 1.9336,-3.7499996 0.9375,-2.109375 1.64062,-4.21875 0.76172,-2.109375 1.23047,-3.98437502 0.46875,-1.93359378 0.46875,-3.28124998 0,-0.5273438 -0.11719,-1.1132813 -0.52734,-1.5234375 -1.46484,-2.2851562 -4.10156,0.9375 -6.91406,3.1640625 -2.8125,2.22656248 -3.8086,5.390625 -0.23437,0.7617187 -0.52734,1.171875 0,0.46875 -0.0586,0.8789062 -0.0586,0.4101563 -0.17579,0.8789063 -0.17578,0.9375 -0.52734,2.2265625 -0.29297,1.2304687 -0.76172,2.7539066 0.17578,0.996093 0.64453,2.109375 0.52735,1.113281 1.23047,2.050781 0.70313,0.9375 1.52344,1.582031 0.87891,0.585938 1.81641,0.585938 0.35156,0 0.52734,-0.05859 z m 3.75,-26.4257814 q 0.29297,-0.1171875 0.58594,-0.1171875 0.35156,0 0.70312,0 1.11328,0 2.57813,0.4101563 1.52343,0.3515625 2.87109,1.0546875 1.34766,0.703125 2.22656,1.7578125 0.9375,0.9960937 0.9375,2.2851562 0,0.703125 -0.11718,1.875 -0.11719,1.1132813 -0.41016,2.63671878 -0.29297,1.46484372 -0.76172,3.22265622 -0.41016,1.6992188 -1.05469,3.515625 -0.70312,2.1679688 -1.69922,4.2773434 -0.99609,2.109375 -2.16796,3.867188 -1.11329,1.757812 -2.40235,2.988281 -1.23047,1.230469 -2.51953,1.582031 -0.99609,0.351563 -1.81641,0.46875 -0.82031,0.117188 -1.64062,0.117188 -2.87109,0 -4.62891,-1.289063 -1.75781,-1.289062 -2.10937,-2.695312 -1.40625,3.984375 -2.98828,8.261719 -1.52344,4.277343 -2.8125,8.085937 -1.34766,3.867188 -2.22657,6.738281 -0.8789,2.929688 -0.8789,4.101563 v 0.117187 l -4.57031,0.175782 q -0.41016,-0.351563 -0.41016,-1.640625 0,-2.226563 1.23047,-6.679688 1.23047,-4.453125 3.51562,-10.078125 0.9961,-2.460937 2.28516,-5.507812 1.23047,-3.046875 2.28516,-6.328125 1.11328,-3.28125 1.875,-6.6210941 0.76171,-3.3398438 0.76171,-6.38671877 0,-0.46875 0,-0.87890625 0,-0.41015625 -0.0586,-0.82031248 -0.17578,-1.9921875 -0.41016,-3.5742188 -0.23437,-1.5820312 -0.70312,-2.34375 l 3.75,-2.7539062 q 0.64453,1.1132812 1.11328,2.4023437 0.52734,1.2304688 0.82031,2.2851563 0.35157,1.2304687 0.58594,2.4609375 0.82031,-1.0546875 1.93359,-2.1679688 1.11329,-1.1132812 2.22657,-2.0507812 1.17187,-0.9960938 2.22656,-1.6992188 1.11328,-0.7617187 1.875,-1.0546875 z" /><path
         id="path30"
         style=""
         d="m -113.99374,-5.3492184 q -0.46875,0 -1.28907,0.703125 -0.76172,0.703125 -1.69922,1.875 -0.8789,1.1132813 -1.875,2.63671878 -0.99609,1.52343752 -1.75781,3.16406252 -0.29297,0.5859375 -0.52734,1.171875 -0.23438,0.5859375 -0.46875,1.2304687 1.52344,-0.2929687 3.16406,-0.703125 1.69922,-0.46875 2.51953,-0.9960937 0.41016,-0.2929688 0.87891,-1.171875 0.52734,-0.8789063 0.9375,-1.93359377 0.46875,-1.11328125 0.76172,-2.28515623 0.29297,-1.2304688 0.29297,-2.109375 0,-0.6445313 -0.23438,-1.1132813 -0.23437,-0.46875 -0.70312,-0.46875 z M -100.98593,11.35 q -1.05469,0.761719 -2.46094,1.757813 -1.40625,0.9375 -2.98828,1.992187 -1.52344,0.996094 -3.10547,1.992188 -1.52344,0.996094 -2.87109,1.757812 -1.28907,0.820313 -2.22657,1.289063 -0.9375,0.527344 -1.23046,0.585937 -0.17579,0.05859 -0.46875,0.05859 -0.9961,0 -2.63672,-0.527344 -1.58203,-0.46875 -3.22266,-1.230468 -1.64062,-0.703125 -3.04687,-1.523438 -1.34766,-0.878906 -1.81641,-1.640625 -0.35156,-0.644531 -0.52734,-1.640625 -0.11719,-1.054687 -0.11719,-2.402344 0,-1.171875 0.11719,-2.4609371 0.11718,-1.3476563 0.29296,-2.5195313 0.23438,-1.2304687 0.46875,-2.2265625 0.29297,-0.9960937 0.64454,-1.5820312 0.41015,-0.8203125 1.28906,-2.05078127 0.8789,-1.2890625 1.99219,-2.63671873 1.17187,-1.40625 2.46093,-2.8125 1.28907,-1.40625 2.57813,-2.5195313 1.28906,-1.171875 2.46094,-1.875 1.23046,-0.7617187 2.16796,-0.8203125 0.0586,0 0.0586,0 0.0586,-0.058594 0.17578,-0.058594 0.9375,0 1.875,0.8203125 0.9375,0.8203125 1.64062,1.9921875 0.70313,1.171875 1.11329,2.5195312 0.46875,1.2890625 0.46875,2.34375 0,0.5273438 -0.0586,0.7617188 -0.23437,0.93749998 -1.05469,2.34375 -0.82031,1.3476562 -1.8164,2.6953125 -0.9961,1.2890625 -1.9336,2.34375 -0.9375,0.9960937 -1.40625,1.3476562 -0.35156,0.2929688 -1.28906,0.5859375 -0.8789,0.234375 -2.10937,0.5273438 -1.17188,0.234375 -2.51953,0.46875 -1.34766,0.234375 -2.63672,0.4101562 -0.23438,1.1718754 -0.35157,2.0507814 -0.11718,0.820312 -0.17578,1.171875 0.11719,0.644531 0.70313,1.289062 0.58594,0.644532 1.46484,1.171875 0.87891,0.527344 1.9336,0.878907 1.11328,0.292968 2.22656,0.292968 0.23437,0 0.46875,0 0.29297,0 0.52734,-0.05859 1.05469,-0.292969 2.8125,-1.347657 1.75781,-1.054687 3.63281,-2.402343 1.9336,-1.347657 3.63282,-2.7539066 1.75781,-1.4648438 2.69531,-2.578125 z" /><path
         id="path32"
         style=""
         d="m -74.032806,12.697657 q -0.644532,1.230468 -1.582032,2.460937 -0.9375,1.230469 -2.167968,2.34375 -1.171875,1.054688 -2.578125,1.816406 -1.40625,0.820313 -2.929688,1.113282 -0.644531,0.117187 -1.230469,0.175781 -0.527343,0.05859 -1.113281,0.05859 -2.519531,0 -4.394531,-1.054688 -1.875,-0.996094 -2.109375,-3.105469 v -0.585937 q 0,-1.289063 0.234375,-3.632813 0.292969,-2.4023434 0.644531,-5.0390621 0.410156,-2.6953125 0.820313,-5.2734375 0.410156,-2.63671877 0.703125,-4.453125 l -3.691407,-1.640625 -9.667972,24.1406246 -5.09765,-0.761718 q 0.35156,-0.820313 1.34765,-2.988282 0.9961,-2.167968 2.22657,-4.804687 1.23046,-2.6367189 2.40234,-5.2148439 1.23047,-2.6367187 1.99219,-4.3359375 0.644529,-1.58203122 1.406247,-3.8671875 0.761719,-2.2851562 1.40625,-4.5117187 0.644532,-2.2851563 1.054688,-4.1015624 0.410156,-1.816406 0.410156,-2.460938 l 5.15625,1.289063 q -0.175781,0.234375 -0.234375,0.527344 -0.05859,0.234375 -0.05859,0.527343 0,0.7031254 0.234375,1.4062504 0.292969,0.6445312 0.644532,1.2304687 0.410156,0.5273438 0.878906,0.8789063 0.527344,0.3515625 0.996094,0.3515625 0.351562,0 0.644531,-0.2929688 0.351562,-0.3515625 0.46875,-1.171875 0.05859,-0.3515625 0.46875,-0.6445312 0.46875,-0.3515625 0.996094,-0.5859375 0.585937,-0.2929688 1.171875,-0.4101563 0.644531,-0.1757811 1.054687,-0.1757811 0.585938,0 0.644531,0.2343749 0.292969,0.4101562 0.527344,0.9960937 0.292969,0.5273438 0.292969,1.171875 0,0.6445313 -0.292969,1.2304688 -0.234375,0.5859375 -0.878906,1.0546875 -0.9375,0.703125 -1.640625,2.2851562 -0.703125,1.5820313 -1.230469,3.63281253 -0.46875,2.05078127 -0.703125,4.39453127 -0.234375,2.34375 -0.234375,4.6289062 0,2.2265629 0.234375,4.2773439 0.234375,2.050781 0.761719,3.398437 1.816406,-0.351562 3.164062,-0.878906 1.347657,-0.527344 2.402344,-1.347656 1.113281,-0.878906 1.992188,-2.050781 0.9375,-1.230469 1.816406,-2.9882816 z" /><path
         id="path34"
         style=""
         d="m -75.9664,38.947657 q 1.523437,-1.640625 2.8125,-3.984375 1.347656,-2.285157 2.34375,-4.863282 0.996094,-2.519531 1.582031,-5.097656 0.585938,-2.519531 0.585938,-4.746094 0,-0.703125 -0.05859,-0.996093 -1.171875,0 -2.519531,-0.351563 -1.347657,-0.292969 -2.402344,-0.878906 -0.410156,2.402344 -0.878906,4.921875 -0.410157,2.519531 -0.820313,4.921875 -0.351562,2.460937 -0.585937,4.6875 -0.234375,2.226562 -0.234375,4.042969 0,1.40625 0.175781,2.34375 z M -69.345306,14.1625 q -0.117188,-0.351562 -0.527344,-0.703125 -0.410156,-0.351562 -0.878906,-0.703125 -0.46875,0.292969 -0.996094,0.585938 -0.46875,0.234375 -0.9375,0.527344 0.351562,0.292968 0.878906,0.410156 0.585938,0.05859 1.230469,0.05859 0.878906,0 1.230469,-0.175782 z m 11.425781,-34.6875 q -1.347656,0.996094 -2.929688,3.222657 -1.582031,2.226562 -3.222656,5.214843 -1.640625,2.9296879 -3.164062,6.3281254 -1.523438,3.3398437 -2.753907,6.62109373 -1.171875,3.22265627 -1.992187,6.03515627 -0.761719,2.8125 -0.878906,4.6874996 0.234375,-0.117187 0.410156,-0.234375 0.234375,-0.117187 0.527344,-0.234375 1.113281,-1.1718746 2.695312,-2.6953121 1.640625,-1.5234375 3.222656,-3.1640625 1.582032,-1.640625 2.871094,-3.2226563 1.347656,-1.64062497 1.992188,-3.046875 0.527343,-1.2304687 1.113281,-3.28125 0.644531,-2.109375 1.113281,-4.5117187 0.527344,-2.4023434 0.820313,-4.8632814 0.351562,-2.460937 0.351562,-4.511719 0,-1.171875 -0.175781,-2.34375 z m -0.996094,-2.34375 q -0.410156,-0.410156 -0.820312,-0.46875 z M -67.5289,11.701563 q 0.703125,0.820312 1.40625,1.933594 2.050781,-0.527344 4.160156,-1.113282 2.167969,-0.585937 4.101563,-1.230468 1.933593,-0.644532 3.515625,-1.230469 1.640625,-0.6445314 2.636718,-1.2304689 l 0.9375,5.3320309 q -0.996093,0.527344 -2.8125,1.113282 -1.816406,0.527343 -3.867187,1.054687 -1.992188,0.527344 -3.925781,1.054688 -1.875,0.46875 -2.988282,0.878906 0.351563,1.40625 0.351563,3.105469 0,0.46875 0,0.996093 0,0.585938 -0.117188,1.113282 -0.351562,2.578125 -1.289062,5.742187 -0.878906,3.164063 -2.109375,6.09375 -1.171875,2.988281 -2.519531,5.332031 -1.347657,2.34375 -2.636719,3.28125 -1.054688,0.703125 -2.285156,0.703125 -1.113282,0 -2.167969,-0.527343 -1.054688,-0.527344 -1.875,-1.40625 -0.878906,-0.820313 -1.464844,-1.933594 -0.585937,-1.054688 -0.644531,-2.167969 v -0.292969 q 0,-0.878906 0.234375,-2.8125 0.234375,-1.933593 0.644531,-4.511718 0.410156,-2.578125 0.9375,-5.625 0.527344,-3.046875 1.113281,-6.210938 0.527344,-3.164062 1.113282,-6.210937 0.644531,-3.1054691 1.171875,-5.7421879 0.527343,-2.6953125 0.9375,-4.6875 0.410156,-2.05078122 0.703125,-3.10546872 0.351562,-1.40624998 1.171875,-3.69140628 0.878906,-2.2851562 2.050781,-4.8632812 1.230469,-2.5781249 2.695312,-5.2734379 1.523438,-2.695312 3.105469,-4.921875 1.640625,-2.285156 3.28125,-3.867187 1.699219,-1.582031 3.339844,-2.050781 0.585937,-0.175782 1.230469,-0.175782 1.40625,0 2.402343,0.878907 0.996094,0.820312 1.640625,2.109375 0.644532,1.230468 0.9375,2.695312 0.351563,1.40625 0.46875,2.636719 v 0.234375 q 0,0.996094 -0.410156,2.871094 -0.351562,1.816406 -0.996094,4.1015621 -0.644531,2.2265625 -1.464843,4.6875 -0.761719,2.4023438 -1.582032,4.57031253 -0.820312,2.10937497 -1.640625,3.74999997 -0.761718,1.640625 -1.289062,2.2851563 -0.46875,0.5273437 -1.40625,1.3476562 -0.9375,0.7617188 -2.109375,1.640625 -1.113281,0.8203125 -2.34375,1.6992189 -1.230469,0.878906 -2.34375,1.640625 z" /><path
         id="path36"
         style=""
         d="m -43.915619,17.033594 q 0.234375,0.05859 0.703125,0.05859 1.757813,0 3.164063,-0.9375 1.40625,-0.9375 2.460937,-2.34375 1.054688,-1.40625 1.757813,-2.988281 0.761718,-1.6406254 1.113281,-2.9882816 0.292969,-0.7617188 0.644531,-2.4023438 0.351563,-1.6992187 0.644531,-3.6328125 -0.996093,-0.3515625 -2.050781,-1.17187497 -0.996094,-0.87890625 -1.875,-1.99218753 -0.878906,-1.1132812 -1.464844,-2.4023437 -0.527343,-1.2890625 -0.527343,-2.4609375 0,-0.4101563 0.05859,-0.6445313 -1.347656,0.8203125 -2.578125,1.9335938 -1.171875,1.1132812 -2.167968,2.4023437 -0.996094,1.2304688 -1.699219,2.63671878 -0.703125,1.34765622 -0.996094,2.63671872 -0.351562,1.3476563 -0.644531,3.28125 -0.292969,1.875 -0.292969,3.8671875 0,1.3476564 0.175781,2.5781254 0.175782,1.230468 0.585938,2.226562 0.46875,0.9375 1.171875,1.582031 0.761719,0.644532 1.816406,0.761719 z m 9.902344,-23.7304686 q -0.644531,0 -0.9375,0.4101562 -0.292969,0.4101563 -0.292969,0.9960938 0,0.9960937 0.644531,2.0507812 0.644532,0.9960938 1.699219,1.40625 0.05859,-0.5273437 0.05859,-0.9960937 0,-0.46875 0,-0.9375 0,-1.3476563 -0.234375,-2.109375 -0.234375,-0.8203125 -0.878906,-0.8203125 z m 18.808594,5.91796873 q -2.8125,2.28515627 -5.449219,3.33984377 -2.636719,1.0546875 -4.628906,1.0546875 -1.523438,0 -3.457032,-0.6445313 -0.644531,2.7539063 -1.582031,5.5664063 -0.878906,2.8124996 -1.992187,5.2148436 -1.054688,2.34375 -2.285157,3.984375 -1.171875,1.640625 -2.402343,2.050781 -1.347657,0.527344 -2.929688,0.761719 -1.582031,0.234375 -3.164062,0.234375 -2.636719,0 -4.980469,-0.761719 -2.285156,-0.761718 -3.105469,-2.460937 -0.46875,-0.996094 -0.761719,-2.871094 -0.292968,-1.875 -0.292968,-4.101562 0,-1.7578129 0.175781,-3.6328129 0.175781,-1.9335937 0.46875,-3.6914062 0.351562,-1.7578125 0.820312,-3.22265627 0.527344,-1.52343753 1.171875,-2.51953123 0.996094,-1.640625 2.519532,-3.28125 1.523437,-1.6992188 3.28125,-3.046875 1.816406,-1.3476564 3.75,-2.2265624 1.933593,-0.878906 3.808593,-0.878906 h 0.175782 l 0.175781,1.699218 q 0.9375,-0.351562 1.992187,-0.351562 2.167969,0 3.808594,1.4062499 1.699219,1.3476562 2.34375,3.4570312 0.117188,0.46875 0.117188,1.5820313 0,0.8203125 -0.05859,1.6992187 0,0.8789063 -0.05859,1.3476563 0.292969,0.11718748 0.644531,0.17578123 0.585938,0.17578125 1.816407,0.17578125 0.761718,0 1.875,-0.1171875 1.171875,-0.17578128 2.460937,-0.52734378 1.347656,-0.4101562 2.753906,-1.0546875 1.40625,-0.703125 2.695313,-1.8164062 z" /><path
         id="path38"
         style=""
         d="m 8.2328186,12.697657 q -0.6445312,1.230468 -1.5820312,2.460937 -0.9375,1.230469 -2.1679688,2.34375 -1.171875,1.054688 -2.578125,1.816406 -1.40625,0.820313 -2.9296875,1.113282 -0.6445312,0.117187 -1.2304687,0.175781 -0.5273438,0.05859 -1.1132813,0.05859 -2.5195312,0 -4.3945312,-1.054688 -1.875,-0.996094 -2.109375,-3.105469 v -0.585937 q 0,-1.289063 0.234375,-3.632813 0.2929687,-2.4023434 0.6445312,-5.0390621 0.4101563,-2.6953125 0.8203125,-5.2734375 0.4101563,-2.63671877 0.703125,-4.453125 l -3.6914066,-1.640625 -9.667968,24.1406246 -5.097657,-0.761718 q 0.351563,-0.820313 1.347657,-2.988282 0.996093,-2.167968 2.226562,-4.804687 1.230469,-2.6367189 2.402344,-5.2148439 1.230469,-2.6367187 1.992187,-4.3359375 0.644532,-1.58203122 1.40625,-3.8671875 0.761719,-2.2851562 1.40625,-4.5117187 0.644532,-2.2851563 1.054688,-4.1015624 0.410156,-1.816406 0.410156,-2.460938 l 5.1562501,1.289063 q -0.1757812,0.234375 -0.234375,0.527344 -0.058594,0.234375 -0.058594,0.527343 0,0.7031254 0.234375,1.4062504 0.2929687,0.6445312 0.6445312,1.2304687 0.4101563,0.5273438 0.8789063,0.8789063 0.5273437,0.3515625 0.9960937,0.3515625 0.3515625,0 0.6445313,-0.2929688 0.3515625,-0.3515625 0.46875,-1.171875 0.058594,-0.3515625 0.46875,-0.6445312 0.46875,-0.3515625 0.9960937,-0.5859375 0.5859375,-0.2929688 1.171875,-0.4101563 0.6445313,-0.1757811 1.0546875,-0.1757811 0.5859375,0 0.64453125,0.2343749 0.29296875,0.4101562 0.52734375,0.9960937 0.29296875,0.5273438 0.29296875,1.171875 0,0.6445313 -0.29296875,1.2304688 -0.234375,0.5859375 -0.87890625,1.0546875 -0.93749995,0.703125 -1.64062495,2.2851562 -0.703125,1.5820313 -1.2304688,3.63281253 -0.46875,2.05078127 -0.703125,4.39453127 -0.234375,2.34375 -0.234375,4.6289062 0,2.2265629 0.234375,4.2773439 0.234375,2.050781 0.7617188,3.398437 1.8164062,-0.351562 3.16406245,-0.878906 1.34765625,-0.527344 2.40234375,-1.347656 1.1132813,-0.878906 1.9921875,-2.050781 0.9375,-1.230469 1.8164063,-2.9882816 z" /><path
         id="path40"
         style=""
         d="m 14.267975,-7.5171871 q 0.05859,0.3515625 0.117187,0.8789062 0.05859,0.46875 0.117188,1.1132813 0.05859,0.5859375 0.05859,1.40625 v 0.058594 0.4101563 q 1.113281,-1.1132813 2.519531,-2.109375 1.464844,-0.9960938 2.871094,-1.8164063 1.464843,-0.8789062 2.8125,-1.5234375 1.40625,-0.6445312 2.460937,-1.1132816 0.761719,-0.351562 1.699219,-0.351562 1.699219,0 3.105469,1.0546874 1.464843,0.9960937 1.640625,2.4023437 1.816406,-1.2890625 3.867187,-2.109375 2.109375,-0.8789061 3.691406,-0.8789061 0.585938,0 1.464844,0.6445311 0.9375,0.6445313 1.757813,1.5820313 0.878906,0.8789062 1.464843,1.875 0.644532,0.9375 0.644532,1.5234375 v 0.1171875 q -0.05859,0.2929687 -0.585938,1.5234375 -0.46875,1.2304687 -1.230469,2.98828123 -0.761718,1.75781247 -1.640625,3.86718747 -0.820312,2.109375 -1.582031,4.21875 -0.703125,2.1093754 -1.230469,4.0429684 -0.46875,1.875 -0.46875,3.222657 0,1.875 1.113282,2.167968 2.109375,-0.410156 4.042968,-1.171875 1.640625,-0.644531 3.339844,-1.699218 1.699219,-1.113282 2.753906,-2.753907 l 1.757813,3.925782 q -2.519531,1.875 -5.214844,3.105468 -2.636719,1.289063 -4.863281,2.050782 -2.636719,0.878906 -5.097656,1.40625 -1.40625,-0.703125 -2.167969,-1.933594 -0.703125,-1.171875 -0.703125,-3.222656 0,-0.996094 0.175781,-2.285157 0.175781,-1.289062 0.644531,-2.929687 0.46875,-1.992188 1.464844,-4.5703126 1.054688,-2.6367188 2.109375,-5.2148438 1.054688,-2.57812497 1.816406,-4.8632812 0.761719,-2.34375 0.761719,-3.75 -1.699219,0.2929687 -3.574219,0.9375 -1.816406,0.5859375 -3.574218,1.8164062 -1.699219,1.171875 -3.164063,2.98828128 -1.464844,1.81640622 -2.460937,4.45312502 -0.292969,0.703125 -0.410157,1.1132812 -0.117187,0.3515625 -0.234375,0.46875 -0.46875,1.171875 -0.878906,2.4609375 -0.410156,1.2304688 -0.527344,2.4023434 -0.117187,0.820313 -0.234375,1.699219 -0.175781,1.523438 -0.175781,3.75 0,0.878906 0.05859,1.816406 0.05859,0.9375 0.292969,1.757813 l -6.445313,-0.175781 q 0.05859,-2.460938 0.761719,-5.800782 0.761719,-3.339843 1.875,-6.8554684 1.113281,-3.515625 2.34375,-6.73828122 1.289062,-3.22265628 2.402344,-5.44921878 -1.40625,0.234375 -3.105469,0.8789063 -1.640625,0.6445312 -3.28125,1.5820312 -1.640625,0.9375 -3.046875,2.0507813 -1.40625,1.05468748 -2.285156,2.109375 -0.703125,0.7617187 -1.347657,1.9921875 -0.761718,2.2265625 -1.757812,4.9804687 -0.820313,2.4023434 -2.0507814,5.6250004 -1.171875,3.164062 -2.6953125,7.03125 L 1.1429749,19.494532 Q 2.7835999,16.213282 4.2484436,12.814844 5.6546936,9.3578129 6.7093811,6.1937504 7.7640686,3.0296879 8.3500061,0.27578163 8.9945374,-2.4781246 8.9945374,-4.4117184 v -0.7617187 z" /><path
         id="path42"
         style=""
         d="m 54.3461,15.334375 q 0.644531,0 1.699219,-0.644531 1.054687,-0.703125 2.285156,-1.816406 1.230469,-1.113281 2.519531,-2.519531 1.347656,-1.4062504 2.578125,-2.8125004 0.644531,-2.0507812 1.640625,-4.9804687 1.054688,-2.98828127 2.34375,-6.4453125 l -0.820312,1.5820312 q -0.175782,-0.8789062 -0.585938,-1.640625 -0.410156,-0.7617187 -0.9375,-1.3476562 -0.527344,-0.6445313 -1.113281,-0.9960938 -0.527344,-0.3515625 -0.9375,-0.3515625 -0.292969,0 -0.410156,0.1171875 -0.234375,0.1757813 -1.054688,1.1132813 -0.761719,0.8789062 -1.875,2.2265625 -1.054687,1.3476562 -2.285156,2.98828123 Q 56.2211,1.4476566 55.166412,3.0296879 54.170319,4.6117191 53.4086,6.0179691 q -0.761719,1.3476563 -0.878906,2.1679688 -0.117188,0.8203125 -0.234375,1.6992187 -0.117188,0.8203124 -0.117188,1.6406254 0,1.523437 0.410156,2.636718 0.46875,1.113282 1.640625,1.171875 z m 26.425781,-3.925781 q -0.761719,0.878906 -2.167969,2.460938 -1.40625,1.582031 -3.046875,3.164062 -1.582031,1.523438 -3.222656,2.636719 -1.582031,1.171875 -2.695312,1.171875 h -0.117188 q -1.113281,0 -2.402344,-0.292969 -1.289062,-0.292969 -2.402343,-0.820312 -1.054688,-0.46875 -1.816407,-1.113282 -0.703125,-0.703125 -0.703125,-1.523437 v -0.05859 q 0,-0.585937 0.05859,-1.347656 0.05859,-0.820313 0.117188,-1.699219 -2.519532,2.460938 -5.039063,4.101563 -2.460937,1.640625 -4.335937,1.640625 -0.46875,0 -0.644532,-0.05859 -1.054687,-0.175781 -1.933593,-0.996094 -0.878907,-0.878906 -1.523438,-2.109375 -0.585937,-1.289062 -0.9375,-2.8125 -0.351562,-1.523437 -0.351562,-3.046875 0,-2.2265624 0.703125,-4.1601561 0.46875,-1.2304688 1.347656,-2.9296875 0.878906,-1.6992188 1.992187,-3.57421877 1.171875,-1.87500003 2.460938,-3.69140623 1.347656,-1.875 2.636719,-3.3984375 1.347656,-1.5234375 2.636718,-2.4609375 1.289063,-0.9960934 2.402344,-1.1718754 0.292969,-0.05859 0.527344,-0.05859 0.234375,0 0.46875,0 1.230469,0 2.167969,0.351562 0.996093,0.351563 1.699218,0.9375001 0.761719,0.5273438 1.230469,1.171875 0.46875,0.6445313 0.703125,1.171875 0.175781,-0.703125 0.410156,-1.1132812 l 3.808594,0.5859375 Q 71.2211,-3.6499996 69.873444,0.45156288 68.525787,4.4945316 67.764069,8.1859379 l 0.05859,0.1757812 -0.117187,0.1171875 q -0.351563,1.7578124 -0.585938,3.3398434 -0.175781,1.582032 -0.175781,2.929688 0,0.644531 0,1.113281 0.05859,0.46875 0.117188,0.9375 1.464843,-0.527344 3.28125,-1.582031 1.875,-1.054688 3.632812,-2.34375 1.816406,-1.289063 3.398438,-2.636719 1.582031,-1.4062499 2.578125,-2.4609374 z" /><path
         id="path44"
         style=""
         d="m 82.060944,-4.5874996 q 1.582031,-0.8203125 2.8125,-1.4648438 1.054687,-0.5273437 1.933593,-0.9960937 0.9375,-0.46875 1.054688,-0.46875 0,0.2929687 0,0.46875 0.05859,0.1757812 0.05859,0.3515625 0,0.2929687 -0.05859,0.5859375 0,0.2929687 -0.05859,0.5859375 1.757813,-1.640625 3.75,-2.6953125 2.050781,-1.1132813 3.808594,-1.5820313 h 0.292969 q 0.644531,0 1.757812,0.4101563 1.113281,0.4101562 2.167969,1.0546875 1.054685,0.6445312 1.816405,1.40625 0.82031,0.703125 0.82031,1.3476562 0,0.4101563 -0.46875,1.7578125 -0.41015,1.2890625 -1.11328,3.16406253 Q 99.990631,1.2132816 99.170319,3.4984379 98.4086,5.7250004 97.705475,8.0101566 97.060944,10.236719 96.592194,12.2875 q -0.46875,1.992188 -0.46875,3.457032 0,0.996093 0.292968,1.640625 0.292969,0.644531 0.9375,0.761718 2.167969,-0.351562 4.160158,-1.230468 1.69922,-0.761719 3.57422,-2.050782 1.93359,-1.347656 3.39843,-3.574218 l 1.69922,4.453125 q -1.40625,1.523437 -3.33984,2.871093 -1.875,1.289063 -3.86719,2.285157 -1.99219,0.996093 -3.984373,1.523437 -1.933593,0.585938 -3.398437,0.585938 -1.40625,0 -2.167969,-0.585938 -0.820312,-0.585937 -1.230469,-2.402344 -0.351562,-1.816406 -0.351562,-4.042968 0,-1.171875 0.05859,-2.285157 0.117187,-1.171875 0.351562,-2.34375 0.410156,-2.4023434 1.171875,-4.9218746 0.761719,-2.5195313 1.464844,-4.8046875 0.761719,-2.34375002 1.289062,-4.21875 0.527344,-1.9335938 0.585938,-3.1054688 -3.75,1.171875 -6.679688,3.8085938 -2.929687,2.63671873 -4.511718,5.9179687 -1.933594,3.9257813 -3.28125,8.2031254 -1.289063,4.21875 -2.8125,8.4375 L 74.209381,19.31875 q 0.761719,-1.171875 1.640625,-2.988281 0.878906,-1.875 1.699219,-4.101562 0.878906,-2.226563 1.699219,-4.6289066 0.820312,-2.4023438 1.464843,-4.6289063 0.644532,-2.22656247 0.996094,-4.1601562 0.410156,-1.9335938 0.46875,-3.2226563 l -0.117187,-0.1757812 z" /><path
         id="path46"
         style=""
         d="m 125.53751,-3.7085934 q -0.11719,0.1757813 -0.58594,0.8203125 -0.46875,0.6445313 -0.46875,1.1132813 0,0.5273437 0.64453,0.5273437 h 0.0586 q 0.9375,-0.058594 0.9375,-0.703125 0,-0.46875 -0.23437,-0.9375 -0.23438,-0.5273437 -0.35156,-0.8203125 z m 11.83593,14.4726564 q -0.46875,0.703125 -1.875,1.816406 -1.34765,1.054688 -3.22265,2.226563 -1.81641,1.113281 -3.98438,2.285156 -2.10937,1.113281 -4.10156,2.050781 -1.99219,0.9375 -3.63281,1.464844 -1.58203,0.585937 -2.34375,0.585937 -1.17188,0 -3.10547,-0.527343 -1.9336,-0.46875 -3.75,-1.464844 -1.81641,-0.9375 -3.16406,-2.285156 -1.28907,-1.40625 -1.28907,-3.105469 V 13.69375 q 0.0586,-1.757812 0.52735,-4.1015621 0.52734,-2.34375 1.28906,-4.7460938 0.82031,-2.4023437 1.69922,-4.62890622 0.9375,-2.28515628 1.75781,-3.80859378 0.76172,-1.40625 1.875,-2.6367187 1.11328,-1.2890625 2.28516,-2.2265625 1.23047,-0.9960938 2.46093,-1.5820309 1.23047,-0.585938 2.28516,-0.585938 0.11719,0 0.23438,0.05859 0.17578,0 0.29296,0 0.76172,0.117187 1.75782,0.7617186 0.99609,0.5859375 1.99218,1.40625 0.64454,-0.6445312 1.28907,-1.2304687 0.64453,-0.5859379 1.28906,-0.9960939 l 2.34375,3.5156251 -2.05078,1.875 q 0.52734,0.9375 0.82031,1.875 0.35156,0.8789063 0.35156,1.7578125 0,0.2929688 -0.0586,0.5273438 0,0.23437498 -0.0586,0.52734373 -0.46875,1.69921877 -1.9336,2.51953127 -1.46484,0.7617187 -2.92969,0.7617187 -1.17187,0 -1.99218,-0.4101562 -0.82032,-0.46875 -1.05469,-1.2304688 -0.11719,-0.46874997 -0.11719,-0.76171872 0,-0.99609375 0.41016,-2.40234378 0.46875,-1.40625 1.23047,-2.8710937 -0.70313,-0.5859375 -1.40625,-0.9960938 -0.70313,-0.4101562 -1.28907,-0.46875 -0.41015,0 -1.23046,1.1132813 -0.82032,1.1132812 -1.81641,2.9296875 -0.9375,1.75781248 -1.99219,4.0429687 -1.05469,2.2265625 -1.93359,4.5117188 -0.82031,2.2265625 -1.34766,4.3359376 -0.52734,2.050781 -0.52734,3.515625 0,1.464844 0.46875,1.933594 0.35156,0.175781 0.8789,0.292968 0.9961,0.292969 2.69532,0.292969 1.40625,0 3.75,-0.527344 2.34375,-0.585937 5.27343,-1.816406 2.92969,-1.230469 6.21094,-3.222656 3.33985,-1.9921876 6.79688,-4.9218751 z" /><path
         id="path48"
         style=""
         d="m 147.56876,-5.3492184 q -0.46875,0 -1.28907,0.703125 -0.76172,0.703125 -1.69922,1.875 -0.8789,1.1132813 -1.875,2.63671878 -0.99609,1.52343752 -1.75781,3.16406252 -0.29297,0.5859375 -0.52734,1.171875 -0.23438,0.5859375 -0.46875,1.2304687 1.52344,-0.2929687 3.16406,-0.703125 1.69922,-0.46875 2.51953,-0.9960937 0.41016,-0.2929688 0.87891,-1.171875 0.52734,-0.8789063 0.9375,-1.93359377 0.46875,-1.11328125 0.76172,-2.28515623 0.29297,-1.2304688 0.29297,-2.109375 0,-0.6445313 -0.23438,-1.1132813 -0.23437,-0.46875 -0.70312,-0.46875 z M 160.57657,11.35 q -1.05469,0.761719 -2.46094,1.757813 -1.40625,0.9375 -2.98828,1.992187 -1.52344,0.996094 -3.10547,1.992188 -1.52344,0.996094 -2.87109,1.757812 -1.28907,0.820313 -2.22657,1.289063 -0.9375,0.527344 -1.23046,0.585937 -0.17579,0.05859 -0.46875,0.05859 -0.9961,0 -2.63672,-0.527344 -1.58203,-0.46875 -3.22266,-1.230468 -1.64062,-0.703125 -3.04687,-1.523438 -1.34766,-0.878906 -1.81641,-1.640625 -0.35156,-0.644531 -0.52734,-1.640625 -0.11719,-1.054687 -0.11719,-2.402344 0,-1.171875 0.11719,-2.4609371 0.11718,-1.3476563 0.29296,-2.5195313 0.23438,-1.2304687 0.46875,-2.2265625 0.29297,-0.9960937 0.64454,-1.5820312 0.41015,-0.8203125 1.28906,-2.05078127 0.8789,-1.2890625 1.99219,-2.63671873 1.17187,-1.40625 2.46093,-2.8125 1.28907,-1.40625 2.57813,-2.5195313 1.28906,-1.171875 2.46094,-1.875 1.23046,-0.7617187 2.16796,-0.8203125 0.0586,0 0.0586,0 0.0586,-0.058594 0.17578,-0.058594 0.9375,0 1.875,0.8203125 0.9375,0.8203125 1.64062,1.9921875 0.70313,1.171875 1.11329,2.5195312 0.46875,1.2890625 0.46875,2.34375 0,0.5273438 -0.0586,0.7617188 -0.23437,0.93749998 -1.05469,2.34375 -0.82031,1.3476562 -1.8164,2.6953125 -0.9961,1.2890625 -1.9336,2.34375 -0.9375,0.9960937 -1.40625,1.3476562 -0.35156,0.2929688 -1.28906,0.5859375 -0.8789,0.234375 -2.10937,0.5273438 -1.17188,0.234375 -2.51953,0.46875 -1.34766,0.234375 -2.63672,0.4101562 -0.23438,1.1718754 -0.35157,2.0507814 -0.11718,0.820312 -0.17578,1.171875 0.11719,0.644531 0.70313,1.289062 0.58594,0.644532 1.46484,1.171875 0.87891,0.527344 1.9336,0.878907 1.11328,0.292968 2.22656,0.292968 0.23437,0 0.46875,0 0.29297,0 0.52734,-0.05859 1.05469,-0.292969 2.8125,-1.347657 1.75781,-1.054687 3.63281,-2.402343 1.9336,-1.347657 3.63282,-2.7539066 1.75781,-1.4648438 2.69531,-2.578125 z" /></g></g></svg>
