<?xml version="1.0" encoding="UTF-8" standalone="no"?>
<svg
   xmlns:dc="http://purl.org/dc/elements/1.1/"
   xmlns:cc="http://creativecommons.org/ns#"
   xmlns:rdf="http://www.w3.org/1999/02/22-rdf-syntax-ns#"
   xmlns:svg="http://www.w3.org/2000/svg"
   xmlns="http://www.w3.org/2000/svg"
   id="svg21"
   xml:space="preserve"
   viewBox="5 5 1001 203"
   height="208"
   width="1007"
   version="1.1"><metadata
     id="metadata25"><rdf:RDF><cc:Work
         rdf:about=""><dc:format>image/svg+xml</dc:format><dc:type
           rdf:resource="http://purl.org/dc/dcmitype/StillImage" /></cc:Work></rdf:RDF></metadata><desc
     id="desc2">Created with Fabric.js 2.4.6</desc><defs
     id="defs4" /><g
     id="g13"
     transform="matrix(10.03,0,0,2.04,503.68,104.82)"><linearGradient
       y2="0"
       x2="50"
       y1="0"
       x1="-50"
       gradientUnits="userSpaceOnUse"
       id="SVGID_34"><stop
         id="stop6"
         style="stop-color:rgb(5,146,202);stop-opacity: 0.68"
         offset="60%" /><stop
         id="stop8"
         style="stop-color:rgb(255,255,255);stop-opacity: 1"
         offset="100%" /></linearGradient><path
       id="rect11"
       d="M -50,-50 H 50 V 50 H -50 Z"
       style="opacity:1;fill:url(#SVGID_34);fill-rule:nonzero;stroke:#000000;stroke-width:0;stroke-linecap:butt;stroke-linejoin:miter;stroke-miterlimit:4;stroke-dasharray:none;stroke-dashoffset:0" /></g><g
     id="g19"
     transform="translate(213.46,100.76)"><g
       id="text17"
       style="font-style:normal;font-weight:normal;font-size:60px;font-family:Miniver;white-space:pre;opacity:1;fill:#f9fafd;fill-rule:nonzero;stroke:none;stroke-width:1;stroke-linecap:butt;stroke-linejoin:miter;stroke-miterlimit:4;stroke-dasharray:none;stroke-dashoffset:0"
       aria-label="product"><path
         id="path28"
         style=""
         d="m -86.073906,16.857813 q 0.644531,-0.117188 1.523438,-1.230469 0.878906,-1.171875 1.816406,-2.871094 0.996094,-1.699218 1.933594,-3.7499996 0.9375,-2.109375 1.640625,-4.21875 0.761718,-2.109375 1.230468,-3.98437502 0.46875,-1.93359378 0.46875,-3.28124998 0,-0.5273438 -0.117187,-1.1132813 -0.527344,-1.5234375 -1.464844,-2.2851562 -4.101562,0.9375 -6.914062,3.1640625 -2.8125,2.22656248 -3.808594,5.390625 -0.234375,0.7617187 -0.527344,1.171875 0,0.46875 -0.05859,0.8789062 -0.05859,0.4101563 -0.175781,0.8789063 -0.175781,0.9375 -0.527344,2.2265625 -0.292968,1.2304687 -0.761718,2.7539066 0.175781,0.996093 0.644531,2.109375 0.527344,1.113281 1.230469,2.050781 0.703125,0.9375 1.523437,1.582031 0.878906,0.585938 1.816406,0.585938 0.351563,0 0.527344,-0.05859 z m 3.75,-26.4257814 q 0.292969,-0.1171875 0.585938,-0.1171875 0.351562,0 0.703125,0 1.113281,0 2.578125,0.4101563 1.523437,0.3515625 2.871093,1.0546875 1.347657,0.703125 2.226563,1.7578125 0.9375,0.9960937 0.9375,2.2851562 0,0.703125 -0.117188,1.875 -0.117187,1.1132813 -0.410156,2.63671878 -0.292969,1.46484372 -0.761719,3.22265622 -0.410156,1.6992188 -1.054687,3.515625 -0.703125,2.1679688 -1.699219,4.2773434 -0.996094,2.109375 -2.167969,3.867188 -1.113281,1.757812 -2.402343,2.988281 -1.230469,1.230469 -2.519532,1.582031 -0.996093,0.351563 -1.816406,0.46875 -0.820312,0.117188 -1.640625,0.117188 -2.871094,0 -4.628906,-1.289063 -1.757813,-1.289062 -2.109375,-2.695312 -1.40625,3.984375 -2.988281,8.261719 -1.523438,4.277343 -2.8125,8.085937 -1.347652,3.867188 -2.226562,6.738281 -0.87891,2.929688 -0.87891,4.101563 v 0.117187 l -4.57031,0.175782 q -0.41016,-0.351563 -0.41016,-1.640625 0,-2.226563 1.23047,-6.679688 1.23047,-4.453125 3.51563,-10.078125 0.99609,-2.460937 2.28515,-5.507812 1.230473,-3.046875 2.28516,-6.328125 1.113282,-3.28125 1.875,-6.6210941 0.761719,-3.3398438 0.761719,-6.38671877 0,-0.46875 0,-0.87890625 0,-0.41015625 -0.05859,-0.82031248 -0.175781,-1.9921875 -0.410156,-3.5742188 -0.234375,-1.5820312 -0.703125,-2.34375 l 3.75,-2.7539062 q 0.644531,1.1132812 1.113281,2.4023437 0.527344,1.2304688 0.820313,2.2851563 0.351562,1.2304687 0.585937,2.4609375 0.820313,-1.0546875 1.933594,-2.1679688 1.113281,-1.1132812 2.226563,-2.0507812 1.171875,-0.9960938 2.226562,-1.6992188 1.113281,-0.7617187 1.875,-1.0546875 z" /><path
         id="path30"
         style=""
         d="m -38.78875,12.697657 q -0.644531,1.230468 -1.582031,2.460937 -0.9375,1.230469 -2.167969,2.34375 -1.171875,1.054688 -2.578125,1.816406 -1.40625,0.820313 -2.929687,1.113282 -0.644531,0.117187 -1.230469,0.175781 -0.527344,0.05859 -1.113281,0.05859 -2.519531,0 -4.394531,-1.054688 -1.875,-0.996094 -2.109375,-3.105469 v -0.585937 q 0,-1.289063 0.234375,-3.632813 0.292968,-2.4023434 0.644531,-5.0390621 0.410156,-2.6953125 0.820312,-5.2734375 0.410157,-2.63671877 0.703125,-4.453125 l -3.691406,-1.640625 -9.667969,24.1406246 -5.097656,-0.761718 q 0.351563,-0.820313 1.347656,-2.988282 0.996094,-2.167968 2.226563,-4.804687 1.230469,-2.6367189 2.402344,-5.2148439 1.230468,-2.6367187 1.992187,-4.3359375 0.644531,-1.58203122 1.40625,-3.8671875 0.761719,-2.2851562 1.40625,-4.5117187 0.644531,-2.2851563 1.054688,-4.1015624 0.410156,-1.816406 0.410156,-2.460938 l 5.15625,1.289063 q -0.175781,0.234375 -0.234375,0.527344 -0.05859,0.234375 -0.05859,0.527343 0,0.7031254 0.234375,1.4062504 0.292969,0.6445312 0.644531,1.2304687 0.410157,0.5273438 0.878907,0.8789063 0.527343,0.3515625 0.996093,0.3515625 0.351563,0 0.644532,-0.2929688 0.351562,-0.3515625 0.46875,-1.171875 0.05859,-0.3515625 0.46875,-0.6445312 0.46875,-0.3515625 0.996093,-0.5859375 0.585938,-0.2929688 1.171875,-0.4101563 0.644532,-0.1757811 1.054688,-0.1757811 0.585937,0 0.644531,0.2343749 0.292969,0.4101562 0.527344,0.9960937 0.292969,0.5273438 0.292969,1.171875 0,0.6445313 -0.292969,1.2304688 -0.234375,0.5859375 -0.878906,1.0546875 -0.9375,0.703125 -1.640625,2.2851562 -0.703125,1.5820313 -1.230469,3.63281253 -0.46875,2.05078127 -0.703125,4.39453127 -0.234375,2.34375 -0.234375,4.6289062 0,2.2265629 0.234375,4.2773439 0.234375,2.050781 0.761719,3.398437 1.816406,-0.351562 3.164062,-0.878906 1.347656,-0.527344 2.402344,-1.347656 1.113281,-0.878906 1.992187,-2.050781 0.9375,-1.230469 1.816407,-2.9882816 z" /><path
         id="path32"
         style=""
         d="m -32.812187,17.033594 q 0.234375,0.05859 0.703125,0.05859 1.757812,0 3.164062,-0.9375 1.40625,-0.9375 2.460938,-2.34375 1.054687,-1.40625 1.757812,-2.988281 0.761719,-1.6406254 1.113282,-2.9882816 0.292968,-0.7617188 0.644531,-2.4023438 0.351562,-1.6992187 0.644531,-3.6328125 -0.996094,-0.3515625 -2.050781,-1.17187497 -0.996094,-0.87890625 -1.875,-1.99218753 -0.878906,-1.1132812 -1.464844,-2.4023437 -0.527344,-1.2890625 -0.527344,-2.4609375 0,-0.4101563 0.05859,-0.6445313 -1.347656,0.8203125 -2.578125,1.9335938 -1.171875,1.1132812 -2.167969,2.4023437 -0.996093,1.2304688 -1.699218,2.63671878 -0.703125,1.34765622 -0.996094,2.63671872 -0.351563,1.3476563 -0.644531,3.28125 -0.292969,1.875 -0.292969,3.8671875 0,1.3476564 0.175781,2.5781254 0.175781,1.230468 0.585938,2.226562 0.46875,0.9375 1.171875,1.582031 0.761718,0.644532 1.816406,0.761719 z m 9.902344,-23.7304686 q -0.644532,0 -0.9375,0.4101562 -0.292969,0.4101563 -0.292969,0.9960938 0,0.9960937 0.644531,2.0507812 0.644531,0.9960938 1.699219,1.40625 0.05859,-0.5273437 0.05859,-0.9960937 0,-0.46875 0,-0.9375 0,-1.3476563 -0.234375,-2.109375 -0.234375,-0.8203125 -0.878907,-0.8203125 z m 18.8085933,5.91796873 q -2.8125,2.28515627 -5.4492187,3.33984377 -2.6367186,1.0546875 -4.6289066,1.0546875 -1.523437,0 -3.457031,-0.6445313 -0.644531,2.7539063 -1.582031,5.5664063 -0.878906,2.8124996 -1.992188,5.2148436 -1.054687,2.34375 -2.285156,3.984375 -1.171875,1.640625 -2.402344,2.050781 -1.347656,0.527344 -2.929687,0.761719 -1.582031,0.234375 -3.164063,0.234375 -2.636718,0 -4.980468,-0.761719 -2.285157,-0.761718 -3.105469,-2.460937 -0.46875,-0.996094 -0.761719,-2.871094 -0.292969,-1.875 -0.292969,-4.101562 0,-1.7578129 0.175782,-3.6328129 0.175781,-1.9335937 0.46875,-3.6914062 0.351562,-1.7578125 0.820312,-3.22265627 0.527344,-1.52343753 1.171875,-2.51953123 0.996094,-1.640625 2.519531,-3.28125 1.523438,-1.6992188 3.28125,-3.046875 1.816407,-1.3476564 3.75,-2.2265624 1.933594,-0.878906 3.808594,-0.878906 h 0.175781 l 0.175782,1.699218 q 0.9375,-0.351562 1.992187,-0.351562 2.167969,0 3.808594,1.4062499 1.699219,1.3476562 2.34375,3.4570312 0.117187,0.46875 0.117187,1.5820313 0,0.8203125 -0.05859,1.6992187 0,0.8789063 -0.05859,1.3476563 0.292969,0.11718748 0.644531,0.17578123 0.585938,0.17578125 1.816406,0.17578125 0.761719,0 1.875,-0.1171875 1.171875,-0.17578128 2.4609378,-0.52734378 1.3476563,-0.4101562 2.7539063,-1.0546875 1.40625,-0.703125 2.6953125,-1.8164062 z" /><path
         id="path34"
         style=""
         d="m -4.8043747,15.861719 q 0.703125,0 1.7578125,-0.703125 1.0546875,-0.703125 2.28515626,-1.816406 1.2890625,-1.171875 2.63671874,-2.578125 1.3476563,-1.4648439 2.578125,-2.9296876 0.46875,-1.9921875 1.1132813,-4.8046875 0.6445312,-2.87109377 1.4648437,-6.1523438 -0.5859375,-1.2890625 -1.5234375,-2.1679687 -0.9375,-0.8789063 -1.640625,-0.8789063 -0.2929687,0 -0.4101562,0.1171875 -0.234375,0.1757813 -1.0546875,1.1132813 -0.8203125,0.8789062 -1.87500004,2.2265625 -1.0546875,1.3476562 -2.28515626,2.98828123 -1.171875,1.64062497 -2.2265625,3.22265627 -0.9960937,1.5820312 -1.7578125,2.9882812 -0.7617187,1.3476563 -0.8789062,2.1679688 -0.1171875,0.8203125 -0.234375,1.6992191 -0.1171875,0.820312 -0.1171875,1.640625 0,1.523437 0.4101562,2.636718 0.46875,1.113282 1.640625,1.230469 z M 18.750313,-22.282812 q -0.996094,1.113281 -2.109375,3.28125 -1.113281,2.167969 -2.226563,5.039062 -1.054687,2.871094 -2.109375,6.2695316 -0.996093,3.3398438 -1.816406,6.79687503 1.347656,-2.51953123 2.8125,-5.50781253 1.464844,-2.9882812 2.636719,-5.9179691 1.171875,-2.929687 1.933594,-5.566406 0.820312,-2.636719 0.878906,-4.394531 z M 8.7893753,8.6546879 q -0.1171875,1.0546875 -0.1757812,2.1093751 -0.058594,0.996094 -0.058594,1.992187 0,2.695313 0.5273438,4.511719 0.9374999,-0.351562 2.2851559,-0.996094 1.40625,-0.644531 2.929688,-1.464843 1.523437,-0.820313 3.105469,-1.757813 1.582031,-0.996094 2.988281,-1.933594 1.40625,-0.9375 2.460937,-1.8164059 1.113282,-0.9375 1.699219,-1.640625 l 0.644531,4.2187499 q -0.644531,0.878906 -2.34375,2.460938 -1.699218,1.582031 -3.691406,3.164062 -1.992187,1.523438 -3.984375,2.636719 -1.933594,1.171875 -3.105469,1.171875 h -0.117187 q -1.171875,0 -2.5195314,-0.292969 Q 8.0862503,20.725 6.9143753,20.197657 5.7425003,19.728907 4.9221878,19.025782 4.1604691,18.322657 4.1604691,17.502344 q -0.058594,-0.703125 -0.058594,-1.757812 0,-1.054688 -0.058594,-2.050782 -1.3476563,1.347657 -2.7539063,2.578125 -1.40624999,1.171875 -2.7539062,2.050782 -1.2890625,0.878906 -2.5195313,1.40625 -1.171875,0.527343 -2.1679687,0.527343 -0.46875,0 -0.6445313,-0.05859 -1.0546875,-0.234375 -1.9335937,-1.054688 -0.8789063,-0.761719 -1.5234371,-1.933594 -0.585938,-1.171875 -0.9375,-2.578125 -0.351563,-1.464843 -0.351563,-2.988281 0,-2.1093749 0.703125,-3.9843749 0.46875,-1.2304687 1.4062501,-2.9882812 0.9375,-1.7578125 2.109375,-3.6328125 1.2304687,-1.93359377 2.578125,-3.8671875 1.40625,-1.9921875 2.8125,-3.515625 1.40624996,-1.5820313 2.69531246,-2.6367188 1.34765624,-1.0546871 2.46093754,-1.2304691 0.2929687,-0.05859 0.5273437,-0.05859 0.234375,0 0.46875,0 1.5234375,0 2.5195313,0.5859371 1.0546875,0.5859375 1.6992187,1.2890625 0.7617188,-2.8710936 1.5820312,-5.6249996 0.878906,-2.8125 1.640625,-5.097657 0.820313,-2.34375 1.523438,-3.984375 0.761718,-1.699218 1.40625,-2.402343 0.820312,-0.820313 1.699218,-1.113282 0.878907,-0.351562 1.816407,-0.351562 0.996093,0 1.933593,0.410156 0.9375,0.351563 1.640625,0.9375 0.761719,0.527344 1.171875,1.230469 0.46875,0.703125 0.46875,1.347656 v 0.175781 q -0.05859,0.644532 -0.820312,2.8125 -0.761719,2.167969 -1.992188,5.214844 -1.171875,2.988281 -2.695312,6.5039064 -1.523438,3.515625 -3.164063,6.796875 -1.582031,3.28125 -3.105468,6.0351562 -1.523438,2.6953125 -2.7539067,4.1601563 z" /><path
         id="path36"
         style=""
         d="m 46.172188,-6.4039059 q -1.113281,0.8203125 -1.347656,1.8164063 -0.175782,0.9960937 -0.585938,2.2851562 0.46875,-0.6445312 1.113281,-1.6992187 0.703125,-1.0546875 0.820313,-2.4023438 z m 8.964844,19.3945309 q -4.980469,5.15625 -9.433594,6.269532 -1.582031,0.410156 -2.929688,0.410156 -2.34375,0 -3.28125,-1.171875 -0.9375,-1.230469 -0.996093,-2.929688 v -0.703125 q 0,-0.644531 0,-1.523437 0,-0.9375 0.05859,-2.109375 -2.519531,3.164062 -4.804687,5.390625 -2.285156,2.167969 -3.632813,2.460937 -0.820312,0.117188 -1.582031,0.175782 -0.761719,0.117187 -1.582031,0.117187 -1.230469,0 -2.34375,-0.234375 -1.054688,-0.175781 -1.875,-0.644531 -0.820313,-0.527344 -1.289063,-1.289063 -0.46875,-0.761718 -0.46875,-1.933593 v -0.234375 q 0,-0.292969 0.175782,-1.523438 0.117187,-1.289062 0.703125,-3.9843749 0.644531,-2.6953125 1.933593,-7.1484375 1.289063,-4.453125 3.574219,-11.1914062 l 5.507813,0.2929687 q -2.050782,4.6875 -3.339844,8.37890628 -1.230469,3.63281252 -1.933594,6.38671872 -0.644531,2.6953125 -0.878906,4.5703129 -0.234375,1.875 -0.234375,3.046875 0,0.644531 0,1.054687 0.05859,0.351563 0.117187,0.644531 0.05859,0.292969 0.117188,0.46875 1.347656,-0.703125 2.988281,-1.933593 1.640625,-1.289063 3.28125,-2.871094 1.640625,-1.5820314 3.222656,-3.3398439 1.582032,-1.8164062 2.871094,-3.5742187 0.175781,-1.9921875 0.46875,-3.92578127 0.292969,-1.93359373 0.703125,-3.57421873 0.410156,-1.640625 0.878906,-2.9296875 0.46875,-1.2890625 1.113282,-1.9335938 1.054687,-0.9960937 2.519531,-0.9960937 0.878906,0 1.699219,0.3515625 0.820312,0.2929687 1.464843,0.8203125 0.644532,0.46875 1.054688,1.1132812 0.410156,0.6445313 0.410156,1.2890625 v 0.1757813 q -0.05859,0.4101562 -0.527344,1.40625 -0.46875,0.9375 -1.347656,2.34375 -0.820312,1.40624998 -1.933594,3.1054687 -1.054687,1.640625 -2.34375,3.4570313 -0.292968,1.5234375 -0.46875,3.1054687 -0.175781,1.5234375 -0.175781,3.0468749 0,1.699219 0.292969,3.164063 0.292969,1.40625 0.9375,2.402343 1.464844,-0.644531 3.222656,-1.933593 1.757813,-1.347657 3.339844,-2.695313 1.640625,-1.40625 2.871094,-2.5195311 1.230468,-1.171875 1.582031,-1.4648438 z" /><path
         id="path38"
         style=""
         d="m 71.133125,-3.7085934 q -0.117187,0.1757813 -0.585937,0.8203125 -0.46875,0.6445313 -0.46875,1.1132813 0,0.5273437 0.644531,0.5273437 h 0.05859 q 0.9375,-0.058594 0.9375,-0.703125 0,-0.46875 -0.234375,-0.9375 -0.234375,-0.5273437 -0.351563,-0.8203125 z M 82.969063,10.764063 q -0.46875,0.703125 -1.875,1.816406 -1.347656,1.054688 -3.222656,2.226563 -1.816407,1.113281 -3.984375,2.285156 -2.109375,1.113281 -4.101563,2.050781 -1.992187,0.9375 -3.632812,1.464844 -1.582032,0.585937 -2.34375,0.585937 -1.171875,0 -3.105469,-0.527343 -1.933594,-0.46875 -3.75,-1.464844 -1.816406,-0.9375 -3.164063,-2.285156 -1.289062,-1.40625 -1.289062,-3.105469 V 13.69375 q 0.05859,-1.757812 0.527344,-4.1015621 0.527343,-2.34375 1.289062,-4.7460938 0.820313,-2.4023437 1.699219,-4.62890622 0.9375,-2.28515628 1.757812,-3.80859378 0.761719,-1.40625 1.875,-2.6367187 1.113282,-1.2890625 2.285157,-2.2265625 1.230468,-0.9960938 2.460937,-1.5820309 1.230469,-0.585938 2.285156,-0.585938 0.117188,0 0.234375,0.05859 0.175782,0 0.292969,0 0.761719,0.117187 1.757813,0.7617186 0.996093,0.5859375 1.992187,1.40625 0.644531,-0.6445312 1.289063,-1.2304687 0.644531,-0.5859379 1.289062,-0.9960939 l 2.34375,3.5156251 -2.050781,1.875 q 0.527344,0.9375 0.820312,1.875 0.351563,0.8789063 0.351563,1.7578125 0,0.2929688 -0.05859,0.5273438 0,0.23437498 -0.05859,0.52734373 -0.46875,1.69921877 -1.933593,2.51953127 -1.464844,0.7617187 -2.929688,0.7617187 -1.171875,0 -1.992187,-0.4101562 -0.820313,-0.46875 -1.054688,-1.2304688 -0.117187,-0.46874997 -0.117187,-0.76171872 0,-0.99609375 0.410156,-2.40234378 0.46875,-1.40625 1.230469,-2.8710937 -0.703125,-0.5859375 -1.40625,-0.9960938 -0.703125,-0.4101562 -1.289063,-0.46875 -0.410156,0 -1.230469,1.1132813 -0.820312,1.1132812 -1.816406,2.9296875 -0.9375,1.75781248 -1.992187,4.0429687 -1.054688,2.2265625 -1.933594,4.5117188 -0.820313,2.2265625 -1.347656,4.3359376 -0.527344,2.050781 -0.527344,3.515625 0,1.464844 0.46875,1.933594 0.351562,0.175781 0.878906,0.292968 0.996094,0.292969 2.695313,0.292969 1.40625,0 3.75,-0.527344 2.34375,-0.585937 5.273437,-1.816406 2.929688,-1.230469 6.210938,-3.222656 3.339843,-1.9921876 6.796875,-4.9218751 z" /><path
         id="path40"
         style=""
         d="m 87.363594,15.627344 q 0.351563,0.175781 0.9375,0.175781 1.464844,0 3.339844,-1.054687 1.933594,-1.054688 3.75,-2.460938 1.816406,-1.464843 3.339844,-2.9296871 1.523438,-1.5234375 2.226558,-2.34375 l 1.99219,3.7500001 q -0.58594,0.703125 -2.34375,2.285156 -1.699217,1.582031 -3.749998,3.222656 -2.050782,1.582032 -3.984375,2.8125 -1.933594,1.289063 -2.929688,1.347657 -0.117187,0 -0.175781,0 -0.05859,0.05859 -0.175781,0.05859 -1.054688,0 -2.578125,-0.46875 Q 85.547188,19.611719 84.140938,18.85 82.734688,18.029688 81.68,16.916407 80.625313,15.803125 80.508125,14.514063 v -0.234375 q 0,-0.9375 0.351563,-3.046875 0.410156,-2.1093751 1.054687,-4.8632814 0.703125,-2.8125 1.523438,-6.03515622 0.878906,-3.28124998 1.816406,-6.50390628 -2.8125,0.1757813 -4.628906,0.8203125 -1.816406,0.5859375 -2.578125,0.703125 l -0.410156,-4.2773437 q 2.460937,-0.5859375 4.453125,-0.9375 1.992187,-0.4101559 4.394531,-0.4687499 1.054687,-3.632813 2.050781,-6.386719 0.996094,-2.8125 1.640625,-3.984375 l 5.332031,0.175781 q -0.644531,0.996094 -1.757812,3.867188 -1.113281,2.871094 -2.285156,6.7968749 1.875,0.4101562 3.867187,0.9375 1.992188,0.5273437 3.75,0.5273437 1.054686,0 2.109376,-0.3515625 l 0.64453,4.21875 q -0.29297,0.058594 -0.64453,0.058594 -0.29297,0 -0.64453,0 -1.699221,0 -4.042971,-0.3515625 -2.34375,-0.4101563 -4.980469,-1.0546875 -0.527343,-0.058594 -1.230468,-0.1757813 -0.761719,2.6367188 -1.464844,5.39062503 Q 88.183907,2.0335941 87.656563,4.5531254 87.129219,7.0140629 86.777657,9.1820316 86.484688,11.35 86.484688,12.873438 q 0,1.171875 0.175781,1.933594 0.234375,0.703125 0.703125,0.820312 z" /></g></g></svg>
