<?xml version="1.0" encoding="UTF-8" standalone="no"?>
<svg
   xmlns:dc="http://purl.org/dc/elements/1.1/"
   xmlns:cc="http://creativecommons.org/ns#"
   xmlns:rdf="http://www.w3.org/1999/02/22-rdf-syntax-ns#"
   xmlns:svg="http://www.w3.org/2000/svg"
   xmlns="http://www.w3.org/2000/svg"
   id="svg21"
   xml:space="preserve"
   viewBox="5 5 1001 203"
   height="208"
   width="1007"
   version="1.1"><metadata
     id="metadata25"><rdf:RDF><cc:Work
         rdf:about=""><dc:format>image/svg+xml</dc:format><dc:type
           rdf:resource="http://purl.org/dc/dcmitype/StillImage" /></cc:Work></rdf:RDF></metadata><desc
     id="desc2">Created with Fabric.js 2.4.6</desc><defs
     id="defs4" /><g
     id="g13"
     transform="matrix(10.03,0,0,2.04,503.68,104.82)"><linearGradient
       y2="0"
       x2="50"
       y1="0"
       x1="-50"
       gradientUnits="userSpaceOnUse"
       id="SVGID_38"><stop
         id="stop6"
         style="stop-color:rgb(5,146,202);stop-opacity: 0.68"
         offset="60%" /><stop
         id="stop8"
         style="stop-color:rgb(255,255,255);stop-opacity: 1"
         offset="100%" /></linearGradient><path
       id="rect11"
       d="M -50,-50 H 50 V 50 H -50 Z"
       style="opacity:1;fill:url(#SVGID_38);fill-rule:nonzero;stroke:#000000;stroke-width:0;stroke-linecap:butt;stroke-linejoin:miter;stroke-miterlimit:4;stroke-dasharray:none;stroke-dashoffset:0" /></g><g
     id="g19"
     transform="translate(249.06,100.76)"><g
       id="text17"
       style="font-style:normal;font-weight:normal;font-size:60px;font-family:Miniver;white-space:pre;opacity:1;fill:#f9fafd;fill-rule:nonzero;stroke:none;stroke-width:1;stroke-linecap:butt;stroke-linejoin:miter;stroke-miterlimit:4;stroke-dasharray:none;stroke-dashoffset:0"
       aria-label="technology"><path
         id="path28"
         style=""
         d="m -126.00984,15.627344 q 0.35156,0.175781 0.9375,0.175781 1.46484,0 3.33984,-1.054687 1.9336,-1.054688 3.75,-2.460938 1.81641,-1.464843 3.33985,-2.9296871 1.52343,-1.5234375 2.22656,-2.34375 l 1.99219,3.7500001 q -0.58594,0.703125 -2.34375,2.285156 -1.69922,1.582031 -3.75,3.222656 -2.05079,1.582032 -3.98438,2.8125 -1.93359,1.289063 -2.92969,1.347657 -0.11718,0 -0.17578,0 -0.0586,0.05859 -0.17578,0.05859 -1.05469,0 -2.57812,-0.46875 -1.46485,-0.410156 -2.8711,-1.171875 -1.40625,-0.820312 -2.46094,-1.933593 -1.05468,-1.113282 -1.17187,-2.402344 v -0.234375 q 0,-0.9375 0.35156,-3.046875 0.41016,-2.1093751 1.05469,-4.8632814 0.70312,-2.8125 1.52344,-6.03515622 0.8789,-3.28124998 1.8164,-6.50390628 -2.8125,0.1757813 -4.6289,0.8203125 -1.81641,0.5859375 -2.57813,0.703125 l -0.41015,-4.2773437 q 2.46093,-0.5859375 4.45312,-0.9375 1.99219,-0.4101559 4.39453,-0.4687499 1.05469,-3.632813 2.05078,-6.386719 0.9961,-2.8125 1.64063,-3.984375 l 5.33203,0.175781 q -0.64453,0.996094 -1.75781,3.867188 -1.11328,2.871094 -2.28516,6.7968749 1.875,0.4101562 3.86719,0.9375 1.99219,0.5273437 3.75,0.5273437 1.05469,0 2.10937,-0.3515625 l 0.64453,4.21875 q -0.29296,0.058594 -0.64453,0.058594 -0.29297,0 -0.64453,0 -1.69922,0 -4.04297,-0.3515625 -2.34375,-0.4101563 -4.98047,-1.0546875 -0.52734,-0.058594 -1.23046,-0.1757813 -0.76172,2.6367188 -1.46485,5.39062503 -0.64453,2.69531247 -1.17187,5.21484377 -0.52735,2.4609375 -0.87891,4.6289062 -0.29297,2.1679684 -0.29297,3.6914064 0,1.171875 0.17578,1.933594 0.23438,0.703125 0.70313,0.820312 z" /><path
         id="path30"
         style=""
         d="m -101.1075,-5.3492184 q -0.46875,0 -1.28906,0.703125 -0.76172,0.703125 -1.69922,1.875 -0.87891,1.1132813 -1.875,2.63671878 -0.99609,1.52343752 -1.75781,3.16406252 -0.29297,0.5859375 -0.52735,1.171875 -0.23437,0.5859375 -0.46875,1.2304687 1.52344,-0.2929687 3.16407,-0.703125 1.69922,-0.46875 2.51953,-0.9960937 0.41015,-0.2929688 0.8789,-1.171875 0.52735,-0.8789063 0.9375,-1.93359377 0.46875,-1.11328125 0.76172,-2.28515623 0.29297,-1.2304688 0.29297,-2.109375 0,-0.6445313 -0.23437,-1.1132813 -0.23438,-0.46875 -0.70313,-0.46875 z M -88.099686,11.35 q -1.054687,0.761719 -2.460937,1.757813 -1.40625,0.9375 -2.988281,1.992187 -1.523438,0.996094 -3.105469,1.992188 -1.523438,0.996094 -2.871094,1.757812 -1.289063,0.820313 -2.226563,1.289063 -0.9375,0.527344 -1.23047,0.585937 -0.17578,0.05859 -0.46875,0.05859 -0.99609,0 -2.63672,-0.527344 -1.58203,-0.46875 -3.22265,-1.230468 -1.64063,-0.703125 -3.04688,-1.523438 -1.34765,-0.878906 -1.8164,-1.640625 -0.35157,-0.644531 -0.52735,-1.640625 -0.11719,-1.054687 -0.11719,-2.402344 0,-1.171875 0.11719,-2.4609371 0.11719,-1.3476563 0.29297,-2.5195313 0.23438,-1.2304687 0.46875,-2.2265625 0.29297,-0.9960937 0.64453,-1.5820312 0.41016,-0.8203125 1.28906,-2.05078127 0.87891,-1.2890625 1.99219,-2.63671873 1.17188,-1.40625 2.46094,-2.8125 1.28906,-1.40625 2.57812,-2.5195313 1.28907,-1.171875 2.46094,-1.875 1.23047,-0.7617187 2.16797,-0.8203125 0.0586,0 0.0586,0 0.0586,-0.058594 0.17579,-0.058594 0.937496,0 1.874996,0.8203125 0.9375,0.8203125 1.640625,1.9921875 0.703125,1.171875 1.113281,2.5195312 0.46875,1.2890625 0.46875,2.34375 0,0.5273438 -0.05859,0.7617188 -0.234375,0.93749998 -1.054687,2.34375 -0.820313,1.3476562 -1.816407,2.6953125 -0.996093,1.2890625 -1.933593,2.34375 -0.937501,0.9960937 -1.406251,1.3476562 -0.35156,0.2929688 -1.28906,0.5859375 -0.87891,0.234375 -2.10938,0.5273438 -1.17187,0.234375 -2.51953,0.46875 -1.34765,0.234375 -2.63672,0.4101562 -0.23437,1.1718754 -0.35156,2.0507814 -0.11719,0.820312 -0.17578,1.171875 0.11719,0.644531 0.70312,1.289062 0.58594,0.644532 1.46485,1.171875 0.8789,0.527344 1.93359,0.878907 1.11328,0.292968 2.22656,0.292968 0.23438,0 0.46875,0 0.29297,0 0.52735,-0.05859 1.05469,-0.292969 2.8125,-1.347657 1.757811,-1.054687 3.632811,-2.402343 1.933593,-1.347657 3.632812,-2.7539066 1.757813,-1.4648438 2.695313,-2.578125 z" /><path
         id="path32"
         style=""
         d="m -73.099686,-3.7085934 q -0.117187,0.1757813 -0.585937,0.8203125 -0.46875,0.6445313 -0.46875,1.1132813 0,0.5273437 0.644531,0.5273437 h 0.05859 q 0.9375,-0.058594 0.9375,-0.703125 0,-0.46875 -0.234375,-0.9375 -0.234375,-0.5273437 -0.351563,-0.8203125 z m 11.835938,14.4726564 q -0.46875,0.703125 -1.875,1.816406 -1.347656,1.054688 -3.222656,2.226563 -1.816407,1.113281 -3.984375,2.285156 -2.109375,1.113281 -4.101563,2.050781 -1.992187,0.9375 -3.632812,1.464844 -1.582032,0.585937 -2.34375,0.585937 -1.171875,0 -3.105469,-0.527343 -1.933594,-0.46875 -3.75,-1.464844 -1.816406,-0.9375 -3.164063,-2.285156 -1.289062,-1.40625 -1.289062,-3.105469 V 13.69375 q 0.05859,-1.757812 0.527344,-4.1015621 0.527343,-2.34375 1.289062,-4.7460938 0.820313,-2.4023437 1.699219,-4.62890622 0.9375,-2.28515628 1.757812,-3.80859378 0.761719,-1.40625 1.875,-2.6367187 1.113282,-1.2890625 2.285157,-2.2265625 1.230468,-0.9960938 2.460937,-1.5820309 1.230469,-0.585938 2.285156,-0.585938 0.117188,0 0.234375,0.05859 0.175782,0 0.292969,0 0.761719,0.117187 1.757813,0.7617186 0.996093,0.5859375 1.992187,1.40625 0.644531,-0.6445312 1.289063,-1.2304687 0.644531,-0.5859379 1.289062,-0.9960939 l 2.34375,3.5156251 -2.050781,1.875 q 0.527344,0.9375 0.820312,1.875 0.351563,0.8789063 0.351563,1.7578125 0,0.2929688 -0.05859,0.5273438 0,0.23437498 -0.05859,0.52734373 -0.46875,1.69921877 -1.933593,2.51953127 -1.464844,0.7617187 -2.929688,0.7617187 -1.171875,0 -1.992187,-0.4101562 -0.820313,-0.46875 -1.054688,-1.2304688 -0.117187,-0.46874997 -0.117187,-0.76171872 0,-0.99609375 0.410156,-2.40234378 0.46875,-1.40625 1.230469,-2.8710937 -0.703125,-0.5859375 -1.40625,-0.9960938 -0.703125,-0.4101562 -1.289063,-0.46875 -0.410156,0 -1.230469,1.1132813 -0.820312,1.1132812 -1.816406,2.9296875 -0.9375,1.75781248 -1.992187,4.0429687 -1.054688,2.2265625 -1.933594,4.5117188 -0.820313,2.2265625 -1.347656,4.3359376 -0.527344,2.050781 -0.527344,3.515625 0,1.464844 0.46875,1.933594 0.351562,0.175781 0.878906,0.292968 0.996094,0.292969 2.695313,0.292969 1.40625,0 3.75,-0.527344 2.34375,-0.585937 5.273437,-1.816406 2.929688,-1.230469 6.210938,-3.222656 3.339843,-1.9921876 6.796875,-4.9218751 z" /><path
         id="path34"
         style=""
         d="m -54.759842,-5.7007809 q 0.878906,-1.5234375 1.816406,-3.515625 0.9375,-1.9921871 1.699219,-4.0429691 0.820313,-2.050781 1.347656,-3.925781 0.527344,-1.875 0.527344,-3.164062 0,-0.703125 -0.234375,-1.289063 -0.820312,1.40625 -1.699219,3.574219 -0.820312,2.167969 -1.523437,4.511719 -0.703125,2.285156 -1.230469,4.4531246 -0.527344,2.109375 -0.703125,3.3984375 z m 24.960938,18.3398439 q -1.582032,2.34375 -3.339844,3.75 -1.699219,1.40625 -3.398438,2.226562 -1.640625,0.761719 -3.222656,0.996094 -1.523437,0.292969 -2.753906,0.292969 -0.644531,0 -1.171875,-0.05859 -0.46875,0 -0.820313,-0.05859 -0.410156,-0.05859 -0.703125,-0.175781 -1.816406,-0.585937 -2.519531,-2.050781 -0.644531,-1.464844 -0.644531,-3.515625 0,-2.050781 0.46875,-4.4531251 0.527344,-2.4023438 1.113281,-4.7460938 0.644531,-2.4023437 1.171875,-4.51171872 0.527344,-2.10937498 0.527344,-3.57421878 0,-0.46875 -0.117188,-1.0546875 -1.699218,0.5273438 -3.457031,1.5234375 -1.699219,0.9960938 -3.28125,2.28515628 -1.523437,1.23046875 -2.8125,2.75390622 -1.289062,1.4648438 -1.992187,2.9296875 -0.527344,1.0546875 -0.703125,1.0546875 0,0 -0.05859,-0.1171875 l -2.753906,13.0078124 -5.097657,-1.289062 q 0.292969,-1.347657 0.878907,-3.75 0.585937,-2.402344 1.289062,-5.4492191 0.761719,-3.1054688 1.640625,-6.5625 0.9375,-3.515625 1.875,-7.03125 0.9375,-3.515625 1.933594,-6.8554689 0.996094,-3.339844 1.933594,-6.035156 0.9375,-2.753906 1.757812,-4.628906 0.878906,-1.933594 1.523438,-2.578125 0.644531,-0.644532 1.289062,-0.878907 0.703125,-0.292968 1.347656,-0.292968 0.9375,0 1.757813,0.585937 0.878906,0.527344 1.523437,1.40625 0.644532,0.878906 0.996094,1.992188 0.410156,1.054687 0.410156,2.109375 0,0.585937 -0.351562,1.816406 -0.351563,1.230469 -0.996094,2.929687 -0.585937,1.699219 -1.40625,3.75 -0.820312,2.0507816 -1.757812,4.3359379 1.171875,-0.8789063 2.109375,-1.2890625 0.996093,-0.4101563 2.050781,-0.5273438 h 0.175781 q 0.644531,0 1.699219,0.5273438 1.113281,0.46875 2.109375,1.171875 1.054687,0.6445312 1.757812,1.3476562 0.761719,0.703125 0.761719,1.1132813 v 0.1171875 q -0.117187,1.3476562 -0.878906,3.75 -0.761719,2.34375 -1.640625,5.0390625 -0.878906,2.6953125 -1.582031,5.2734375 -0.703125,2.5781246 -0.703125,4.3945316 0,1.816406 0.878906,2.402343 0.117187,0.05859 0.351562,0.117188 0.234375,0.05859 0.996094,0.05859 0.703125,0 1.699219,-0.234375 1.054687,-0.234375 2.285156,-0.996094 1.289063,-0.761719 2.695313,-2.167969 1.464843,-1.464844 3.046875,-3.8085936 z" /><path
         id="path36"
         style=""
         d="m -29.154373,-4.5874996 q 1.582031,-0.8203125 2.8125,-1.4648438 1.054687,-0.5273437 1.933594,-0.9960937 0.9375,-0.46875 1.054687,-0.46875 0,0.2929687 0,0.46875 0.05859,0.1757812 0.05859,0.3515625 0,0.2929687 -0.05859,0.5859375 0,0.2929687 -0.05859,0.5859375 1.757813,-1.640625 3.75,-2.6953125 2.050782,-1.1132813 3.808594,-1.5820313 h 0.292969 q 0.644531,0 1.757812,0.4101563 1.113282,0.4101562 2.167969,1.0546875 1.054688,0.6445312 1.8164063,1.40625 0.8203125,0.703125 0.8203125,1.3476562 0,0.4101563 -0.46875,1.7578125 -0.4101562,1.2890625 -1.1132808,3.16406253 -0.644532,1.87499997 -1.464844,4.16015627 -0.761719,2.2265625 -1.464844,4.5117187 -0.644531,2.2265624 -1.113281,4.2773434 -0.46875,1.992188 -0.46875,3.457032 0,0.996093 0.292969,1.640625 0.292968,0.644531 0.9375,0.761718 2.167968,-0.351562 4.1601558,-1.230468 1.6992188,-0.761719 3.5742188,-2.050782 1.9335937,-1.347656 3.3984375,-3.574218 l 1.6992187,4.453125 q -1.40625,1.523437 -3.3398437,2.871093 -1.875,1.289063 -3.8671875,2.285157 -1.9921876,0.996093 -3.9843746,1.523437 -1.933594,0.585938 -3.398438,0.585938 -1.40625,0 -2.167969,-0.585938 -0.820312,-0.585937 -1.230468,-2.402344 -0.351563,-1.816406 -0.351563,-4.042968 0,-1.171875 0.05859,-2.285157 0.117187,-1.171875 0.351562,-2.34375 0.410157,-2.4023434 1.171875,-4.9218746 0.761719,-2.5195313 1.464844,-4.8046875 0.761719,-2.34375002 1.289063,-4.21875 0.527343,-1.9335938 0.585937,-3.1054688 -3.75,1.171875 -6.679687,3.8085938 -2.929688,2.63671873 -4.511719,5.9179687 -1.933594,3.9257813 -3.28125,8.2031254 -1.289063,4.21875 -2.8125,8.4375 l -5.273438,-1.347657 q 0.761719,-1.171875 1.640625,-2.988281 0.878907,-1.875 1.699219,-4.101562 0.878906,-2.226563 1.699219,-4.6289066 0.820312,-2.4023438 1.464844,-4.6289063 0.644531,-2.22656247 0.996093,-4.1601562 0.410157,-1.9335938 0.46875,-3.2226563 l -0.117187,-0.1757812 z" /><path
         id="path38"
         style=""
         d="m 5.1815643,17.033594 q 0.234375,0.05859 0.703125,0.05859 1.7578125,0 3.1640625,-0.9375 1.4062502,-0.9375 2.4609372,-2.34375 1.054688,-1.40625 1.757813,-2.988281 0.761719,-1.6406254 1.113281,-2.9882816 0.292969,-0.7617188 0.644531,-2.4023438 0.351563,-1.6992187 0.644532,-3.6328125 -0.996094,-0.3515625 -2.050782,-1.17187497 -0.996093,-0.87890625 -1.875,-1.99218753 -0.878906,-1.1132812 -1.464843,-2.4023437 -0.5273442,-1.2890625 -0.5273442,-2.4609375 0,-0.4101563 0.058594,-0.6445313 -1.3476563,0.8203125 -2.578125,1.9335938 -1.171875,1.1132812 -2.1679688,2.4023437 -0.9960937,1.2304688 -1.6992187,2.63671878 -0.703125,1.34765622 -0.9960938,2.63671872 -0.3515625,1.3476563 -0.6445312,3.28125 -0.2929688,1.875 -0.2929688,3.8671875 0,1.3476564 0.1757813,2.5781254 0.1757812,1.230468 0.5859375,2.226562 0.46875,0.9375 1.171875,1.582031 0.7617187,0.644532 1.8164062,0.761719 z M 15.083908,-6.6968746 q -0.644531,0 -0.9375,0.4101562 -0.292969,0.4101563 -0.292969,0.9960938 0,0.9960937 0.644532,2.0507812 0.644531,0.9960938 1.699218,1.40625 0.05859,-0.5273437 0.05859,-0.9960937 0,-0.46875 0,-0.9375 0,-1.3476563 -0.234375,-2.109375 -0.234375,-0.8203125 -0.878906,-0.8203125 z m 18.808594,5.91796873 q -2.8125,2.28515627 -5.449219,3.33984377 -2.636719,1.0546875 -4.628906,1.0546875 -1.523438,0 -3.457031,-0.6445313 -0.644532,2.7539063 -1.582032,5.5664063 -0.878906,2.8124996 -1.992187,5.2148436 -1.054688,2.34375 -2.285156,3.984375 -1.171875,1.640625 -2.402344,2.050781 -1.347656,0.527344 -2.9296877,0.761719 -1.5820312,0.234375 -3.1640625,0.234375 -2.6367187,0 -4.9804687,-0.761719 -2.2851563,-0.761718 -3.1054688,-2.460937 -0.46875,-0.996094 -0.7617187,-2.871094 -0.2929688,-1.875 -0.2929688,-4.101562 0,-1.7578129 0.1757813,-3.6328129 0.1757812,-1.9335937 0.46875,-3.6914062 0.3515625,-1.7578125 0.8203125,-3.22265627 0.5273437,-1.52343753 1.17187498,-2.51953123 0.99609375,-1.640625 2.51953122,-3.28125 1.5234375,-1.6992188 3.28125,-3.046875 1.8164063,-1.3476564 3.75,-2.2265624 1.9335942,-0.878906 3.8085942,-0.878906 h 0.175781 l 0.175781,1.699218 q 0.9375,-0.351562 1.992188,-0.351562 2.167968,0 3.808593,1.4062499 1.699219,1.3476562 2.34375,3.4570312 0.117188,0.46875 0.117188,1.5820313 0,0.8203125 -0.05859,1.6992187 0,0.8789063 -0.05859,1.3476563 0.292969,0.11718748 0.644532,0.17578123 0.585937,0.17578125 1.816406,0.17578125 0.761719,0 1.875,-0.1171875 1.171875,-0.17578128 2.460937,-0.52734378 1.347657,-0.4101562 2.753907,-1.0546875 1.40625,-0.703125 2.695312,-1.8164062 z" /><path
         id="path40"
         style=""
         d="m 41.158127,-19.5875 q -1.230469,1.757813 -2.226563,3.925782 -0.996093,2.167968 -1.816406,4.511718 -0.761719,2.2851566 -1.347656,4.5703129 -0.585938,2.2851562 -0.878906,4.2773437 0.820312,-1.5820312 1.757812,-3.6914062 0.9375,-2.1679688 1.816406,-4.5117184 0.878907,-2.402344 1.582032,-4.746094 0.761718,-2.34375 1.113281,-4.335938 z m 7.324219,32.460938 q -1.113282,1.40625 -1.933594,2.519531 -0.820313,1.054688 -1.640625,1.933594 -0.820313,0.820312 -1.757813,1.523437 -0.9375,0.644532 -2.167968,1.289063 -1.523438,0.703125 -3.984375,0.703125 -1.464844,0 -3.046875,-0.292969 -1.582032,-0.292969 -2.929688,-0.9375 -1.289062,-0.585937 -2.226562,-1.523437 -0.9375,-0.9375 -1.113282,-2.226563 -0.05859,-0.292969 -0.05859,-0.585937 0,-0.351563 0,-0.820313 0,-1.875 0.292968,-5.2148436 0.351563,-3.3398438 0.996094,-7.3242188 0.644531,-3.984375 1.582031,-8.203125 0.996094,-4.2773436 2.285157,-7.9687496 1.289062,-3.75 2.871093,-6.621094 1.582032,-2.871094 3.457032,-4.101563 0.644531,-0.46875 1.347656,-0.644531 0.761719,-0.175781 1.40625,-0.175781 1.640625,0 2.871094,0.9375 1.289062,0.878906 1.582031,1.757812 v 0.175782 q 0,0.644531 -0.527344,2.460937 -0.46875,1.757813 -1.347656,4.277344 -0.878906,2.460937 -2.109375,5.449219 -1.230469,2.9882809 -2.636719,6.0351559 -1.40625,3.046875 -2.988281,5.9765625 -1.523438,2.9296875 -3.105469,5.2734375 -0.05859,0.2929687 -0.234375,0.9375 -0.117187,0.6445312 -0.234375,1.5234375 -0.117187,0.8789062 -0.234375,1.9335936 -0.117187,0.996094 -0.117187,2.050781 0,1.757813 0.410156,3.339844 0.410156,1.523438 1.582031,2.167969 1.875,-0.527344 3.457031,-1.523438 1.582032,-1.054687 2.988282,-2.34375 1.464843,-1.347656 2.871093,-2.871093 1.40625,-1.582032 2.929688,-3.2226566 z" /><path
         id="path42"
         style=""
         d="m 54.634689,17.033594 q 0.234375,0.05859 0.703125,0.05859 1.757813,0 3.164063,-0.9375 1.40625,-0.9375 2.460937,-2.34375 1.054688,-1.40625 1.757813,-2.988281 0.761719,-1.6406254 1.113281,-2.9882816 0.292969,-0.7617188 0.644531,-2.4023438 0.351563,-1.6992187 0.644532,-3.6328125 -0.996094,-0.3515625 -2.050782,-1.17187497 -0.996093,-0.87890625 -1.875,-1.99218753 -0.878906,-1.1132812 -1.464843,-2.4023437 -0.527344,-1.2890625 -0.527344,-2.4609375 0,-0.4101563 0.05859,-0.6445313 -1.347657,0.8203125 -2.578125,1.9335938 -1.171875,1.1132812 -2.167969,2.4023437 -0.996094,1.2304688 -1.699219,2.63671878 -0.703125,1.34765622 -0.996094,2.63671872 -0.351562,1.3476563 -0.644531,3.28125 -0.292969,1.875 -0.292969,3.8671875 0,1.3476564 0.175782,2.5781254 0.175781,1.230468 0.585937,2.226562 0.46875,0.9375 1.171875,1.582031 0.761719,0.644532 1.816406,0.761719 z m 9.902344,-23.7304686 q -0.644531,0 -0.9375,0.4101562 -0.292969,0.4101563 -0.292969,0.9960938 0,0.9960937 0.644532,2.0507812 0.644531,0.9960938 1.699218,1.40625 0.05859,-0.5273437 0.05859,-0.9960937 0,-0.46875 0,-0.9375 0,-1.3476563 -0.234375,-2.109375 -0.234375,-0.8203125 -0.878906,-0.8203125 z m 18.808594,5.91796873 q -2.8125,2.28515627 -5.449219,3.33984377 -2.636719,1.0546875 -4.628906,1.0546875 -1.523438,0 -3.457031,-0.6445313 -0.644532,2.7539063 -1.582032,5.5664063 -0.878906,2.8124996 -1.992187,5.2148436 -1.054688,2.34375 -2.285156,3.984375 -1.171875,1.640625 -2.402344,2.050781 -1.347656,0.527344 -2.929688,0.761719 -1.582031,0.234375 -3.164062,0.234375 -2.636719,0 -4.980469,-0.761719 -2.285156,-0.761718 -3.105469,-2.460937 -0.46875,-0.996094 -0.761718,-2.871094 -0.292969,-1.875 -0.292969,-4.101562 0,-1.7578129 0.175781,-3.6328129 0.175781,-1.9335937 0.46875,-3.6914062 0.351563,-1.7578125 0.820313,-3.22265627 0.527343,-1.52343753 1.171875,-2.51953123 0.996093,-1.640625 2.519531,-3.28125 1.523437,-1.6992188 3.28125,-3.046875 1.816406,-1.3476564 3.75,-2.2265624 1.933594,-0.878906 3.808594,-0.878906 h 0.175781 l 0.175781,1.699218 q 0.9375,-0.351562 1.992188,-0.351562 2.167968,0 3.808593,1.4062499 1.699219,1.3476562 2.34375,3.4570312 0.117188,0.46875 0.117188,1.5820313 0,0.8203125 -0.05859,1.6992187 0,0.8789063 -0.05859,1.3476563 0.292969,0.11718748 0.644532,0.17578123 0.585937,0.17578125 1.816406,0.17578125 0.761719,0 1.875,-0.1171875 1.171875,-0.17578128 2.460937,-0.52734378 1.347657,-0.4101562 2.753907,-1.0546875 1.40625,-0.703125 2.695312,-1.8164062 z" /><path
         id="path44"
         style=""
         d="m 82.935471,15.334375 q 0.644531,0 1.699218,-0.703125 1.054688,-0.703125 2.285157,-1.816406 1.230468,-1.113281 2.519531,-2.519531 1.347656,-1.4062501 2.578125,-2.8125001 0.644531,-2.0507813 1.640625,-4.9804688 1.054687,-2.98828122 2.34375,-6.4453125 l -0.820313,1.5820313 q -0.175781,-0.8789063 -0.585937,-1.640625 -0.410156,-0.7617188 -0.9375,-1.3476563 -0.527344,-0.6445312 -1.113281,-0.9960937 -0.527344,-0.3515625 -0.9375,-0.3515625 -0.175782,0 -0.410157,0.1171875 -0.234375,0.1757812 -1.054687,1.1132812 -0.761719,0.8789063 -1.875,2.2851563 -1.054688,1.3476562 -2.285156,2.98828123 -1.171875,1.58203127 -2.226563,3.16406247 -0.996094,1.5820313 -1.757812,2.9882813 -0.761719,1.3476562 -0.878907,2.1679687 -0.117187,0.8203125 -0.234375,1.6992188 -0.117187,0.8203121 -0.117187,1.6406251 0,1.523437 0.410156,2.636719 0.46875,1.113281 1.640625,1.230468 z m 0,22.792969 q 2.109375,-2.988281 3.574218,-7.265625 1.464844,-4.21875 2.519532,-8.847656 -2.695313,2.402344 -3.691407,4.511719 -1.289062,2.8125 -1.875,5.332031 -0.585937,2.519531 -0.585937,4.980469 0,0.292968 0,0.644531 0.05859,0.351562 0.05859,0.644531 z M 90.259689,15.56875 q 0.05859,-0.234375 0.05859,-0.46875 0,-0.234375 0,-0.46875 -2.519531,2.402344 -4.6875,3.75 -2.109375,1.347657 -3.925781,1.347657 -0.175781,0 -0.410156,-0.05859 -0.175782,0 -0.351563,0 -1.113281,-0.234375 -2.109375,-1.054688 -0.9375,-0.878906 -1.640625,-2.109375 -0.703125,-1.289062 -1.113281,-2.8125 -0.410156,-1.523437 -0.410156,-3.046875 0,-1.7578121 0.644531,-3.5742184 0.46875,-1.2304687 1.40625,-2.9882812 0.9375,-1.7578125 2.109375,-3.63281252 1.230469,-1.93359378 2.578125,-3.86718748 1.40625,-1.9335938 2.8125,-3.515625 1.40625,-1.5820313 2.695312,-2.578125 1.347657,-1.0546874 2.460938,-1.2304684 0.292969,-0.05859 0.527344,-0.05859 0.234375,0 0.46875,0 1.230468,0 2.167968,0.351562 0.996094,0.351563 1.699219,0.9375004 0.761719,0.5273437 1.230469,1.171875 0.46875,0.6445312 0.703125,1.171875 0.175781,-0.703125 0.410156,-1.1132813 l 3.808592,0.5859375 Q 99.810471,-3.7671871 98.462814,0.33437538 97.115158,4.4359379 96.353439,8.1273441 l 0.05859,0.1757813 q 0,0 -0.117187,0.5859375 -0.117188,0.5273437 -0.234375,1.1718751 -0.117188,0.644531 -0.234375,1.171875 -0.117188,0.527344 -0.117188,0.527344 1.054688,-0.703125 2.636719,-1.464844 1.640625,-0.7617189 3.222653,-1.4648439 1.64063,-0.703125 2.92969,-1.171875 1.28906,-0.5273437 1.64063,-0.6445312 l -0.41016,4.2773441 q -0.46875,0.292968 -1.75781,0.9375 -1.28907,0.644531 -2.98828,1.523437 -1.699223,0.878906 -3.574223,1.992188 -1.875,1.054687 -3.515625,2.285156 -1.171875,4.101562 -2.460938,8.378906 -1.230468,4.335938 -2.402343,7.910156 -1.113282,3.632813 -2.050782,6.09375 -0.878906,2.460938 -1.289062,2.988282 -0.820313,0.820312 -1.640625,1.347656 -0.820313,0.585937 -1.699219,0.585937 -1.757812,0 -3.105469,-2.34375 -0.761718,-1.464843 -0.761718,-4.6875 0,-1.992187 0.292968,-4.335937 0.292969,-2.34375 0.761719,-4.570313 0.527344,-2.226562 1.171875,-4.101562 0.703125,-1.875 1.523438,-2.988281 0.996093,-1.230469 3.164062,-3.046875 2.226563,-1.816407 4.863281,-3.691407 z" /><path
         id="path46"
         style=""
         d="m 110.88469,36.6625 q 0.70312,-0.9375 1.46484,-2.519531 0.76172,-1.523437 1.52344,-3.339844 0.82031,-1.816406 1.52344,-3.75 0.70312,-1.933593 1.34765,-3.691406 -0.52734,0.585938 -1.40625,2.226563 -0.8789,1.640625 -1.8164,3.632812 -0.87891,1.992188 -1.64063,3.984375 -0.76172,2.050781 -0.99609,3.457031 z m 0.35156,-45.2929684 q 0.58594,0.3515625 2.05078,0.3515625 1.17188,0 2.22657,-0.1171875 1.11328,-0.1757812 1.28906,-0.234375 -1.9336,4.5117188 -3.45703,8.67187503 -0.64453,1.75781247 -1.28907,3.69140627 -0.64453,1.875 -1.11328,3.6914062 -0.46875,1.8164063 -0.76172,3.5156249 -0.29296,1.640625 -0.29296,2.929688 V 14.1625 q 0.99609,0.292969 1.93359,0.292969 0.99609,0 1.99219,-0.410156 1.05468,-0.46875 2.05078,-1.640625 0.52734,-0.644531 1.40625,-1.875 0.8789,-1.2304689 1.93359,-2.8125001 1.05469,-1.5820313 2.16797,-3.3984375 1.17188,-1.875 2.16797,-3.69140627 0.87891,-1.46484375 1.58203,-3.10546873 0.64453,-1.3476563 1.23047,-3.1054688 0.58594,-1.7578125 0.82031,-3.515625 l 4.80469,0.703125 q -1.05469,3.2226563 -2.22656,6.5625 -1.11328,3.3398438 -2.10938,6.1523438 -1.11328,3.2226562 -2.22656,6.3281246 2.28516,-1.1132809 4.51172,-2.1679684 1.875,-0.8789062 3.92578,-1.6992187 2.05078,-0.8789063 3.57422,-1.3476563 l -0.9375,4.5117188 q -1.28906,0.7031246 -3.10547,1.5820316 -1.75781,0.820312 -3.63281,1.816406 -1.875,0.9375 -3.63282,1.992187 -1.69921,0.996094 -2.92968,1.933594 -1.40625,4.101563 -2.75391,8.027344 -1.28906,3.984375 -2.46094,7.207031 -1.11328,3.222656 -1.99218,5.507813 -0.82032,2.285156 -1.23047,3.046875 -0.76172,1.523437 -2.16797,2.167968 -1.34766,0.644532 -2.8125,0.644532 -1.75781,0 -3.10547,-0.820313 -1.34766,-0.820312 -1.34766,-2.285156 0,-0.175781 0.0586,-0.234375 0.11718,-1.289063 0.70312,-3.28125 0.64453,-1.933594 1.69922,-4.277344 1.05469,-2.34375 2.40234,-4.921875 1.40625,-2.578125 3.04688,-5.039062 1.64062,-2.460938 3.39844,-4.628907 1.8164,-2.167968 3.63281,-3.808593 0.17578,-0.175782 0.35156,-0.292969 0.17578,-0.175781 0.35156,-0.351563 l 1.81641,-5.2148434 q -0.9375,1.7578124 -1.99219,3.2226564 -0.99609,1.40625 -1.99218,2.578125 -0.9375,1.171875 -1.81641,2.109375 -0.82031,0.878906 -1.34766,1.464844 -0.46875,0.410156 -1.52343,0.644531 -1.05469,0.175781 -2.46094,0.175781 -1.28906,0 -2.63672,-0.175781 -1.34766,-0.234375 -2.51953,-0.644531 -1.11328,-0.46875 -1.81641,-1.171875 -0.70312,-0.761719 -0.70312,-1.757813 0,-0.9375 0.46875,-2.695312 0.46875,-1.816407 1.17187,-3.9843754 0.70313,-2.2265625 1.52344,-4.6875 0.87891,-2.4609375 1.64062,-4.8046875 0.82032,-2.34375 1.46485,-4.3359375 0.64453,-1.9921875 0.99609,-3.28125 z" /></g></g></svg>
