<?xml version="1.0" encoding="UTF-8" standalone="no"?>
<svg
   xmlns:dc="http://purl.org/dc/elements/1.1/"
   xmlns:cc="http://creativecommons.org/ns#"
   xmlns:rdf="http://www.w3.org/1999/02/22-rdf-syntax-ns#"
   xmlns:svg="http://www.w3.org/2000/svg"
   xmlns="http://www.w3.org/2000/svg"
   id="svg21"
   xml:space="preserve"
   viewBox="5 5 1001 203"
   height="208"
   width="1007"
   version="1.1"><metadata
     id="metadata25"><rdf:RDF><cc:Work
         rdf:about=""><dc:format>image/svg+xml</dc:format><dc:type
           rdf:resource="http://purl.org/dc/dcmitype/StillImage" /></cc:Work></rdf:RDF></metadata><desc
     id="desc2">Created with Fabric.js 2.4.6</desc><defs
     id="defs4" /><g
     id="g13"
     transform="matrix(10.03,0,0,2.04,503.68,104.82)"><linearGradient
       y2="0"
       x2="50"
       y1="0"
       x1="-50"
       gradientUnits="userSpaceOnUse"
       id="SVGID_42"><stop
         id="stop6"
         style="stop-color:rgb(5,146,202);stop-opacity: 0.68"
         offset="60%" /><stop
         id="stop8"
         style="stop-color:rgb(255,255,255);stop-opacity: 1"
         offset="100%" /></linearGradient><path
       id="rect11"
       d="M -50,-50 H 50 V 50 H -50 Z"
       style="opacity:1;fill:url(#SVGID_42);fill-rule:nonzero;stroke:#000000;stroke-width:0;stroke-linecap:butt;stroke-linejoin:miter;stroke-miterlimit:4;stroke-dasharray:none;stroke-dashoffset:0" /></g><g
     id="g19"
     transform="translate(240.85,100.76)"><g
       id="text17"
       style="font-style:normal;font-weight:normal;font-size:60px;font-family:Miniver;white-space:pre;opacity:1;fill:#f9fafd;fill-rule:nonzero;stroke:none;stroke-width:1;stroke-linecap:butt;stroke-linejoin:miter;stroke-miterlimit:4;stroke-dasharray:none;stroke-dashoffset:0"
       aria-label="well being"><path
         id="path28"
         style=""
         d="m -92.13578,-1.0718746 q 0.644531,-0.9375 1.347656,-2.6953125 0.703125,-1.8164063 0.996094,-3.28125 -0.292969,0.4101562 -0.703125,1.0546875 -0.410157,0.6445312 -0.820313,1.40625 -0.351562,0.7617187 -0.644531,1.5820312 -0.234375,0.7617188 -0.234375,1.40625 0,0.4101563 0.05859,0.5273438 z m -12.36328,-5.5078125 q -0.46875,0.703125 -0.87891,1.7578125 -0.41015,1.0546875 -0.41015,2.0507812 0,0.6445313 0.17578,1.171875 0.46875,-0.9960937 0.70312,-2.2265625 0.29297,-1.2890625 0.41016,-2.7539062 z m 29.23828,7.14843748 q -0.703125,0.82031252 -2.167969,1.93359372 -1.40625,1.0546875 -3.105469,2.0507813 -1.699219,0.9960937 -3.457031,1.7578125 -1.757813,0.703125 -3.046875,0.8789062 -0.175781,0.058594 -0.585938,0.058594 -1.464843,0 -2.929687,-0.8203125 -1.230469,2.4023437 -2.519531,4.6874996 -1.230469,2.285157 -2.402344,4.101563 -1.171875,1.757812 -2.167969,2.929687 -0.996094,1.171875 -1.640625,1.347657 -0.996092,0.292968 -2.167972,0.46875 -1.11328,0.175781 -2.16797,0.175781 -1.875,0 -3.33984,-0.585938 -1.46484,-0.527343 -1.58203,-1.757812 -0.0586,-0.644531 -0.11719,-2.285156 -0.0586,-1.699219 -0.11719,-3.984375 -1.75781,3.105468 -3.39843,5.332031 -1.64063,2.167969 -2.75391,2.636719 -0.87891,0.410156 -1.99219,0.410156 -1.46484,0 -2.87109,-0.644531 -1.40625,-0.585938 -2.51953,-1.582032 -1.11328,-1.054687 -1.81641,-2.34375 -0.70312,-1.347656 -0.70312,-2.695312 v -0.234375 q 0.0586,-1.113281 0.29297,-3.1054689 0.23437,-1.9921875 0.58593,-4.3359375 0.41016,-2.4023437 0.9375,-4.92187497 0.52735,-2.51953123 1.17188,-4.68750003 0.70312,-2.1679687 1.46484,-3.75 0.76172,-1.5820312 1.58203,-2.1093746 l 4.21875,2.5781246 q -0.41015,0.9375 -1.28906,3.1640625 -0.87891,2.2265625 -1.75781,5.03906253 -0.87891,2.75390627 -1.52344,5.80078127 -0.64453,3.046875 -0.64453,5.6835941 0,1.40625 0.23437,2.636718 0.23438,1.171875 0.76172,1.992188 1.40625,-0.761719 2.75391,-2.109375 1.34766,-1.40625 2.63672,-3.222656 1.28906,-1.8164066 2.46094,-3.9257816 1.17187,-2.1679688 2.22656,-4.453125 0.0586,-2.28515627 0.23437,-4.453125 0.17578,-2.1679688 0.41016,-3.8085938 0.29297,-1.6992187 0.70312,-2.8125 0.46875,-1.1132812 1.05469,-1.2890625 1.28906,-0.5273441 2.34375,-0.5273441 1.40625,0 2.28516,0.7031254 0.8789,0.6445312 1.34765,1.5820312 v 0.234375 q 0,0.5859375 -0.46875,1.9921875 -0.46875,1.40625 -1.28906,3.3398438 -0.76172,1.93359373 -1.8164,4.2773437 -1.05469,2.2851563 -2.22657,4.6289063 0.11719,1.171875 0.35157,2.5195312 0.23437,1.2890629 0.58593,2.5781249 0.41016,1.230469 0.9375,2.34375 0.52735,1.113281 1.23047,1.875 1.46485,-1.230469 2.75391,-2.753906 1.289061,-1.582031 2.402342,-3.2812501 1.113281,-1.6992188 2.050781,-3.3984375 0.9375,-1.7578125 1.640625,-3.28125 -0.878906,-1.3476563 -0.9375,-2.28515627 -0.05859,-0.17578125 -0.05859,-0.5859375 0,-1.11328125 0.292968,-2.63671873 0.292969,-1.5820313 0.761719,-2.9882813 0.46875,-1.4648437 0.996094,-2.578125 0.527344,-1.1132812 0.996094,-1.40625 0.527343,-0.2929687 1.699218,-0.2929687 0.820313,0 1.816407,0.1757812 0.996093,0.1757813 1.875,0.46875 0.878906,0.2929688 1.464843,0.7617188 0.585938,0.46875 0.585938,1.0546875 v 0.058594 q 0,0.3515625 -0.351563,1.2890625 -0.292968,0.9375 -0.878906,2.34375 -0.585937,1.40625 -1.347656,3.16406253 -0.761719,1.69921877 -1.699219,3.57421877 1.113281,-0.1757813 2.988281,-0.8789063 1.933594,-0.703125 3.984375,-1.69921872 2.109375,-0.99609375 4.160157,-2.22656248 2.050781,-1.2890625 3.574218,-2.6367188 z" /><path
         id="path30"
         style=""
         d="m -68.991249,-5.3492184 q -0.46875,0 -1.289063,0.703125 -0.761718,0.703125 -1.699218,1.875 -0.878907,1.1132813 -1.875,2.63671878 -0.996094,1.52343752 -1.757813,3.16406252 -0.292969,0.5859375 -0.527344,1.171875 -0.234375,0.5859375 -0.46875,1.2304687 1.523438,-0.2929687 3.164063,-0.703125 1.699219,-0.46875 2.519531,-0.9960937 0.410156,-0.2929688 0.878906,-1.171875 0.527344,-0.8789063 0.9375,-1.93359377 0.46875,-1.11328125 0.761719,-2.28515623 0.292969,-1.2304688 0.292969,-2.109375 0,-0.6445313 -0.234375,-1.1132813 -0.234375,-0.46875 -0.703125,-0.46875 z M -55.983437,11.35 q -1.054687,0.761719 -2.460937,1.757813 -1.40625,0.9375 -2.988281,1.992187 -1.523438,0.996094 -3.105469,1.992188 -1.523438,0.996094 -2.871094,1.757812 -1.289062,0.820313 -2.226562,1.289063 -0.9375,0.527344 -1.230469,0.585937 -0.175781,0.05859 -0.46875,0.05859 -0.996094,0 -2.636719,-0.527344 -1.582031,-0.46875 -3.222656,-1.230468 -1.640625,-0.703125 -3.046875,-1.523438 -1.347656,-0.878906 -1.816406,-1.640625 -0.351563,-0.644531 -0.527344,-1.640625 -0.117188,-1.054687 -0.117188,-2.402344 0,-1.171875 0.117188,-2.4609371 0.117187,-1.3476563 0.292969,-2.5195313 0.234375,-1.2304687 0.46875,-2.2265625 0.292968,-0.9960937 0.644531,-1.5820312 0.410156,-0.8203125 1.289062,-2.05078127 0.878907,-1.2890625 1.992188,-2.63671873 1.171875,-1.40625 2.460937,-2.8125 1.289063,-1.40625 2.578125,-2.5195313 1.289063,-1.171875 2.460938,-1.875 1.230469,-0.7617187 2.167969,-0.8203125 0.05859,0 0.05859,0 0.05859,-0.058594 0.175782,-0.058594 0.9375,0 1.875,0.8203125 0.9375,0.8203125 1.640625,1.9921875 0.703125,1.171875 1.113281,2.5195312 0.46875,1.2890625 0.46875,2.34375 0,0.5273438 -0.05859,0.7617188 -0.234375,0.93749998 -1.054687,2.34375 -0.820313,1.3476562 -1.816407,2.6953125 -0.996093,1.2890625 -1.933593,2.34375 -0.9375,0.9960937 -1.40625,1.3476562 -0.351563,0.2929688 -1.289063,0.5859375 -0.878906,0.234375 -2.109375,0.5273438 -1.171875,0.234375 -2.519531,0.46875 -1.347656,0.234375 -2.636719,0.4101562 -0.234375,1.1718754 -0.351562,2.0507814 -0.117188,0.820312 -0.175782,1.171875 0.117188,0.644531 0.703125,1.289062 0.585938,0.644532 1.464844,1.171875 0.878906,0.527344 1.933594,0.878907 1.113281,0.292968 2.226562,0.292968 0.234375,0 0.46875,0 0.292969,0 0.527344,-0.05859 1.054688,-0.292969 2.8125,-1.347657 1.757813,-1.054687 3.632813,-2.402343 1.933593,-1.347657 3.632812,-2.7539066 1.757813,-1.4648438 2.695313,-2.578125 z" /><path
         id="path32"
         style=""
         d="m -45.202187,-19.5875 q -1.230468,1.757813 -2.226562,3.925782 -0.996094,2.167968 -1.816406,4.511718 -0.761719,2.2851566 -1.347657,4.5703129 -0.585937,2.2851562 -0.878906,4.2773437 0.820313,-1.5820312 1.757813,-3.6914062 0.9375,-2.1679688 1.816406,-4.5117184 0.878906,-2.402344 1.582031,-4.746094 0.761719,-2.34375 1.113281,-4.335938 z m 7.324219,32.460938 q -1.113281,1.40625 -1.933594,2.519531 -0.820312,1.054688 -1.640625,1.933594 -0.820312,0.820312 -1.757812,1.523437 -0.9375,0.644532 -2.167969,1.289063 -1.523437,0.703125 -3.984375,0.703125 -1.464844,0 -3.046875,-0.292969 -1.582031,-0.292969 -2.929687,-0.9375 -1.289063,-0.585937 -2.226563,-1.523437 -0.9375,-0.9375 -1.113281,-2.226563 -0.05859,-0.292969 -0.05859,-0.585937 0,-0.351563 0,-0.820313 0,-1.875 0.292969,-5.2148436 0.351562,-3.3398438 0.996094,-7.3242188 0.644531,-3.984375 1.582031,-8.203125 0.996094,-4.2773436 2.285156,-7.9687496 1.289063,-3.75 2.871094,-6.621094 1.582031,-2.871094 3.457031,-4.101563 0.644531,-0.46875 1.347656,-0.644531 0.761719,-0.175781 1.40625,-0.175781 1.640625,0 2.871094,0.9375 1.289063,0.878906 1.582031,1.757812 v 0.175782 q 0,0.644531 -0.527343,2.460937 -0.46875,1.757813 -1.347657,4.277344 -0.878906,2.460937 -2.109375,5.449219 -1.230468,2.9882809 -2.636718,6.0351559 -1.40625,3.046875 -2.988282,5.9765625 -1.523437,2.9296875 -3.105468,5.2734375 -0.05859,0.2929687 -0.234375,0.9375 -0.117188,0.6445312 -0.234375,1.5234375 -0.117188,0.8789062 -0.234375,1.9335936 -0.117188,0.996094 -0.117188,2.050781 0,1.757813 0.410156,3.339844 0.410157,1.523438 1.582032,2.167969 1.875,-0.527344 3.457031,-1.523438 1.582031,-1.054687 2.988281,-2.34375 1.464844,-1.347656 2.871094,-2.871093 1.40625,-1.582032 2.929687,-3.2226566 z" /><path
         id="path34"
         style=""
         d="m -26.803749,-19.5875 q -1.230469,1.757813 -2.226563,3.925782 -0.996093,2.167968 -1.816406,4.511718 -0.761719,2.2851566 -1.347656,4.5703129 -0.585938,2.2851562 -0.878906,4.2773437 0.820312,-1.5820312 1.757812,-3.6914062 0.9375,-2.1679688 1.816406,-4.5117184 0.878907,-2.402344 1.582032,-4.746094 0.761718,-2.34375 1.113281,-4.335938 z m 7.324219,32.460938 q -1.113282,1.40625 -1.933594,2.519531 -0.820313,1.054688 -1.640625,1.933594 -0.820313,0.820312 -1.757813,1.523437 -0.9375,0.644532 -2.167968,1.289063 -1.523438,0.703125 -3.984375,0.703125 -1.464844,0 -3.046875,-0.292969 -1.582032,-0.292969 -2.929688,-0.9375 -1.289062,-0.585937 -2.226562,-1.523437 -0.9375,-0.9375 -1.113282,-2.226563 -0.05859,-0.292969 -0.05859,-0.585937 0,-0.351563 0,-0.820313 0,-1.875 0.292968,-5.2148436 0.351563,-3.3398438 0.996094,-7.3242188 0.644531,-3.984375 1.582031,-8.203125 0.996094,-4.2773436 2.285157,-7.9687496 1.289062,-3.75 2.871093,-6.621094 1.582032,-2.871094 3.457032,-4.101563 0.644531,-0.46875 1.347656,-0.644531 0.761719,-0.175781 1.40625,-0.175781 1.640625,0 2.871094,0.9375 1.289062,0.878906 1.582031,1.757812 v 0.175782 q 0,0.644531 -0.527344,2.460937 -0.46875,1.757813 -1.347656,4.277344 -0.878906,2.460937 -2.109375,5.449219 -1.230469,2.9882809 -2.636719,6.0351559 -1.40625,3.046875 -2.988281,5.9765625 -1.523438,2.9296875 -3.105469,5.2734375 -0.05859,0.2929687 -0.234375,0.9375 -0.117187,0.6445312 -0.234375,1.5234375 -0.117187,0.8789062 -0.234375,1.9335936 -0.117187,0.996094 -0.117187,2.050781 0,1.757813 0.410156,3.339844 0.410156,1.523438 1.582031,2.167969 1.875,-0.527344 3.457031,-1.523438 1.582032,-1.054687 2.988282,-2.34375 1.464843,-1.347656 2.871093,-2.871093 1.40625,-1.582032 2.929688,-3.2226566 z" /><path
         id="path36"
         style=""
         d="m 19.719688,-4.0601559 q 0.117188,-0.3515625 0.234375,-1.171875 0.175782,-0.8789062 0.175782,-1.5234375 0,-0.2929687 -0.05859,-0.5273437 -0.05859,-0.2929688 -0.234375,-0.2929688 -0.175781,0 -0.527344,0.3515625 -0.175781,0.1171875 -0.292969,0.3515625 -0.234375,0.46875 -0.234375,0.9375 0,0.4101563 0.175782,0.8789063 0.234375,0.46875 0.761718,0.9960937 z M 13.33297,-23.396093 q -0.820313,1.054687 -1.699219,2.871093 -0.820313,1.816407 -1.582031,3.75 -0.7031253,1.933594 -1.1718753,3.75 -0.46875,1.757813 -0.5273438,2.871094 0.46875,-0.703125 1.171875,-2.460937 0.7031251,-1.757813 1.4648441,-3.808594 0.761718,-2.050781 1.40625,-3.984375 0.644531,-1.933594 0.9375,-2.988281 z M 34.836876,0.45156288 q -2.109375,1.52343752 -4.277344,2.57812502 -2.109375,1.0546875 -4.863281,1.0546875 -0.46875,0 -0.703125,-0.058594 -1.464844,-0.1171875 -3.105469,-0.8203125 -1.171875,2.4023438 -2.929687,5.5078125 -1.699219,3.0468754 -3.632813,5.8007814 -1.875,2.695312 -3.867187,4.570312 -1.9335941,1.933594 -3.5742191,2.050782 H 7.3564072 q -1.9335938,0 -3.6328125,-0.878907 -1.640625,-0.878906 -2.87109378,-2.285156 -1.23046875,-1.40625 -1.99218752,-3.164062 -0.703125,-1.816407 -0.703125,-3.691407 0,-0.292968 0,-0.527343 0,-0.292969 0.1171875,-0.585938 0.1757813,-1.3476561 0.87890627,-4.3945311 0.76171875,-3.046875 1.81640625,-6.8554688 1.05468748,-3.8085937 2.34374998,-7.9101562 1.2890625,-4.1601559 2.578125,-7.7343749 1.2890625,-3.574219 2.4609375,-6.09375 1.171875,-2.519531 1.9921871,-3.105469 0.585938,-0.410156 1.113282,-0.527344 0.585937,-0.175781 1.171875,-0.175781 1.054687,0 2.109375,0.46875 1.054687,0.46875 1.875,1.171875 0.820312,0.703125 1.347656,1.523438 0.527344,0.761718 0.527344,1.40625 0,0.527343 -0.644532,2.167968 -0.585937,1.640625 -1.640625,3.867188 -1.054687,2.167969 -2.402343,4.6875 -1.347657,2.5195311 -2.8125,4.8632811 -1.4062503,2.2851563 -2.8125003,4.1601563 -1.40625,1.87499998 -2.5195313,2.69531248 Q 4.9540634,2.6195316 4.3681259,5.8421879 3.7821884,9.0062504 3.7821884,11.935938 q 0,1.992187 0.3515625,3.574219 0.3515625,1.582031 1.2304688,2.519531 Q 7.1806259,17.092188 9.0556259,15.1 10.930626,13.049219 12.629845,10.529688 14.329063,8.0101566 15.67672,5.3734379 17.08297,2.7367191 17.961876,0.56875038 16.61422,-0.60312462 15.735313,-1.8921871 14.915001,-3.2398434 14.915001,-4.3531246 v -0.1171875 q 0,-1.0546875 0.644531,-2.109375 0.703125,-1.1132813 1.640625,-1.9921875 0.996094,-0.8789063 2.109375,-1.40625 1.113281,-0.5859374 1.992188,-0.5859374 0.585937,0 0.878906,0.234375 1.054687,0.5273436 1.582031,2.2851561 0.527344,1.6992188 0.527344,3.5742188 0,0.9375 -0.117188,1.875 -0.117187,0.8789062 -0.410156,1.64062498 -0.117187,0.234375 -0.292969,0.64453125 -0.117187,0.41015625 -0.410156,0.9375 0.234375,0.0585938 0.585938,0.0585938 1.171875,0 2.636718,-0.41015625 1.523438,-0.41015625 3.046875,-0.99609375 1.582032,-0.64453128 2.929688,-1.34765628 1.40625,-0.703125 2.34375,-1.3476562 z" /><path
         id="path38"
         style=""
         d="m 41.399376,-5.3492184 q -0.46875,0 -1.289063,0.703125 -0.761718,0.703125 -1.699218,1.875 -0.878907,1.1132813 -1.875,2.63671878 -0.996094,1.52343752 -1.757813,3.16406252 -0.292969,0.5859375 -0.527344,1.171875 -0.234375,0.5859375 -0.46875,1.2304687 1.523438,-0.2929687 3.164063,-0.703125 1.699219,-0.46875 2.519531,-0.9960937 0.410156,-0.2929688 0.878906,-1.171875 0.527344,-0.8789063 0.9375,-1.93359377 0.46875,-1.11328125 0.761719,-2.28515623 0.292969,-1.2304688 0.292969,-2.109375 0,-0.6445313 -0.234375,-1.1132813 -0.234375,-0.46875 -0.703125,-0.46875 z M 54.407188,11.35 q -1.054687,0.761719 -2.460937,1.757813 -1.40625,0.9375 -2.988281,1.992187 -1.523438,0.996094 -3.105469,1.992188 -1.523438,0.996094 -2.871094,1.757812 -1.289062,0.820313 -2.226562,1.289063 -0.9375,0.527344 -1.230469,0.585937 -0.175781,0.05859 -0.46875,0.05859 -0.996094,0 -2.636719,-0.527344 -1.582031,-0.46875 -3.222656,-1.230468 -1.640625,-0.703125 -3.046875,-1.523438 -1.347656,-0.878906 -1.816406,-1.640625 -0.351563,-0.644531 -0.527344,-1.640625 -0.117188,-1.054687 -0.117188,-2.402344 0,-1.171875 0.117188,-2.4609371 0.117187,-1.3476563 0.292969,-2.5195313 0.234375,-1.2304687 0.46875,-2.2265625 0.292968,-0.9960937 0.644531,-1.5820312 0.410156,-0.8203125 1.289062,-2.05078127 0.878907,-1.2890625 1.992188,-2.63671873 1.171875,-1.40625 2.460937,-2.8125 1.289063,-1.40625 2.578125,-2.5195313 1.289063,-1.171875 2.460938,-1.875 1.230469,-0.7617187 2.167969,-0.8203125 0.05859,0 0.05859,0 0.05859,-0.058594 0.175782,-0.058594 0.9375,0 1.875,0.8203125 0.9375,0.8203125 1.640625,1.9921875 0.703125,1.171875 1.113281,2.5195312 0.46875,1.2890625 0.46875,2.34375 0,0.5273438 -0.05859,0.7617188 -0.234375,0.93749998 -1.054687,2.34375 -0.820313,1.3476562 -1.816407,2.6953125 -0.996093,1.2890625 -1.933593,2.34375 -0.9375,0.9960937 -1.40625,1.3476562 -0.351563,0.2929688 -1.289063,0.5859375 -0.878906,0.234375 -2.109375,0.5273438 -1.171875,0.234375 -2.519531,0.46875 -1.347656,0.234375 -2.636719,0.4101562 -0.234375,1.1718754 -0.351562,2.0507814 -0.117188,0.820312 -0.175782,1.171875 0.117188,0.644531 0.703125,1.289062 0.585938,0.644532 1.464844,1.171875 0.878906,0.527344 1.933594,0.878907 1.113281,0.292968 2.226562,0.292968 0.234375,0 0.46875,0 0.292969,0 0.527344,-0.05859 1.054688,-0.292969 2.8125,-1.347657 1.757813,-1.054687 3.632813,-2.402343 1.933593,-1.347657 3.632812,-2.7539066 1.757813,-1.4648438 2.695313,-2.578125 z" /><path
         id="path40"
         style=""
         d="m 67.122032,-23.80625 q -1.347656,1.582032 -2.050781,3.046875 -0.703125,1.464844 -0.996094,2.578125 -0.351562,1.289063 -0.410156,2.402344 l -4.570313,0.351563 q 0.117188,-2.636719 1.171875,-5.097657 1.113282,-2.460937 2.636719,-3.984375 z M 72.86422,9.7679691 q -2.050782,2.4023439 -4.160157,4.3359379 -2.050781,1.933593 -3.925781,3.339843 -1.875,1.40625 -3.457031,2.167969 -1.582031,0.820313 -2.695313,0.9375 -0.117187,0.05859 -0.46875,0.05859 -1.113281,0 -2.34375,-0.527344 -1.230468,-0.527344 -2.285156,-1.40625 -1.054687,-0.878906 -1.757812,-1.933594 -0.703125,-1.113281 -0.703125,-2.167968 v -0.117188 q 0.117187,-1.171875 0.703125,-3.984375 0.46875,-2.4609374 1.523437,-6.9140624 1.054688,-4.51171872 3.046875,-12.0117187 l 4.804688,0.8789062 q -2.402344,8.14453128 -3.105469,13.3007813 -0.703125,5.1562496 -0.703125,7.7929686 0,0.761719 0,1.347656 0,0.527344 0.05859,0.878907 0.05859,0.410156 0.117187,0.703125 2.167969,-1.113282 4.511719,-2.636719 1.992187,-1.347656 4.394531,-3.28125 2.402344,-1.9335939 4.6875,-4.5117189 z" /><path
         id="path42"
         style=""
         d="m 73.274376,-4.5874996 q 1.582031,-0.8203125 2.8125,-1.4648438 1.054687,-0.5273437 1.933594,-0.9960937 0.9375,-0.46875 1.054687,-0.46875 0,0.2929687 0,0.46875 0.05859,0.1757812 0.05859,0.3515625 0,0.2929687 -0.05859,0.5859375 0,0.2929687 -0.05859,0.5859375 1.757813,-1.640625 3.75,-2.6953125 2.050782,-1.1132813 3.808594,-1.5820313 h 0.292969 q 0.644531,0 1.757812,0.4101563 1.113282,0.4101562 2.167969,1.0546875 1.054688,0.6445312 1.816406,1.40625 0.820313,0.703125 0.820313,1.3476562 0,0.4101563 -0.46875,1.7578125 -0.410156,1.2890625 -1.113281,3.16406253 -0.644532,1.87499997 -1.464844,4.16015627 -0.761719,2.2265625 -1.464844,4.5117187 -0.644531,2.2265624 -1.113281,4.2773434 -0.46875,1.992188 -0.46875,3.457032 0,0.996093 0.292969,1.640625 0.292968,0.644531 0.9375,0.761718 2.167968,-0.351562 4.160156,-1.230468 1.699219,-0.761719 3.574219,-2.050782 1.933593,-1.347656 3.398437,-3.574218 l 1.699223,4.453125 q -1.406254,1.523437 -3.339848,2.871093 -1.875,1.289063 -3.867187,2.285157 -1.992188,0.996093 -3.984375,1.523437 -1.933594,0.585938 -3.398438,0.585938 -1.40625,0 -2.167969,-0.585938 -0.820312,-0.585937 -1.230468,-2.402344 -0.351563,-1.816406 -0.351563,-4.042968 0,-1.171875 0.05859,-2.285157 0.117187,-1.171875 0.351562,-2.34375 0.410157,-2.4023434 1.171875,-4.9218746 0.761719,-2.5195313 1.464844,-4.8046875 0.761719,-2.34375002 1.289063,-4.21875 0.527343,-1.9335938 0.585937,-3.1054688 -3.75,1.171875 -6.679687,3.8085938 -2.929688,2.63671873 -4.511719,5.9179687 -1.933594,3.9257813 -3.28125,8.2031254 -1.289063,4.21875 -2.8125,8.4375 L 65.422813,19.31875 q 0.761719,-1.171875 1.640625,-2.988281 0.878907,-1.875 1.699219,-4.101562 0.878906,-2.226563 1.699219,-4.6289066 0.820312,-2.4023438 1.464844,-4.6289063 0.644531,-2.22656247 0.996093,-4.1601562 0.410157,-1.9335938 0.46875,-3.2226563 l -0.117187,-0.1757812 z" /><path
         id="path44"
         style=""
         d="m 104.85641,15.334375 q 0.64453,0 1.69922,-0.703125 1.05468,-0.703125 2.28515,-1.816406 1.23047,-1.113281 2.51953,-2.519531 1.34766,-1.4062501 2.57813,-2.8125001 0.64453,-2.0507813 1.64062,-4.9804688 1.05469,-2.98828122 2.34375,-6.4453125 l -0.82031,1.5820313 q -0.17578,-0.8789063 -0.58594,-1.640625 -0.41015,-0.7617188 -0.9375,-1.3476563 -0.52734,-0.6445312 -1.11328,-0.9960937 -0.52734,-0.3515625 -0.9375,-0.3515625 -0.17578,0 -0.41015,0.1171875 -0.23438,0.1757812 -1.05469,1.1132812 -0.76172,0.8789063 -1.875,2.2851563 -1.05469,1.3476562 -2.28516,2.98828123 -1.17187,1.58203127 -2.22656,3.16406247 -0.99609,1.5820313 -1.75781,2.9882813 -0.76172,1.3476562 -0.87891,2.1679687 -0.11719,0.8203125 -0.23437,1.6992188 -0.11719,0.8203121 -0.11719,1.6406251 0,1.523437 0.41015,2.636719 0.46875,1.113281 1.64063,1.230468 z m 0,22.792969 q 2.10937,-2.988281 3.57422,-7.265625 1.46484,-4.21875 2.51953,-8.847656 -2.69532,2.402344 -3.69141,4.511719 -1.28906,2.8125 -1.875,5.332031 -0.58594,2.519531 -0.58594,4.980469 0,0.292968 0,0.644531 0.0586,0.351562 0.0586,0.644531 z m 7.32422,-22.558594 q 0.0586,-0.234375 0.0586,-0.46875 0,-0.234375 0,-0.46875 -2.51953,2.402344 -4.6875,3.75 -2.10938,1.347657 -3.92578,1.347657 -0.17578,0 -0.41016,-0.05859 -0.17578,0 -0.35156,0 -1.11328,-0.234375 -2.10938,-1.054688 -0.937495,-0.878906 -1.64062,-2.109375 -0.703125,-1.289062 -1.113282,-2.8125 -0.410156,-1.523437 -0.410156,-3.046875 0,-1.7578121 0.644531,-3.5742184 0.46875,-1.2304687 1.40625,-2.9882812 0.937497,-1.7578125 2.109377,-3.63281252 1.23047,-1.93359378 2.57812,-3.86718748 1.40625,-1.9335938 2.8125,-3.515625 1.40625,-1.5820313 2.69532,-2.578125 1.34765,-1.0546874 2.46093,-1.2304684 0.29297,-0.05859 0.52735,-0.05859 0.23437,0 0.46875,0 1.23047,0 2.16797,0.351562 0.99609,0.351563 1.69921,0.9375004 0.76172,0.5273437 1.23047,1.171875 0.46875,0.6445312 0.70313,1.171875 0.17578,-0.703125 0.41015,-1.1132813 l 3.8086,0.5859375 q -1.58203,3.9257813 -2.92969,8.02734378 -1.34766,4.10156252 -2.10937,7.79296872 l 0.0586,0.1757813 q 0,0 -0.11719,0.5859375 -0.11719,0.5273437 -0.23437,1.1718751 -0.11719,0.644531 -0.23438,1.171875 -0.11719,0.527344 -0.11719,0.527344 1.05469,-0.703125 2.63672,-1.464844 1.64063,-0.7617189 3.22266,-1.4648439 1.64062,-0.703125 2.92969,-1.171875 1.28906,-0.5273437 1.64062,-0.6445312 l -0.41015,4.2773441 q -0.46875,0.292968 -1.75782,0.9375 -1.28906,0.644531 -2.98828,1.523437 -1.69922,0.878906 -3.57422,1.992188 -1.875,1.054687 -3.51562,2.285156 -1.17188,4.101562 -2.46094,8.378906 -1.23047,4.335938 -2.40234,7.910156 -1.11328,3.632813 -2.05078,6.09375 -0.87891,2.460938 -1.28907,2.988282 -0.82031,0.820312 -1.64062,1.347656 -0.82031,0.585937 -1.69922,0.585937 -1.75781,0 -3.10547,-2.34375 -0.76172,-1.464843 -0.76172,-4.6875 0,-1.992187 0.29297,-4.335937 0.29297,-2.34375 0.76172,-4.570313 0.52734,-2.226562 1.17187,-4.101562 0.70313,-1.875 1.52344,-2.988281 0.9961,-1.230469 3.16406,-3.046875 2.22657,-1.816407 4.86329,-3.691407 z" /></g></g></svg>
